<svg width="365" height="1080" viewBox="0 0 365 1080" fill="none" xmlns="http://www.w3.org/2000/svg">
<path d="M361.615 491.611C357.702 495.951 352.252 496.51 347.003 497.537C343.328 498.261 339.635 498.867 335.96 499.573C331.008 500.529 328.812 504.768 326.039 508.2C322.714 512.32 319.775 516.755 316.48 520.906C315.53 522.105 313.862 522.711 312.609 523.702C312.009 524.177 311.51 524.866 311.154 525.561C308.358 531.011 305.561 536.455 302.866 541.953C301.666 544.394 299.677 545.462 297.219 544.981C293.669 544.287 289.952 544.091 287.084 541.104C285.642 539.596 283.291 538.955 281.539 538.017C278.784 542.529 276.053 547.006 273.191 551.69C274.335 553.127 274.3 554.319 273.084 555.265C274.064 555.947 275.139 556.701 276.807 557.871C269.807 561.522 266.007 568.57 258.366 570.244C254.625 571.064 250.962 572.132 247.619 569.146C247.234 568.796 246.45 568.926 245.886 568.73C244.865 568.386 243.873 567.958 242.87 567.573C243.321 566.575 243.778 565.578 244.265 564.503C241.706 557.794 238.987 550.758 236.357 543.687C235.507 541.401 234.106 540.92 232.022 541.9C223.68 545.842 214.697 547.433 205.72 549.031C204.182 549.304 202.556 549.393 201 549.244C193.774 548.544 186.994 550.527 180.131 552.332C176.687 553.234 173.065 553.489 169.509 553.947C164.789 554.552 160.069 555.205 155.325 555.579C152.089 555.835 148.788 555.936 145.57 555.585C142.678 555.277 140.963 550.539 141.265 546.739C141.616 542.321 141.847 537.744 141.093 533.416C140.09 527.656 137.412 522.23 138.778 516.061C139.211 514.113 136.872 513.918 135.34 513.591C134.028 513.312 132.597 513.312 131.415 512.76C130.275 512.225 128.72 511.614 130.044 509.554C130.531 508.794 129.474 507.191 129.67 506.068C130.644 500.392 127.337 496.599 121.518 496.29C117.398 496.07 113.307 495.233 109.228 494.532C108.575 494.42 107.654 493.642 107.536 493.042C107.191 491.302 106.164 490.833 104.597 490.358C101.082 489.302 97.721 488.827 93.916 489.04C86.185 489.468 78.497 488.369 71.455 484.558C69.561 483.531 67.899 483.056 66.658 486.024C65.981 487.651 64.2 489.04 62.116 490.133C57.532 492.538 53.518 496.023 49.327 499.146C47.67 500.381 45.943 501.627 44.66 503.207C43.324 504.845 42.54 506.929 41.418 508.758C37.898 514.487 35.54 520.662 34.543 527.294C34.329 528.737 35.16 530.304 35.19 531.818C35.22 533.303 35.131 534.918 34.561 536.248C34.151 537.198 32.53 538.557 32.037 538.349C30.88 537.863 29.443 536.645 29.247 535.529C28.701 532.388 29.194 529.028 28.41 525.976C27.317 521.719 28.635 517.795 29.894 514.167C31.634 509.15 32.358 503.391 36.829 499.71C39.026 497.905 41.739 496.735 44.019 495.013C45.218 494.105 45.901 492.543 46.988 491.445C47.629 490.798 48.561 490.287 49.446 490.062C52.194 489.355 54.409 488.049 55.792 484.855C52.871 484.32 50.004 483.81 47.142 483.275C43.289 482.551 41.062 479.659 38.699 476.946C37.933 476.067 37.203 474.773 36.241 474.53C26.635 472.095 22.71 464.365 19.747 456.237C17.634 450.436 16.82 444.167 15.401 438.111C15.354 437.903 15.045 437.754 14.855 437.582C14.855 433.23 14.855 428.872 14.855 424.52C15.947 421.742 15.983 418.179 20.032 417.609C20.086 417.781 20.187 417.954 20.187 418.126C20.127 423.677 20.02 429.104 18.673 434.661C17.337 440.165 18.892 446.031 20.917 451.44C22.063 454.486 23.387 457.496 24.954 460.346C26.029 462.293 27.418 464.258 29.152 465.576C29.954 466.182 31.913 465.268 33.344 465.036C33.142 463.926 33.16 462.709 32.685 461.729C32.138 460.613 31.283 459.568 30.339 458.743C25.845 454.8 23.292 449.742 21.736 444.101C20.573 439.886 19.118 435.659 21.024 431.354C22.597 438.253 22.942 445.508 26.611 451.79C26.908 451.725 27.205 451.653 27.495 451.588C26.807 447.373 26.112 443.157 25.388 438.728C27.252 439.173 28.76 439.108 28.184 437.107C27.021 433.04 25.441 429.092 24.277 425.019C23.648 422.81 23.506 420.453 23.179 418.161C23.126 417.799 23.233 417.087 23.333 417.075C26.237 416.713 25.382 414.171 25.809 412.557C26.7 409.214 27.567 405.8 27.816 402.368C28.06 398.978 27.46 395.534 27.341 392.109C27.258 389.68 28.03 387.614 29.953 385.898C33.124 383.072 36.995 381.92 40.961 381.232C45.824 380.388 47.593 377.669 45.747 373.056C44.785 370.663 43.77 368.3 42.778 365.919C41.038 361.745 40.362 361.472 35.956 362.488C30.019 363.853 24.313 364.548 19.635 359.026C14.962 353.511 14.012 351.213 17.372 346.724C19.112 344.403 22.045 342.592 24.812 341.511C29.312 339.748 31.812 337.165 32.174 332.142C32.477 327.951 33.456 323.771 34.478 319.668C35.315 316.308 38.687 314.645 42 315.453C43.099 315.72 44.245 315.797 45.408 315.963C45.669 314.942 45.948 314.224 46.026 313.482C46.536 308.761 48.021 303.857 47.249 299.351C45.972 291.935 45.652 284.579 45.77 277.146C45.8 275.234 46.465 273.666 48.347 272.342C51.69 269.991 55.294 270.015 58.975 270.217C61.32 270.347 62.228 269.118 62.312 267.159C62.389 265.318 62.205 263.442 61.943 261.614C61.35 257.386 60.566 253.189 59.996 248.961C59.153 242.697 58.535 236.41 57.633 230.158C56.938 225.355 57.55 224.126 61.748 221.775C65.037 219.934 68.492 219.536 72.138 219.661C75.795 219.792 78.918 222.113 79.53 225.758C80.034 228.745 79.72 231.88 80.337 234.825C81.72 241.433 82.789 248.023 82.593 254.809C82.528 257.03 82.872 259.31 83.365 261.489C84.404 266.126 85.859 267.171 90.603 267.171C92.188 267.171 93.773 267.254 95.352 267.153C99.74 266.88 101.812 264.95 101.456 260.747C101.171 257.345 100.061 254.014 99.467 250.63C99.022 248.071 98.285 245.286 100.999 243.446C103.712 241.605 106.461 241.605 108.545 244.259C111.347 247.821 114.197 251.591 114.233 256.543C114.245 258.479 114.34 260.42 114.275 262.356C114.126 266.678 116.632 268.376 120.752 266.666C126.767 264.167 129.949 259.411 131.873 253.373C133.571 248.035 134.123 242.252 137.739 237.609C141.461 232.836 143.854 227.492 145.035 221.519C145.374 219.815 144.133 218.064 145.475 217.304C148.681 215.493 148.633 212.542 149.037 209.585C149.114 209.015 151.667 208.089 151.774 207.519C153.152 200.151 154.393 192.908 150.326 185.765C148.123 181.894 147.167 181.413 143.1 183.669C139.116 185.878 135.037 188.164 130.709 189.417C127.271 190.414 123.359 190.26 119.725 189.927C117.16 189.69 114.66 188.401 112.22 187.38C109.471 186.234 110.772 183.895 111.14 182.096C111.347 181.075 112.345 179.828 113.301 179.424C115.034 178.694 117.035 178.64 118.858 178.076C122.848 176.841 127.301 178.486 131.101 175.85C135.126 173.065 139.336 170.548 143.035 168.185C142.946 166.926 142.649 165.935 142.857 165.062C143.551 162.105 142.162 159.89 139.158 160.413C136.005 160.965 132.656 161.939 130.05 163.702C124.724 167.3 119.315 167.324 113.491 165.739C109.869 164.753 106.188 163.952 102.501 163.221C98.143 162.354 93.732 161.725 89.374 160.852C87.123 160.401 85.378 160.656 83.923 162.687C83.068 163.886 81.709 164.723 79.922 166.297C79.464 164.397 78.58 162.919 78.972 161.969C80.468 158.359 81.78 151.537 79.577 147.82C77.493 144.305 73.123 145.605 68.938 146.377C68.926 151.228 67.287 154.921 62.703 157.533C58.69 159.825 55.062 162.93 51.625 166.077C46.786 170.506 43.9 170.192 41.044 164.231C40.581 163.263 40.379 161.874 40.7 160.882C41.84 157.314 43.306 153.852 44.524 150.308C44.921 149.15 45.349 147.743 45.052 146.638C43.289 140.072 39.863 134.301 36.354 128.518C33.213 123.347 30.114 118.003 28.071 112.345C25.512 105.25 26.896 97.9233 29.342 90.9054C30.898 86.4287 36.265 82.3023 40.154 82.5576C44.63 82.8485 49.107 83.1691 53.554 83.745C56.582 84.1369 59.319 85.4668 61.089 88.1089C61.979 89.4448 62.519 91.0182 63.428 92.924C64.134 91.0419 63.932 89.0351 65.179 88.1861C68.296 86.0665 71.265 83.0979 73.218 82.5338C75.148 82.6941 75.623 81.8036 76.015 80.1352C78.283 70.5525 82.047 61.7415 89.623 55.0087C93.203 51.8322 97.128 48.9349 100.197 45.3191C105.487 39.085 110.112 32.2927 115.266 25.9339C117.766 22.8525 120.342 19.2248 123.727 17.5743C133.957 12.5751 144.596 8.23492 156.411 9.52331C162.58 10.1942 168.707 9.81423 174.508 8.11024C181.775 5.97282 188.918 3.77014 196.583 4.07294C196.755 4.07888 196.945 3.72263 197.129 3.53857C198.91 3.53857 200.691 3.53857 202.473 3.53857C204.224 3.93637 205.964 4.41727 207.733 4.7082C210.779 5.20693 213.896 5.37914 216.9 6.0738C220.902 6.99407 222.814 10.4555 225.028 13.4835C226.946 16.1018 229.38 17.9958 232.723 18.3758C240.643 19.2723 245.755 27.6913 242.62 34.8873C241.059 38.4793 239.349 42.012 237.485 45.4616C235.674 48.8102 234.807 52.2419 235.08 56.0655C235.312 59.2538 236.315 60.3463 239.485 60.5659C242.994 60.8034 246.117 59.996 249.234 58.3158C254.934 55.2462 258.787 57.2174 260.058 63.5049C260.385 65.1139 260.759 66.711 261.067 68.32C262.516 75.9197 264.291 83.4778 265.307 91.1369C266.512 100.215 267.046 109.376 267.889 118.502C268.394 123.994 266.197 128.666 262.213 131.902C257.078 136.076 251.182 139.3 245.749 143.135C242.947 145.118 240.329 147.363 239.384 151.02C236.915 160.591 233.536 169.93 232.681 179.905C232.284 184.536 231.09 189.096 230.342 193.222C234.047 194.748 236.826 194.825 239.687 195.858C245.435 197.936 251.259 199.789 256.983 201.926C260.201 203.131 263.454 205.613 266.369 207.394C269.403 209.253 272.704 209.674 275.489 211.931C278.107 214.05 280.257 216.674 282.614 219.055C284.389 220.848 285.606 224.571 287.09 226.649C287.678 227.468 288.23 228.317 288.848 229.22C286.77 234.492 282.946 230.105 280.168 228.406C277.24 226.625 274.022 225.218 270.335 225.551C265.39 225.996 261.655 228.745 255.896 229.143C256.727 230.538 255.944 228.941 256.531 229.73C256.929 230.265 257.992 230.71 257.944 231.096C261.24 233.299 261.127 234.451 263.021 235.08C263.614 235.276 261.994 236.178 262.415 236.903C261.691 237.283 260.937 238.031 260.248 237.971C258.283 237.811 258.461 237.223 256.496 236.855C254.821 238.274 256.395 238.755 258.277 239.824C259.583 240.566 259.957 242.08 260.652 243.386C264.689 250.992 266.138 258.871 270.009 266.565C270.597 267.735 271.113 269.041 271.256 270.329C271.737 274.782 276.599 279.081 277.193 283.546C278.036 289.857 279.978 295.86 282.127 301.999C282.887 304.172 284.401 306.487 284.995 308.702C285.38 310.151 285.553 311.683 286.117 313.03C290.439 323.415 291.46 333.692 295.735 344.1C299.844 354.098 307.081 362.796 311.118 372.824C312.152 375.389 311.991 379.771 313.867 381.612C320.387 388.006 322.387 395.689 325.908 403.912C328.533 410.033 330.361 416.511 333.181 422.531C335.586 427.655 338.952 432.328 341.773 437.268C342.473 438.497 342.717 439.993 343.168 441.37L342.337 441.803C343.245 442.296 344.124 442.86 345.068 443.264C350.75 445.675 354.045 450.056 355.339 455.952C355.814 458.119 355.63 460.423 356.064 462.602C357.429 469.465 358.943 476.293 360.404 483.139C360.79 484.962 361.187 486.778 361.579 488.601V491.57L361.615 491.611Z" fill="white"/>
<path d="M278.493 1078.81C274.581 1078.02 270.686 1077.1 266.749 1076.46C254.358 1074.41 241.949 1072.49 229.552 1070.47C227.86 1070.2 226.144 1069.81 224.553 1069.2C216.704 1066.17 208.784 1066.58 200.668 1068C195.502 1068.9 190.176 1069.13 184.916 1069.25C176.408 1069.45 167.9 1069.31 159.386 1069.31C155.414 1069.31 151.43 1069.53 147.482 1069.25C141.301 1068.82 136.557 1064.31 136.064 1057.84C135.417 1049.32 134.859 1040.76 134.966 1032.22C135.019 1028.03 135.292 1023.42 138.243 1019.87C139.116 1018.82 140.666 1017.91 142.007 1017.74C146.894 1017.11 149.346 1013.57 148.366 1008.55C147.09 1002.02 145.991 995.453 144.946 988.881C144.418 985.568 145.742 982.748 147.897 980.29C148.841 979.209 149.999 978.277 150.747 977.083C152.896 973.664 155.907 971.971 159.92 971.894C160.443 971.882 160.953 971.502 161.434 971.307C160.805 967.156 159.018 964.176 155.105 962.448C152.611 961.35 151.21 957.33 152.136 954.795C152.415 954.035 153.413 953.073 154.149 953.014C161.684 952.414 168.998 950.378 176.681 950.372C184.447 950.366 192.201 948.691 199.985 948.24C208.974 947.724 217.927 947.741 226.418 951.844C229.291 953.233 232.735 953.643 235.971 953.999C239.26 954.368 240.447 956.434 240.394 959.076C240.281 964.538 239.61 969.982 239.367 975.445C239.194 979.417 238.565 983.573 241.7 986.898C242.074 987.296 242.656 987.931 243 987.854C246.117 987.117 249.163 985.865 252.304 985.544C254.311 985.336 256.258 983.787 258.592 985.413C263.264 988.679 268.162 991.636 273.073 994.551C275.056 995.732 274.361 996.552 272.461 997.953C275.928 1000.04 278.98 1002.05 282.186 1003.78C287.423 1006.6 292.274 1010.28 298.371 1011.23C299.321 1011.38 300.313 1011.81 301.203 1011.65C306.707 1010.66 311.867 1012.16 317.133 1013.4C321.936 1014.53 326.923 1014.89 331.78 1015.82C337.83 1016.99 343.952 1018.04 349.824 1019.84C354.229 1021.19 357.126 1024.78 357.376 1029.52C357.649 1034.84 357.114 1040.2 357.209 1045.53C357.245 1047.47 358.456 1049.4 356.913 1051.27C356.693 1051.54 356.847 1052.18 356.604 1052.36C352.264 1055.62 348.078 1059.16 343.429 1061.9C341.256 1063.19 338.175 1063.01 335.479 1063.29C332.178 1063.62 328.841 1063.64 325.54 1063.97C322.951 1064.22 320.25 1064.38 317.875 1065.29C316.699 1065.75 315.928 1067.74 315.364 1069.18C313.297 1074.47 310.329 1076.1 304.688 1075.33C303.18 1075.12 301.524 1075.96 299.939 1076.35C296.744 1077.14 293.556 1077.97 290.362 1078.78C286.402 1078.78 282.447 1078.78 278.487 1078.78L278.493 1078.81Z" fill="white"/>
<path d="M269.017 598.892V593.91C271.802 594.943 274.646 595.353 276.54 596.914C278.006 598.12 278.22 600.797 279.111 602.763C279.77 604.223 280.268 606.254 281.45 606.901C285.475 609.086 285.885 612.743 286.218 616.573C286.408 618.704 287.025 620.895 286.722 622.955C286.069 627.379 285.012 631.748 283.938 636.094C283.754 636.848 282.643 637.371 281.699 638.244C281.462 642.156 281.177 646.651 280.957 651.157C280.939 651.549 281.307 652.036 281.622 652.363C285.642 656.507 286.948 661.708 286.016 667.063C285.582 669.569 284.169 671.973 284.258 674.728C284.27 675.031 283.356 675.684 282.976 675.613C282.424 675.512 281.759 674.995 281.515 674.479C280.737 672.846 280.132 671.136 279.295 669.034C278.808 673.998 278.398 678.558 277.882 683.106C277.733 684.424 277.365 685.742 276.92 686.995C276.736 687.517 275.881 688.331 275.679 688.241C273.061 687.072 273.417 690.076 272.069 690.628C273.898 692.712 273.933 695.141 272.301 696.886C269.783 699.582 266.856 701.962 263.84 704.1C262.754 704.872 260.889 704.705 259.381 704.688C257.321 704.664 255.932 705.002 255.189 707.353C254.014 711.064 253.313 715.024 250.279 717.963C246.284 721.835 243.974 722.256 238.957 719.62C238.197 719.222 237.431 718.842 236.98 718.61C236.665 725.035 236.351 731.489 236.024 738.18C239.319 737.45 241.848 736.856 244.395 736.327C248.848 735.407 251.603 738.447 250.285 742.751C246.806 754.08 243.178 765.372 239.948 776.772C238.357 782.395 237.698 788.272 236.303 793.954C233.596 804.944 230.621 815.863 227.866 826.835C227.284 829.156 227.154 831.597 226.845 833.989C226.061 840.14 225.248 846.291 224.535 852.448C224.043 856.693 223.514 860.951 223.336 865.219C222.992 873.454 222.73 881.701 222.748 889.942C222.754 894.104 223.686 898.254 223.769 902.422C223.864 907.018 223.235 911.625 223.342 916.214C223.455 920.893 223.882 925.589 224.547 930.227C224.945 933.023 226.471 935.683 226.744 938.479C227.124 942.404 223.176 946.014 219.251 946.453C213.54 947.088 209.199 945.058 205.067 941.145C201.238 937.517 196.725 934.561 192.302 931.628C191.097 930.826 188.989 930.69 187.528 931.093C182.737 932.405 178.296 931.159 173.896 929.674C172.335 929.146 171.136 928.119 170.88 925.851C170.524 922.674 169.022 919.64 168.274 916.482C167.9 914.896 167.573 912.937 168.167 911.548C169.877 907.534 167.211 904.465 166.487 900.985C166.154 899.388 165.78 897.773 165.727 896.158C165.65 893.855 165.709 891.973 163.471 890.096C161.856 888.743 161.488 885.661 160.989 883.263C159.873 877.895 158.923 872.492 158.091 867.072C157.331 862.096 156.447 857.091 156.269 852.074C155.948 843.026 155.099 834.126 152.374 825.434C151.655 823.148 151.733 820.607 151.37 817.555C151.145 817.365 150.248 816.653 149.399 815.887C147.642 814.301 146.733 812.799 147.131 809.955C148.829 797.766 152.956 786.491 158.181 775.424C161.624 768.133 164.052 760.361 166.849 752.774C169.028 746.848 170.868 740.792 173.237 734.95C175.63 729.042 181.674 726.246 187.451 728.775C191.667 730.616 194.932 729.119 197.165 726.495C199.587 723.657 201.042 719.828 199.444 715.678C198.346 712.828 197.331 709.918 196.612 706.956C195.912 704.058 195.645 701.054 195.128 697.723C193.567 697.878 191.91 698.068 190.248 698.21C185.605 698.602 181.449 696.803 177.322 695.129C173.065 693.401 168.725 691.655 164.884 689.191C163.019 687.992 161.636 685.291 161.078 683.011C160.449 680.452 165.074 678.13 168.624 678.587C170.963 678.89 173.386 678.73 175.743 678.516C176.2 678.475 176.574 677.246 176.948 676.545C177.417 675.666 177.845 674.764 178.29 673.873C179.097 674.568 179.899 675.263 180.742 675.993C183.087 673.689 182.951 673.737 184.18 677.388C184.518 678.386 185.836 679.175 186.875 679.769C187.754 680.274 188.864 680.517 189.897 680.6C192.367 680.802 194.807 683.029 197.39 680.636C197.77 680.285 199.617 680.677 199.896 681.2C201.065 683.403 202.882 682.666 204.901 682.821C201.76 678.671 198.827 674.799 196.149 671.255C194.439 671.255 191.732 672.015 190.865 671.071C189.666 669.765 189.476 667.182 189.517 665.157C189.583 662.07 190.337 659.006 190.58 655.919C191.061 649.887 191.37 643.843 191.833 637.804C191.886 637.139 192.302 636.195 192.83 635.928C194.356 635.156 196.013 634.646 197.634 634.07C202.52 632.324 202.829 632.449 205.043 637.11C206.094 636.528 207.115 635.887 208.202 635.382C210.47 634.325 213.557 636.207 213.735 638.903C214.038 643.587 214.127 648.29 214.359 652.98C214.472 655.302 214.584 657.635 214.899 659.933C215.392 663.56 217.672 665.11 221.24 665.609C231.939 667.105 241.427 664.386 250.131 658.163C254.15 655.29 258.366 652.665 262.623 650.142C265.384 648.503 268.269 649.251 271.861 650.831C271.861 648.355 272.592 645.79 271.719 644.009C269.338 639.158 271.262 634.551 271.659 629.86C271.843 627.705 272.307 625.568 272.657 623.383C268.916 623.317 266.72 621.75 266.049 618.449C264.915 612.88 263.917 607.275 263.122 601.646C262.926 600.275 263.739 598.761 264.089 597.312C265.71 597.829 267.337 598.345 269 598.874L269.017 598.892ZM204.622 675.5C204.479 675.767 204.337 676.034 204.188 676.302C205.299 677.275 206.807 678.035 207.436 679.258C208.986 682.268 211.562 682.631 214.442 682.821C216.384 682.951 218.479 682.957 220.219 683.694C230.289 687.962 240.756 686.08 251.811 686.407C247.441 679.52 248.783 672.632 249.436 665.739C246.96 667.022 244.621 668.316 242.211 669.474C237.318 671.825 232.004 672.84 226.708 672.502C221.864 672.193 217.096 670.691 212.269 669.86C211.669 669.759 210.571 670.376 210.298 670.94C209.395 672.828 208.76 674.847 208.137 676.503C206.563 676.052 205.59 675.773 204.616 675.494L204.622 675.5ZM270.537 656.18C267.687 656.37 265.14 655.883 263.306 656.804C259.298 658.816 255.623 661.5 251.912 664.059C251.384 664.427 251.206 665.62 251.235 666.416C251.318 668.738 251.526 671.065 251.805 673.375C252.126 676.046 252.037 678.962 253.147 681.277C253.966 682.981 256.276 684.388 258.212 684.994C259.547 685.409 262.154 684.744 262.86 683.676C266.007 678.932 267.497 673.802 264.268 668.316C263.312 666.695 262.504 664.932 261.982 663.127C261.738 662.29 262.35 661.215 262.569 660.241C263.549 660.556 264.725 660.633 265.473 661.239C266.631 662.183 267.503 663.483 268.495 664.635C268.774 664.475 269.053 664.314 269.332 664.154C269.688 661.809 270.044 659.464 270.549 656.18H270.537Z" fill="white"/>
<path d="M115.189 505.154C113.77 505.712 112.832 506.104 111.882 506.454C110.617 506.917 109.352 507.398 108.064 507.79C103.724 509.114 103.635 512.314 103.861 516.126C104.193 521.671 103.872 527.258 103.961 532.822C104.092 540.979 104.579 549.143 104.454 557.295C104.371 562.686 104.828 567.863 106.568 572.975C107.025 574.311 107.209 576.009 106.776 577.286C106.455 578.23 105.018 579.108 103.92 579.393C102.602 579.732 100.85 579.922 100.453 577.814C99.6631 573.67 98.8971 569.526 98.0781 565.12C95.5961 568.409 91.7841 569.164 90.0391 566.89C88.8511 565.34 88.5601 563.778 90.5081 562.353C91.1901 561.855 91.9621 560.661 91.8141 559.973C90.6741 554.641 92.3541 549.707 93.3341 544.583C94.5391 538.29 95.0441 531.848 95.6081 525.448C96.0231 520.751 96.0351 516.019 96.2311 511.299C96.2961 509.66 96.2961 508.33 93.9991 508.004C92.6751 507.814 92.2591 506.205 93.6541 505.35C95.0791 504.483 96.7771 504.056 98.3691 503.468C99.5091 503.046 101.925 504.346 101.195 501.336C101.171 501.247 102.584 500.487 103.207 500.618C106.509 501.283 109.798 502.067 113.04 502.969C113.675 503.147 114.114 504.026 115.189 505.154Z" fill="white"/>
<path d="M215.855 564.705C217.286 565.317 217.529 566.373 215.891 568.238C211.23 573.522 205.453 577.435 199.272 580.379C191.394 584.132 186.525 590.93 180.54 596.636C179.038 598.066 177.316 599.266 175.719 600.602C174.116 601.943 172.608 603.416 170.94 604.675C168.891 606.224 166.819 607.798 164.563 608.997C163.156 609.745 161.606 609.098 161.155 607.418C160.971 606.729 161.375 605.678 161.85 605.043C164.058 602.05 166.178 598.957 168.719 596.256C172.792 591.921 177.15 587.86 181.443 583.74C181.769 583.425 182.535 583.55 183.099 583.502C183.568 583.467 184.174 583.675 184.488 583.449C188.17 580.831 192.017 578.39 195.401 575.434C200.394 571.07 204.919 566.16 209.959 561.855C211.087 560.893 213.534 561.386 215.362 561.469C215.546 561.475 215.641 563.31 215.837 564.711L215.855 564.705Z" fill="white"/>
<path d="M67.7319 497.507C70.0179 499.484 71.68 501.616 71.924 504.899C72.755 515.865 72.239 526.944 74.703 537.791C74.946 538.848 73.7109 540.261 73.1109 541.484C72.9689 541.781 72.619 541.977 72.363 542.215C71.401 543.099 69.733 544.851 69.579 544.72C67.833 543.319 65.8089 541.864 64.9119 539.935C64.1579 538.308 64.6509 536.028 64.8169 534.063C65.5409 525.531 66.4259 517.011 67.0849 508.479C67.3519 505.018 67.1679 501.527 67.2099 498.047C67.2099 497.929 67.4289 497.81 67.7319 497.507Z" fill="white"/>
<path d="M285.618 1079.99C284.935 1079.8 284.264 1079.45 283.576 1079.42C277.496 1079.18 271.398 1079.14 265.324 1078.76C254.72 1078.08 244.111 1077.36 233.53 1076.36C223.395 1075.4 213.29 1074.07 203.185 1072.85C201.861 1072.69 200.584 1072.14 199.266 1071.88C198.625 1071.76 197.651 1071.59 197.319 1071.93C194.546 1074.74 191.281 1073.24 188.176 1073.12C186.329 1073.05 184.489 1072.96 182.642 1072.87C174.805 1072.48 166.956 1072.27 159.136 1071.62C153.639 1071.16 148.164 1070.23 142.72 1069.27C136.884 1068.23 134.325 1063.87 133.084 1058.64C130.739 1048.76 130.454 1038.78 132.276 1028.77C132.674 1026.56 132.799 1024.32 133.167 1022.11C133.654 1019.2 134.954 1016.98 137.952 1015.79C140.143 1014.93 142.114 1013.51 144.014 1012.43C142.607 1006.67 140.951 1000.86 139.84 994.943C139.253 991.808 139.526 988.489 139.609 985.259C139.633 984.428 140.208 983.377 140.867 982.831C145.231 979.203 149.613 975.593 154.149 972.185C155.426 971.229 157.231 970.974 159.469 970.143C157.308 975.943 152.807 978.33 149.067 981.37C147.565 982.587 147.22 983.377 147.701 985.419C149.399 992.651 150.616 999.995 152.018 1007.3C152.291 1008.72 152.594 1010.13 152.867 1011.55C152.997 1012.22 153.359 1013 153.152 1013.55C152.54 1015.16 151.994 1017.04 150.801 1018.1C150.225 1018.62 148.236 1017.56 146.757 1017.17C139.217 1019.51 137.388 1025.3 138.273 1032.97C139.015 1039.42 138.997 1045.95 139.324 1052.71C144.483 1048.9 148.212 1050.09 149.31 1055.71C153.247 1055.95 157.242 1056.27 161.238 1056.4C162.343 1056.43 163.471 1055.67 164.575 1055.7C170.453 1055.88 176.337 1056.08 182.203 1056.5C186.857 1056.83 191.477 1057.65 196.126 1058C205.673 1058.7 215.238 1059.2 224.791 1059.83C233.085 1060.38 241.368 1061.06 249.662 1061.58C257.41 1062.06 265.17 1062.44 272.93 1062.71C273.809 1062.74 275.24 1062 275.536 1061.27C278.291 1054.48 283.73 1052.05 290.534 1051.48C297.712 1050.87 304.878 1050.06 312.448 1049.29C311.712 1046.74 311.314 1043.82 310.02 1041.38C309.201 1039.84 307.194 1038.69 305.472 1037.89C298.08 1034.48 290.558 1031.35 283.178 1027.91C281.877 1027.3 281.052 1025.69 280.007 1024.55C282.513 1024.74 285.22 1024.37 287.47 1025.23C296.293 1028.57 305.039 1032.16 313.66 1035.99C315.53 1036.82 317.264 1038.78 318.219 1040.64C319.443 1043.02 319.817 1045.84 320.44 1048.06C331.94 1045.84 343.53 1043.59 354.864 1041.4C354.3 1036.55 353.617 1032.15 353.332 1027.73C353.024 1022.94 351.902 1020.79 348.577 1020.03C339.861 1018.03 331.121 1016.15 322.435 1014.05C319.763 1013.41 317.804 1013.31 315.049 1014.9C307.71 1019.14 299.149 1019.08 290.944 1019.97C287.268 1020.37 283.51 1020.03 280.078 1020.03C280.078 1021.73 280.078 1023.17 280.078 1024.62C277.217 1027.09 274.45 1029.69 271.469 1032.02C269.106 1033.86 268.05 1031.32 267.022 1030.01C266.666 1029.56 267.426 1027.7 268.168 1027.03C270.282 1025.14 272.651 1023.54 274.919 1021.82C275.044 1021.67 275.174 1021.52 275.299 1021.37C275.21 1021.35 275.127 1021.33 275.038 1021.3C275.026 1021.49 275.02 1021.69 275.008 1021.88C271.79 1020.67 268.424 1019.76 265.384 1018.22C254.346 1012.61 243.244 1007.08 232.527 1000.9C228.294 998.458 224.951 994.444 221.323 991.018C220.403 990.145 219.952 988.78 219.162 987.426C209.924 987.58 201.707 992.117 192.949 995.293C206.16 1004.8 220.492 1012.1 234.831 1019.34C245.957 1024.96 257.309 1030.13 268.525 1035.57C269.332 1035.96 269.843 1036.97 270.49 1037.69C270.276 1037.99 270.068 1038.3 269.854 1038.61C267.497 1037.94 265.063 1037.47 262.795 1036.57C246.206 1030.1 229.523 1023.85 213.136 1016.91C203.654 1012.9 194.499 1008.01 186.46 1001.36C183.681 999.057 184.132 994.379 187.386 992.823C189.363 991.879 191.423 991.107 194.451 989.837C191.192 988.394 188.722 987.248 186.21 986.203C178.533 983.003 170.827 979.874 163.168 976.644C162.069 976.181 161.143 975.302 159.629 974.269C160.829 973.871 161.404 973.681 161.98 973.485C161.879 973.319 161.713 973.165 161.684 972.987C160.787 967.821 157.159 965.708 152.499 964.841C149.215 964.229 150.231 961.314 149.767 959.444C149.269 957.425 149.868 955.157 149.827 952.996C149.809 952.165 149.334 951.339 148.889 949.956C153.508 949.345 158.026 948.751 162.782 948.121C157.136 924.93 157.646 901.265 154.802 877.907C152.677 877.361 151.667 874.113 153.508 872.237C155.087 870.628 154.784 869.233 154.44 867.363C153.116 860.25 151.774 853.119 150.907 845.941C150.177 839.933 150.017 833.841 149.773 827.785C149.684 825.469 149.999 823.13 150.26 820.815C150.438 819.253 149.696 818.624 148.354 818.155C142.518 816.112 142.851 816.047 142.399 809.872C142.091 805.651 143.836 802.19 144.929 798.431C147.387 789.982 149.281 781.344 152.154 773.044C155.123 764.47 158.709 756.087 162.533 747.852C165.436 741.6 169.028 735.651 172.555 729.707C173.635 727.885 175.458 726.483 177.043 724.999C177.477 724.595 178.765 724.299 178.842 724.429C180.701 727.606 184.465 725.148 186.786 727.404C188.182 721.081 190.283 715.345 194 710.198C194.807 709.075 194.113 706.766 193.893 705.032C193.644 703.031 193.157 701.066 192.753 698.964C184.744 698.335 177.019 696.215 169.503 693.086C167.377 692.202 164.658 692.795 162.455 692.018C158.406 690.593 154.535 688.651 150.593 686.923C149.387 686.395 148.194 685.855 146.431 685.071C146.686 680.286 147.078 675.007 147.226 669.717C147.369 664.576 147.197 659.428 147.274 654.28C147.422 644.917 147.499 635.548 147.903 626.191C148.283 617.392 148.776 608.581 149.696 599.824C151.151 585.984 153.003 572.18 154.666 558.5C150.165 559.094 144.94 559.985 139.68 560.377C137.839 560.513 135.91 559.421 134.342 558.987C135.067 568.457 135.684 578.206 136.616 587.926C137.139 593.34 135.5 598.078 133.155 602.739C133.119 602.804 133.173 602.911 133.208 603.238C133.879 602.982 134.503 602.751 135.298 602.454C135.209 602.864 135.203 603.137 135.091 603.357C133.588 606.295 131.795 608.647 127.865 608.035C125.65 607.691 125.258 606.284 126.208 604.977C131.029 598.34 128.435 591.274 126.832 584.755C124.908 576.918 123.81 569.051 122.901 561.095C122.165 554.635 121.328 548.187 120.627 541.722C120.123 537.049 119.701 532.371 119.363 527.686C118.822 520.265 118.377 512.843 117.89 505.35H116.406C116.406 507.713 116.923 510.171 116.281 512.279C115.373 515.283 112.22 513.799 109.833 514.369C109.833 518.323 109.899 522.248 109.822 526.172C109.697 532.371 109.335 538.569 109.347 544.762C109.364 552.415 109.768 560.068 109.792 567.721C109.798 570.298 108.652 572.946 108.996 575.428C109.263 577.357 109.168 578.758 107.69 579.696C106.212 580.641 104.371 581.822 102.833 581.65C101.147 581.454 98.998 580.676 98.95 577.868C98.909 575.487 98.143 573.124 97.704 570.755C94.913 571.456 88.465 569.283 87.468 566.593C86.732 564.604 87.135 562.081 87.42 559.848C88.263 553.234 89.219 546.632 90.294 540.047C91.642 531.765 93.061 523.494 94.646 515.253C94.931 513.781 94.515 513.336 93.708 512.202C92.2 510.088 91.618 507.315 90.353 504.032C88.24 503.753 85.033 503.284 81.81 502.916C80.147 502.726 79.631 502.162 79.387 500.28C79.132 498.273 77.576 496.432 76.591 494.521C76.335 494.556 76.074 494.598 75.819 494.633C76.068 498.938 76.306 503.242 76.573 507.547C76.763 510.67 76.994 513.787 77.202 516.91C77.802 526.095 78.419 535.274 78.966 544.459C79.019 545.391 78.574 546.341 78.443 547.291C78.17 549.227 77.291 549.114 75.569 548.752C73.313 548.271 70.885 548.502 68.534 548.591C66.907 548.651 64.971 549.624 63.76 549.019C62.531 548.407 61.344 546.377 61.296 544.928C60.91 533.404 60.691 521.868 60.661 510.332C60.649 504.946 61.172 499.567 61.457 494.182C61.154 493.956 60.857 493.737 60.554 493.511C56.267 497.079 51.541 500.244 47.819 504.329C44.221 508.277 41.246 512.95 38.758 517.706C36.348 522.319 37.743 527.3 39.168 532.097C39.441 533.018 39.138 534.49 38.521 535.232C36.33 537.886 33.326 539.519 29.983 538.314C26.421 537.031 24.319 533.896 23.826 530.162C22.514 520.146 25.073 511.056 31.04 502.934C35.57 496.765 41.959 493.048 48.674 489.789C50.045 489.124 51.423 488.488 53.222 487.639C50.158 487.146 47.421 486.796 44.725 486.244C42.416 485.769 39.904 485.817 39.085 482.533C38.414 479.82 36.853 477.326 35.612 474.565C26.789 474.245 20.347 467.482 17.651 459.057C14.908 450.472 13.193 441.685 12.706 432.832C12.308 425.589 13.887 418.292 19.676 412.776C20.549 411.945 21.309 410.502 21.309 409.345C21.315 404.814 21.149 400.278 20.739 395.766C20.507 393.201 19.771 390.666 19.136 388.149C18.275 384.741 18.839 383.458 22.199 382.389C25.043 381.487 27.953 380.792 30.832 379.997C33.35 379.302 35.897 378.679 38.373 377.865C42.303 376.571 42.796 375.609 41.876 371.097C41.763 376.82 37.001 375.591 33.676 376.88C33.92 373.175 34.163 369.535 34.424 365.593C33.528 365.854 32.922 366.062 32.299 366.204C24.705 367.968 17.248 363.586 14.802 356.052C13.507 352.056 14.374 348.458 17.052 345.531C20.044 342.271 23.648 339.57 26.652 336.316C27.911 334.957 28.897 332.831 28.992 331.002C29.277 325.754 30.381 321.016 33.664 316.688C35.172 314.699 36.615 313.778 39.263 314.111C39.032 310.828 38.865 307.728 38.58 304.635C38.034 298.721 37.399 292.82 36.829 286.912C36.378 282.252 36.223 277.537 35.404 272.942C35.071 271.072 35.891 270.727 36.959 270.169C38.099 269.576 39.524 269.356 40.451 268.548C42.588 266.69 44.31 264.333 46.536 262.617C50.722 259.399 52.533 259.815 55.217 264.38C56.873 267.189 58.969 265.283 60.566 265.265C59.379 258.087 58.138 250.915 57.021 243.725C55.988 237.033 55.062 230.33 54.177 223.621C54.094 223.01 54.463 222.054 54.943 221.703C61.522 216.906 68.7 214.418 76.977 216.069C82.564 217.185 82.813 217.066 83.721 222.796C84.76 229.327 85.437 235.923 86.067 242.513C86.631 248.409 86.922 254.329 87.367 260.806C91.689 260.028 95.952 259.268 99.93 258.55C98.915 253.005 97.935 247.851 97.068 242.68C96.961 242.033 97.199 240.916 97.644 240.655C105.731 235.941 112.232 237.675 115.141 248.267C115.753 250.487 115.777 252.868 116.103 255.427C118.864 254.792 121.708 254.329 124.409 253.414C125.3 253.111 126.404 251.657 126.398 250.731C126.303 239.236 130.94 230.14 139.276 222.339C142.411 219.406 144.169 214.976 146.472 211.183C147.951 208.742 148.806 206.278 148.556 203.173C148.057 197.064 148.242 190.895 148.135 184.34C142.453 187.143 137.555 189.951 132.353 192.017C125.68 194.671 119.078 193.157 112.855 190.141C106.01 186.822 103.13 187.143 97.585 194.903C95.073 198.412 92.847 202.241 92.669 206.724C92.443 212.518 94.438 217.316 100.078 220.308C97.62 220.753 96.267 220.207 94.29 217.446C89.415 210.636 89.077 203.209 92.164 195.674C95.228 188.205 100.411 182.529 107.987 179.026C99.96 177.405 93.595 182.69 89.76 189.814C85.657 197.444 83.424 205.72 83.104 214.448C83.086 214.982 82.932 215.511 82.759 216.532C80.581 211.384 81.976 206.652 82.813 202.188C83.894 196.434 85.776 190.752 87.966 185.302C90.561 178.854 95.626 174.959 102.97 174.698C108.498 174.502 114.055 175.499 119.606 175.779C124.956 176.046 130.311 175.921 134.663 172.145C135.993 170.993 136.925 169.39 138.041 167.989C137.863 167.745 137.685 167.496 137.501 167.253C134.485 168.345 131.475 169.461 128.453 170.536C117.184 174.55 106.883 173.012 97.413 165.507C94.913 163.524 91.843 162.259 89.581 160.977C85.633 165.24 82.296 169.55 78.235 173.006C74.703 176.004 70.41 178.148 66.331 180.445C64.188 181.651 61.837 182.559 59.48 183.289C56.374 184.251 53.881 182.891 53.548 180.291C54.225 180.398 54.902 180.505 56.024 180.677C55.407 179.929 55.086 179.537 54.546 178.878C66.224 177.245 72.654 169.141 78.348 160.164C78.728 159.57 78.746 158.561 78.562 157.83C77.778 154.672 76.905 151.531 75.955 148.414C75.759 147.767 75.094 147.262 74.637 146.686C74.103 149.114 73.634 151.258 73.117 153.621C73.675 153.306 74.156 153.033 74.655 152.754C75.273 154.393 72.696 158.121 71.027 158.555C66.782 159.665 62.46 160.662 58.44 162.354C56.262 163.275 54.813 165.774 52.741 167.116C50.859 168.333 48.65 169.242 46.465 169.734C43.348 170.435 41.311 168.927 40.86 166.107C35.618 166.766 30.577 167.787 25.512 167.924C20.044 168.066 16.405 164.154 12.866 160.633H22.971C21.475 158.721 19.949 156.768 17.942 154.197C19.504 154.559 20.501 154.654 21.374 155.022C24.028 156.138 26.617 157.403 29.277 158.507C29.853 158.745 30.678 158.727 31.277 158.513C37.939 156.15 40.718 154.897 35.499 146.888C32.75 142.672 30.339 138.32 29.544 133.019C24.04 137.466 18.014 138.659 11.732 135.263C8.51999 133.529 5.59899 131.19 2.77899 128.839C1.54999 127.817 0.908 126.084 0 124.677C0 123.887 0 123.091 0 122.302C0.356 122.391 0.890995 122.355 1.05099 122.581C7.08299 131.148 18.293 127.592 24.129 122.456C19.7 112.98 15.265 103.154 21.249 93.1201C28.683 80.6637 40.652 77.5763 54.979 80.1946C46.958 71.9656 38.23 73.4736 29.294 76.3176C36.146 73.3252 42.986 71.2412 50.591 73.3668C58.429 75.5576 61.575 81.9996 65.209 88.9759C65.043 82.8367 70.048 83.4127 73.034 81.4831C71.461 74.4058 73.497 68.1004 77.731 62.46C80.438 58.8502 81.62 54.4981 84.79 50.912C87.468 47.884 89.166 43.5083 92.099 40.3616C97.395 34.6796 102.501 28.6414 108.598 23.9331C116.05 18.1799 124.849 14.481 133.862 11.5599C141.111 9.21469 148.259 6.44195 156.067 6.47757C156.744 6.47757 157.426 5.88388 158.46 5.39702C153.241 3.09337 148.443 3.0102 143.599 4.16797C139.11 5.24261 134.651 6.45383 130.18 7.59972C130.02 7.33255 129.86 7.06539 129.699 6.79821C129.973 6.71509 130.252 6.63787 130.519 6.54287C135.465 4.75576 140.416 2.98649 145.344 1.15781C145.849 0.967817 146.217 0.391859 146.644 0C149.809 0 152.98 0 156.144 0C160.662 1.31807 164.32 3.7524 166.119 7.46912C173.748 5.74138 181.039 3.44961 188.49 2.58871C195.68 1.75156 203.108 1.77531 210.304 2.58871C215.499 3.17056 220.753 4.89826 225.046 8.55562C227.356 10.5268 229.077 12.9373 232.586 13.8992C239.01 15.6566 245.304 18.2868 251.212 21.392C254.394 23.0663 256.822 26.3377 259.257 29.1757C259.916 29.9416 259.351 31.7525 259.351 33.0884C258.229 32.94 257.107 32.7915 255.676 32.5956C251.621 34.8399 247.127 37.2861 242.692 39.8391C241.985 40.2428 241.439 41.0562 241.011 41.7924C237.942 47.0825 239.735 52.6338 240.014 58.0367C246.8 56.8968 253.088 53.9103 260.082 54.4031C259.34 55.5015 258.532 56.3625 257.535 56.8434C253.913 58.5949 250.285 60.3404 246.563 61.8485C242.579 63.4634 238.411 64.544 234.522 61.706C232.539 60.2573 230.758 58.4642 229.119 56.6237C225.616 52.6932 222.345 48.555 218.842 44.6245C211.717 36.6329 203.541 29.9357 193.917 24.9603C193.181 26.2487 192.575 27.6736 191.661 28.8611C185.148 37.3276 176.141 42.5108 166.932 47.3734C163.981 48.9349 160.229 49.4693 157.896 51.6127C149.666 59.1648 141.889 67.2039 133.98 75.1064C133.458 75.6288 133.054 76.5254 133.03 77.2616C132.935 80.8299 133.036 84.4042 132.977 87.9784C132.811 97.4661 132.579 106.954 132.401 116.448C132.324 120.728 132.353 120.728 136.545 122.462C137.186 114.096 137.828 105.749 138.469 97.4008C138.831 97.4186 139.193 97.4364 139.555 97.4542C141.42 106.354 138.029 115.171 137.75 124.041C138.095 124.053 138.433 124.059 138.778 124.071V119.333C139.817 119.464 140.517 119.559 141.342 119.66C140.891 121.732 140.482 123.59 140.036 125.644C143.254 126.559 144.786 130.923 149.108 129.824C144.531 118.514 146.128 108.729 155.426 101.171C151.008 95.2693 146.894 89.5696 142.53 84.0598C140.962 82.0827 141.319 80.6815 142.993 79.405C151.869 72.6247 160.799 65.9037 169.746 59.2183C169.889 59.1115 170.572 59.7229 171.005 59.9961C162.384 67.0198 153.763 74.0436 145.718 80.5983C149.833 87.3431 153.621 93.5416 157.569 100.001C161.559 97.1633 166.059 97.6739 170.34 98.9445C173.493 99.8766 175.695 100.251 178.367 97.4661C182.209 93.4703 186.816 90.2048 191.097 86.6306C191.839 86.4703 192.581 86.31 194.184 85.9656C191.275 89.2786 188.912 91.9742 186.549 94.6637C185.7 95.4475 184.857 96.2252 183.919 97.0921C185.041 97.8164 185.961 98.4042 186.958 99.0454C187.024 97.6264 187.083 96.3677 187.142 95.115C190.438 97.3771 191.685 103 189.007 106.235C187.303 104.318 185.86 102.157 183.913 100.648C181.449 98.7426 179.169 100.518 177.097 101.705C177.483 102.436 177.803 103.035 178.409 104.181C176.04 103.653 174.271 103.308 172.525 102.857C167.959 101.676 163.744 101.913 160.175 105.493C153.116 112.565 152.487 127.74 162.099 135.013C166.184 138.107 170.619 140.197 175.684 138.617C179.929 137.293 183.919 135.144 188.941 132.953C182.321 133.535 184.417 128.524 183.111 125.882C178.545 126.802 177.204 127.331 173.938 123.804C171.148 120.788 171.29 116.382 174.722 114.298C176.824 113.028 177.138 111.526 176.824 109.281C172.774 108.978 169.473 110.522 166.451 112.885C166.184 113.075 165.917 113.271 165.656 113.461C165.258 115.017 164.854 116.572 164.456 118.134C164.237 118.348 164.017 118.555 163.803 118.769C161.149 117.041 160.823 114.595 162.04 111.977C163.524 108.771 166.16 107.019 169.752 106.859C170.156 106.716 170.566 106.568 170.969 106.425C173.042 106.776 175.126 107.067 177.186 107.476C181.656 108.373 183.337 110.611 182.102 114.856C181.615 116.537 179.65 117.73 178.694 119.345C178.011 120.491 177.601 121.987 177.661 123.299C177.684 123.798 179.311 124.386 180.285 124.641C181.449 124.95 182.695 124.956 183.818 125.086C184.471 123.851 184.886 122.474 185.777 121.548C186.685 120.598 188.158 119.375 189.215 119.517C195.437 120.36 199.005 127.449 196.078 132.692C204.8 134.657 214.294 150.741 213.599 162.788C207.537 165.483 201.255 168.114 195.134 171.082C192.444 172.382 191.483 170.922 191.263 168.998C190.123 158.84 189.191 148.663 188.211 138.487C188.116 137.519 188.199 136.539 188.199 135.678C186.525 137.145 185.183 138.504 183.651 139.609C182.09 140.731 180.35 141.604 178.658 142.601C184.364 146.621 184.405 151.157 182.001 156.572C180.291 160.419 176.794 163.625 178.67 168.464C178.813 168.832 178.438 169.378 178.355 169.847C177.857 172.733 177.37 175.624 176.99 177.863C194.006 181.603 210.618 185.255 227.344 188.93C227.819 186.709 228.288 184.144 228.923 181.621C231.363 171.937 233.768 162.248 236.404 152.617C237.146 149.904 237.948 146.555 239.907 144.934C249.43 137.056 259.351 129.664 268.863 122.308C267.646 113.616 266.435 104.911 265.182 95.9403C263.787 96.8546 262.73 97.7095 261.53 98.2617C260.966 98.5229 260.129 98.1905 259.417 98.1251C259.565 97.4483 259.488 96.4212 259.892 96.1659C261.382 95.2397 263.027 94.5746 264.766 93.7316C264.766 92.1522 265.111 90.1515 264.707 88.3109C262.813 79.6128 260.628 70.98 258.764 62.276C258.437 60.756 258.764 58.8205 259.464 57.4253C260.218 55.9291 261.661 55.3234 262.463 57.7636C264.398 63.6415 266.945 69.3828 268.222 75.4032C269.801 82.8545 270.312 90.5374 271.351 98.1074C272.318 105.161 272.307 112.196 271.404 119.256C271.285 120.2 270.502 121.744 272.592 121.928C272.704 121.939 273.013 123.596 272.669 124.119C271.76 125.496 270.709 126.885 269.415 127.883C261.525 133.992 253.551 139.995 245.63 146.009C245.862 146.573 246.848 148.063 246.545 148.402C244.419 150.765 246.284 152.801 247.085 154.636C248.249 157.308 249.692 160.063 251.71 162.093C254.002 164.397 257.143 163.554 260.159 162.545C258.544 164.551 257.024 167.009 254.899 167.775C250.137 169.491 245.221 169.022 240.661 166.059C239.788 170.014 235.104 173.748 241.534 177.417C241.195 177.637 240.851 177.857 240.513 178.07C239.129 177.417 237.74 176.764 236.475 176.171C234.813 180.831 233.067 185.712 231.375 190.456C238.809 193.252 246.444 195.829 253.842 198.975C264.042 203.31 273.743 208.588 281.598 216.645C282.946 218.028 283.855 219.827 285.155 221.264C286.324 222.558 287.898 223.496 289.05 224.803C291.662 227.753 291.241 229.511 287.524 231.506C287.47 230.882 287.185 230.188 287.411 229.778C288.575 227.664 287.761 226.809 285.707 225.943C282.263 224.488 279.01 222.588 275.637 220.949C275.311 220.789 274.717 221.175 274.432 221.252C278.766 224.826 283.011 228.323 287.251 231.814C286.989 232.2 286.728 232.586 286.467 232.972C283.593 231.601 280.72 230.223 277.834 228.87C277.151 228.549 276.374 227.997 275.721 228.092C269.961 228.959 264.22 229.95 257.932 230.989C265.871 234.575 266.464 236.119 262.308 239.521C262.854 241.783 263.175 243.826 263.84 245.755C265.657 251.004 267.604 256.211 269.564 261.412C269.759 261.934 270.276 262.552 270.781 262.712C273.037 263.442 274.064 265.2 274.889 267.195C276.659 271.458 278.665 275.637 280.179 279.989C283.54 289.649 286.437 299.475 289.928 309.082C294.286 321.081 298.811 333.039 303.709 344.83C310.079 360.148 316.824 375.312 323.527 390.488C330.759 406.857 340.829 421.938 345.84 439.334C345.97 439.797 346.433 440.284 346.873 440.509C349.23 441.756 351.617 442.955 354.015 444.113C357.904 445.989 361.081 448.424 361.544 453.138C361.947 457.229 362.464 461.307 362.725 465.404C363.212 473.146 363.545 480.895 363.978 488.637C364.002 489.04 364.34 489.426 364.536 489.818V498.13C363.135 498.445 361.734 498.748 360.338 499.08C352.483 500.939 344.676 503.029 336.761 504.59C330.326 505.861 324.875 512.089 325.314 518.4C325.374 519.22 325.113 520.104 324.828 520.894C323.213 525.317 319.163 525.952 315.797 526.802C312.995 532.567 310.258 538.047 307.681 543.604C307.141 544.768 307.586 546.495 306.885 547.439C305.906 548.763 304.261 549.595 302.907 550.634C302.61 550.438 302.319 550.242 302.023 550.046C302.278 553.436 302.818 556.832 302.735 560.216C302.492 570.036 302.058 579.851 301.577 589.659C301.304 595.216 300.859 600.768 300.336 606.307C300.277 606.913 299.238 607.524 298.543 607.952C297.866 608.368 296.786 608.338 296.341 608.878C292.357 613.705 288.48 618.621 284.561 623.502C283.332 625.027 282.341 627.028 280.743 627.895C278.808 628.946 278.659 630.436 278.464 632.081C277.989 636.035 277.62 640.001 277.193 643.955C276.427 651.021 275.655 658.086 274.877 665.152C274.497 668.637 273.779 672.128 273.803 675.613C273.827 678.92 272.437 682.595 275.329 685.635C275.578 680.173 275.786 674.877 276.083 669.593C276.219 667.164 276.463 664.742 276.771 662.331C277.9 653.449 279.134 644.573 280.191 635.685C280.619 632.093 280.791 628.548 284.199 626.191C285.345 625.402 286.158 624.137 287.126 623.086C287.387 623.086 287.648 623.086 287.916 623.086C287.916 629.195 287.951 635.299 287.904 641.408C287.874 644.893 287.34 648.408 287.678 651.846C288.302 658.098 289.269 664.332 290.386 670.519C290.884 673.28 291.615 676.219 293.105 678.516C294.417 680.535 294.815 681.853 292.487 682.773C290.166 683.688 287.773 684.418 285.386 685.16C281.895 686.241 278.012 690.236 278.63 693.549C279.319 697.242 276.902 697.587 274.901 698.846C272.128 700.585 268.875 702.01 266.892 704.438C264.363 707.544 262.136 710.263 257.879 709.521C256.971 712.555 255.765 715.268 255.415 718.094C255.023 721.259 253.123 722.203 250.564 722.547C247.429 722.963 244.265 723.164 241.783 723.396C242.145 727.879 242.496 732.243 242.84 736.5C243.695 736.102 244.793 735.306 245.975 735.164C246.634 735.087 248.059 736.102 248.053 736.612C248.011 739.973 246.438 741.588 243.072 742.947C240.928 743.814 238.619 744.004 236.766 746.07C234.213 748.914 230.995 751.248 227.759 753.332C226.495 754.145 224.339 754.044 222.725 753.706C221.383 753.427 220.237 752.192 218.925 751.337C217.458 755.386 216.199 758.925 214.899 762.445C213.89 765.171 212.667 767.581 213.51 770.912C214.163 773.483 213.361 776.837 212.15 779.331C211.272 781.136 210.221 782.608 210.072 784.793C209.223 797.006 207.495 809.195 207.365 821.408C207.157 840.176 207.97 858.961 208.428 877.735C208.481 880.027 208.992 882.307 209.378 885.198C213.302 884.331 217.001 883.518 220.896 882.657C220.896 877.005 220.747 871.365 220.937 865.736C221.145 859.496 221.424 853.238 222.119 847.034C222.778 841.179 223.853 835.355 225.093 829.59C225.503 827.672 227.456 826.099 227.914 824.175C232.58 804.719 237.057 785.221 241.658 765.753C243.647 757.345 245.791 748.98 247.904 740.602C248.332 738.916 249.062 737.551 251.283 738.031C253.402 738.489 255.599 738.839 255.457 741.689C255.338 744.117 255.148 746.563 254.679 748.938C252.684 759.138 251.158 769.475 248.373 779.462C243.683 796.264 238.167 812.835 233.002 829.501C231.927 832.956 230.372 836.346 229.885 839.879C229.232 844.671 229.386 849.569 229.226 854.425C228.816 866.526 228.365 878.632 228.038 890.738C227.747 901.585 227.593 912.438 227.403 923.286C227.373 924.865 226.999 926.652 227.593 927.982C229.101 931.355 228.501 934.596 228.098 938.028C227.688 941.519 228.009 945.093 228.009 948.466C229.362 948.781 231.037 948.691 231.405 949.339C232.812 951.832 235.021 951.636 237.277 951.779C240.257 951.969 243.232 952.313 246.005 952.574C243.82 962.87 241.748 972.654 239.669 982.439C239.379 982.457 239.082 982.469 238.791 982.486C235.389 974.863 237.051 966.842 237.728 958.743C234.563 958.161 231.339 957.562 227.908 956.932C227.005 965.47 226.103 974.032 225.183 982.742C222 981.56 220.795 979.613 220.207 976.953C218.616 969.686 217.238 962.454 220.593 955.068C219.239 954.486 218.129 953.999 217.072 953.542C215.92 954.569 218.462 956.944 215.244 957.188C210.844 957.514 211.77 954.106 211.07 951.482C204.77 951.779 198.595 952.188 192.421 952.337C180.089 952.628 167.751 952.77 155.414 952.966C154.363 952.984 153.306 952.966 152.421 952.966C152.522 954.641 152.605 956.101 152.695 957.579C159.902 955.751 166.231 960.881 165.952 968.231C165.828 971.568 167.146 973.236 170.132 974.495C176.919 977.345 183.776 980.1 190.289 983.496C193.086 984.95 195.14 985.277 198.115 984.25C204.408 982.071 211.01 981.519 217.589 982.765C219.269 983.086 220.795 984.511 222.232 985.639C222.511 985.859 222.036 987.04 221.911 987.782C221.614 987.949 221.323 988.121 221.026 988.287C227.267 992.146 233.394 996.201 239.776 999.799C246.2 1003.42 252.904 1006.53 259.435 1009.97C265.241 1013.03 270.971 1016.23 276.172 1019.06C283.671 1013.52 291.763 1014.49 299.25 1012.9C298.632 1012.53 298.033 1012.4 297.427 1012.34C293.307 1011.93 289.24 1011.37 285.606 1009.11C283.065 1007.54 280.334 1006.25 277.87 1004.56C273.257 1001.38 268.513 998.38 266.429 992.597C265.022 988.697 259.541 986.417 255.486 987.391C248.124 989.16 240.774 990.994 233.382 992.603C232.088 992.882 230.58 992.188 229.155 991.938C230.259 988.495 232.45 987.462 235.104 986.779C239.117 985.746 243.036 984.357 247.038 983.27C250.683 982.284 254.228 981.02 258.093 983.181C262.825 985.829 268.097 987.551 272.669 990.418C277.514 993.458 281.729 997.49 286.39 1000.86C288.527 1002.4 290.961 1003.73 293.461 1004.53C296.376 1005.46 299.511 1005.72 302.551 1006.23C308.423 1007.22 313.772 1009.82 319.995 1010.25C329.245 1010.9 338.4 1013.37 347.508 1015.47C352.157 1016.55 357.233 1017.84 359.092 1023.07C360.368 1026.68 360.92 1030.57 361.55 1034.37C361.965 1036.86 362.191 1039.44 362.031 1041.94C361.924 1043.6 360.879 1045.17 360.433 1046.83C359.454 1050.44 358.581 1054.09 357.661 1057.72C356.42 1062.65 353.036 1064.79 348.179 1065.17C338.466 1065.92 328.758 1066.8 319.039 1067.48C317.293 1067.6 316.652 1068.13 316.444 1069.81C315.732 1075.71 313.012 1078.43 307.348 1078.79C302.26 1079.11 297.16 1079.2 292.066 1079.45C291.288 1079.48 290.522 1079.81 289.75 1080H285.594L285.618 1079.99ZM71.289 463.136L71.366 463.184L71.312 463.112C70.463 461.973 69.62 460.839 68.771 459.699C68.486 460.001 68.201 460.304 67.916 460.607C69.038 461.45 70.167 462.293 71.289 463.136ZM62.418 277.834C60.186 277.858 59.307 279.194 59.699 281.159C60.15 283.427 62.335 284.205 64.781 283.213C65.167 283.035 65.547 282.857 65.933 282.679C67.881 282.133 68.201 280.922 67.186 279.319C66.01 277.46 64.496 276.486 62.329 277.899L62.418 277.84V277.834ZM33.973 522.544C32.15 523.269 30.328 523.999 28.558 524.706C30.921 533.659 31.782 534.692 35.469 534.199C34.941 530.287 34.412 526.386 33.878 522.485C33.991 522.331 34.11 522.17 34.222 522.016C34.139 522.004 34.05 521.992 33.967 521.98C33.967 522.17 33.973 522.36 33.979 522.55L33.973 522.544ZM67.222 329.625C70.927 325.024 74.631 320.422 78.574 315.524C76.092 313.796 73.563 312.045 71.835 310.845C68.623 313.695 65.696 316.296 62.597 319.051C66.723 321.669 67.115 325.653 67.305 329.708C66.842 329.34 66.29 329.037 65.927 328.586C64.211 326.419 62.549 324.21 60.661 321.746C59.046 323.723 57.799 325.101 56.725 326.603C55.323 328.562 54.059 330.622 53.049 332.166C55.674 334.464 58.114 336.607 60.631 338.816C62.763 335.847 64.995 332.742 67.228 329.631L67.222 329.625ZM280.209 217.969C280.702 218.355 281.201 218.747 281.693 219.132C281.794 219.002 281.889 218.871 281.99 218.741C281.575 218.355 281.159 217.969 280.743 217.577C275.922 212.447 269.89 209.069 263.68 206.035C245.993 197.396 227.065 192.629 207.887 188.906C196.903 186.774 185.729 185.635 174.633 184.073C173.166 183.865 172.466 184.328 172.109 186.074C171.557 188.763 170.399 191.346 169.36 193.911C169.182 194.356 168.298 194.517 167.823 194.772C168.393 191.032 168.915 187.647 169.491 183.883C163.233 183.521 157.48 183.182 151.661 182.844C152.22 184.073 152.825 185.154 153.205 186.305C155.319 192.73 154.179 199.361 154.292 205.91C154.309 206.86 153.704 208.499 153.074 208.665C149.726 209.574 150.225 212.792 148.717 214.739C151.762 213.409 154.606 211.966 157.432 210.482C158.008 210.179 158.745 209.841 158.994 209.318C160.906 205.293 163.049 204.153 167.306 205.043C168.998 205.4 170.696 205.756 172.406 206.023C181.223 207.401 189.897 209.502 197.8 213.646C203.648 216.716 208.962 220.807 214.579 224.333C224.28 230.425 231.868 238.619 238.316 247.958C241.225 252.167 243.974 256.484 246.949 260.972C245.987 261.168 245.375 261.299 244.93 261.388C244.235 265.675 243.552 269.849 242.846 274.224C243.582 274.26 244.164 274.373 244.722 274.296C250.083 273.571 250.636 273.678 251.894 279.063C252.862 283.202 253.295 287.518 253.474 291.775C253.64 295.729 253.129 299.713 252.987 303.685C252.963 304.35 253.076 305.276 253.503 305.656C257.143 308.874 260.871 311.997 264.962 315.482C263.739 316.242 262.629 316.931 261.352 317.727C261.53 321.283 259.173 323.611 255.902 324.644C253.776 325.32 253.307 326.508 252.969 328.265C250.457 341.256 246.331 353.653 239.206 364.898C238.357 366.24 238.114 367 239.206 368.419C241.332 371.174 243.707 373.976 244.894 377.165C250.558 392.417 256.05 407.742 261.21 423.167C263.656 430.487 264.671 438.212 268.323 445.235C273.28 454.776 277.739 464.579 282.228 474.352C283.813 477.807 284.864 481.506 286.152 485.068C281.355 486.351 282.097 490.786 279.888 493.214C277.508 495.839 275.792 499.069 274.022 501.699C275.246 502.453 276.397 503.165 278.285 504.335C275.655 505.617 273.88 506.377 272.223 507.345C271.57 507.725 270.638 508.752 270.781 509.168C271.113 510.147 271.855 511.477 272.704 511.727C281.272 514.238 289.952 516.37 298.478 519.012C303.353 520.526 308.001 522.782 312.621 524.652C312.258 522.093 312.092 520.045 314.871 518.145C317.614 516.269 321.426 515.598 322.067 510.717C322.803 505.101 327.28 502.019 332.807 500.375C341.998 497.638 351.07 494.52 359.489 491.795C358.243 481.589 356.99 471.146 355.684 460.702C355.399 458.428 355.666 455.471 354.354 454.07C351.581 451.119 349.533 446.916 344.735 446.393C344.504 446.369 344.237 446.061 344.112 445.817C343.316 444.244 341.482 442.463 340.342 442.368C332.843 441.744 325.332 441.228 317.845 440.527C313.523 440.123 309.219 439.47 304.914 438.865C302.296 438.497 299.689 438.016 297.231 437.612C299.262 456.195 295.86 473.77 289.744 491.053C289.008 490.115 288.527 489.124 288.676 488.233C289.709 482.034 291.205 475.895 291.894 469.661C292.511 464.134 292.363 458.511 292.398 452.93C292.434 447.8 292.119 442.664 292.268 437.541C292.309 436.044 293.419 434.578 294.037 433.094C294.892 433.575 295.735 434.079 296.614 434.519C296.863 434.643 297.19 434.614 297.487 434.631C303.928 435.029 310.376 435.326 316.8 435.854C321.158 436.211 325.493 436.876 329.827 437.44C333.08 437.861 336.322 438.342 340.181 438.877C336.874 432.619 333.763 427.127 331.008 421.457C324.109 407.255 317.204 393.053 310.691 378.679C309.124 375.211 307.176 374.825 304.012 375.496C306.078 381.404 308.126 387.27 310.18 393.136C307.491 387.887 305.543 382.389 303.376 376.975C302.925 375.852 301.803 374.885 300.776 374.137C296.952 371.358 292.743 369.042 289.269 365.896C286.805 363.657 285.297 360.368 283.302 357.459C283.035 357.833 282.881 358.249 282.578 358.444C281.503 359.139 280.375 360.255 279.283 360.238C278.57 360.226 277.662 358.629 277.229 357.578C276.504 355.82 276.011 353.95 275.554 352.098C271.778 336.661 267.854 321.253 264.351 305.757C262.546 297.772 261.501 289.614 260.111 281.533C258.746 273.619 257.321 265.716 256.027 257.79C255.451 254.269 255.118 250.707 254.679 247.162C254.964 246.966 255.255 246.765 255.54 246.569C256.389 247.352 257.653 247.982 258.004 248.95C258.924 251.461 259.583 254.091 260.094 256.727C262.73 270.365 265.2 284.039 267.889 297.665C270.335 310.056 272.989 322.405 275.56 334.773C277.163 342.485 278.784 350.198 280.399 357.904C281.26 356.55 282.364 354.852 281.937 353.73C279.503 347.294 278.772 340.579 278.066 333.84C277.674 330.094 277.442 326.324 277.14 322.566C277.288 322.536 277.442 322.5 277.591 322.471C277.793 323.195 277.989 323.919 278.19 324.644C278.95 320.155 280.233 315.94 281.42 311.694C281.777 310.412 282.352 308.904 282.002 307.752C277.965 294.542 273.868 281.343 269.528 268.228C268.78 265.966 266.393 264.273 265.52 262.029C262.89 255.267 260.628 248.356 258.158 241.32C257.214 240.952 255.617 240.708 254.619 239.806C254.002 239.248 254.287 237.686 254.168 236.57C254.91 236.541 255.659 236.493 256.401 236.487C258.437 236.475 260.468 236.487 262.504 236.487C262.611 235.982 262.718 235.472 262.825 234.967C260.723 234.041 258.651 232.45 256.513 232.343C252.684 232.153 252.666 232.533 251.817 228.965C257.404 227.243 263.015 225.515 268.519 223.817C267.889 222.422 264.612 220.587 268.667 218.479C269.047 218.284 268.958 217.025 268.952 216.259C268.952 215.451 268.786 214.638 268.691 213.831C269.57 213.896 270.531 213.747 271.303 214.062C274.313 215.297 277.264 216.674 280.233 217.998L280.209 217.969ZM230.099 310.163C230.336 310.127 230.568 310.097 230.805 310.062C229.73 307.182 228.543 304.338 227.611 301.411C226.073 296.578 224.832 291.644 223.235 286.829C219.744 276.332 216.128 265.877 212.524 255.415C210.767 250.315 208.992 245.221 207.08 240.174C206.765 239.337 205.821 238.375 204.984 238.155C202.021 237.378 198.987 236.873 195.971 236.309C187.534 234.73 179.127 233.014 170.649 231.69C167.081 231.132 163.518 229.161 159.712 231.488C156.245 233.608 152.41 235.11 148.883 237.14C147.719 237.811 146.591 239.141 146.175 240.412C144.376 245.838 143.248 251.52 141.147 256.816C133.79 275.358 125.49 293.538 120.307 312.876C119.731 315.019 118.888 317.471 119.41 319.454C121.934 329.097 124.92 338.62 127.657 348.215C128.714 351.913 129.515 355.689 130.501 359.412C131.457 363.022 133.072 366.567 133.345 370.224C133.612 373.822 134.806 377.147 135.286 380.656C135.874 384.936 137.115 389.134 138.083 393.421C138.789 391.901 140.048 390.44 140.054 388.974C140.113 375.193 139.971 361.413 141.93 347.722C142.791 341.672 143.67 335.622 144.584 329.577C144.863 327.731 145.297 325.908 145.659 324.074C145.991 324.103 146.33 324.133 146.662 324.169C146.876 325.368 147.292 326.579 147.256 327.772C147.161 331.097 146.971 334.428 146.656 337.741C146.116 343.358 145.463 348.969 144.834 354.579C144.074 361.342 143.141 368.087 142.566 374.861C142.126 380.044 142.174 385.269 141.901 390.47C141.752 393.284 141.331 396.087 141.099 398.901C140.761 403.051 140.375 407.195 140.256 411.351C140.226 412.367 140.909 413.631 141.657 414.403C149.393 422.377 154.363 432.173 159.712 441.703C162.527 446.72 165.091 451.879 167.769 456.979C166.54 438.995 166.671 421.124 167.46 403.217C168.137 403.669 168.535 404.138 168.63 404.66C169.847 411.488 171.385 418.28 172.121 425.161C173.083 434.115 173.41 443.134 173.991 452.123C174.211 455.548 174.342 458.98 174.609 462.4C175.369 472.137 176.349 481.868 176.859 491.617C177.008 494.479 177.821 496.017 180.433 497.008C183.04 497.994 185.516 499.33 188.039 500.535C195.573 504.151 203.126 507.737 210.63 511.424C213.753 512.962 216.769 514.719 219.732 516.322C218.349 517.432 217.464 518.145 216.223 519.136C218.842 519.522 221.062 519.338 222.754 520.199C227.872 522.806 231.429 519.689 235.472 517.539C242.484 513.811 249.561 510.165 256.822 506.953C261.24 505 266.043 503.931 270.549 502.506C271.184 494.823 274.771 488.387 278.772 482.088C279.194 481.429 279.514 480.259 279.224 479.654C275.525 472.066 271.499 464.632 267.99 456.961C265.544 451.612 263.781 445.954 261.691 440.379C260.076 441.649 258.01 443.282 255.641 445.14C255.249 444.535 254.483 443.591 253.984 442.528C251.728 437.731 249.81 432.761 247.287 428.112C241.302 417.063 236.511 405.539 233.043 393.486C231.898 389.502 231.351 389.063 235.721 386.427C238.161 384.948 240.75 383.707 243.416 382.283C241.183 376.47 236.677 371.833 232.509 367.024C227.635 361.401 222.178 356.277 217.464 350.53C207.988 338.97 200.584 326.098 194.57 312.431C194.255 311.712 194.273 310.851 194.137 310.056C194.445 309.913 194.754 309.765 195.063 309.622C200.947 318.766 206.557 328.099 212.78 337.005C219.174 346.148 226.792 354.318 234.789 362.743C235.187 360.588 235.46 359.127 235.674 357.969C234.409 358.041 233.239 358.106 232.076 358.171C232.088 356.954 231.714 355.559 232.183 354.556C235.062 348.434 236.202 341.891 236.831 335.289C237.152 331.911 237.508 328.467 235.009 325.22C230.36 319.169 226.18 312.751 221.923 306.41C221.412 305.644 221.614 304.403 221.484 303.376C222.57 303.578 224.001 303.418 224.678 304.059C226.649 305.923 228.311 308.102 230.099 310.157V310.163ZM149.625 813.185C151.964 813.583 154.072 813.862 156.144 814.313C161.885 815.56 167.645 816.748 173.309 818.273C174.514 818.6 176.034 820.144 176.236 821.331C176.954 825.446 177.471 829.655 177.488 833.829C177.518 841.999 177.126 850.174 176.972 858.35C176.883 863.236 175.321 867.125 170.625 869.417C167.941 870.729 165.513 872.558 162.853 873.918C161.137 874.79 160.609 875.776 161.155 877.64C161.743 879.671 162.034 881.796 162.533 884.278H203.506C203.161 875.895 202.847 867.482 202.449 859.074C202.259 855.013 201.903 850.952 201.594 846.547C197.907 851.356 194.101 852.745 190.23 846.974C192.427 842.474 196.731 838.514 201.796 841.423V833.877C199.213 833.984 196.672 834.441 194.255 834.073C192.367 833.787 190.402 832.933 189.963 830.338C189.488 827.518 190.83 826.253 193.121 825.226C196.387 823.765 199.065 825.155 201.445 826.651C202.253 812.36 203.066 798.063 203.874 783.766C201.065 784.431 198.275 785.209 195.443 785.731C188.959 786.925 184.334 784.182 182.452 778.167C179.881 769.956 183.74 762.606 191.655 760.528C192.171 760.391 192.759 759.756 192.931 759.227C194.255 755.232 195.478 751.212 196.808 746.961C192.344 747.412 190.004 745.115 188.799 741.386C187.754 738.138 186.822 734.849 185.824 731.536C184.328 731.69 182.595 732.017 180.867 731.999C179.394 731.987 178.694 732.504 178.112 733.852C175.226 740.525 171.961 747.044 169.313 753.801C163.453 768.745 155.758 783.024 152.908 799.072C152.077 803.763 150.759 808.364 149.619 813.185H149.625ZM212.477 516.542C205.21 513.692 198.411 511.192 191.75 508.372C185.07 505.54 178.516 502.393 171.925 499.359C170.322 498.623 168.47 497.471 170.399 495.72C172.008 494.259 171.64 492.822 171.492 491.279C171.231 488.577 170.714 485.9 170.447 483.198C169.919 477.843 169.515 472.47 168.992 467.114C168.838 465.523 168.903 463.676 168.12 462.418C163.744 455.424 159.166 448.548 154.553 441.709C154.155 441.121 152.843 440.575 152.237 440.794C146.217 442.944 140.042 442.409 133.749 442.1C132.021 446.921 130.192 451.748 128.607 456.653C128.286 457.644 128.488 459.312 129.147 460.031C132.573 463.795 136.225 467.352 139.947 471.14C144.94 469.899 150.616 469.121 156.399 470.291C157.177 470.451 157.836 471.205 158.549 471.686C157.949 472.196 157.421 472.986 156.732 473.17C152.635 474.263 148.485 475.147 144.4 476.287C143.652 476.495 142.815 477.475 142.577 478.264C141.105 483.21 139.46 488.15 138.528 493.208C137.839 496.949 135.019 500.357 136.551 504.489C136.616 504.667 136.361 504.982 136.225 505.219C134.889 507.476 133.547 509.726 132.211 511.976C132.395 512.314 132.585 512.659 132.769 512.997C135.554 512.997 138.392 512.653 141.105 513.08C145.267 513.734 149.429 514.654 153.437 515.936C165.163 519.695 175.82 525.584 186.151 533.285C191.827 527.051 197.485 520.846 203.512 514.232C203.832 515.895 204.046 517.011 204.295 518.329C206.747 518.198 209.93 519.647 212.471 516.554L212.477 516.542ZM187.534 540.107C186.679 538.32 185.997 537.5 185.919 536.628C185.741 534.514 184.358 533.517 182.779 532.573C173.534 527.039 163.69 522.895 153.336 519.968C149.257 518.816 145.136 517.801 141.39 516.821C143.136 528.767 142.904 540.41 143.254 552.249C150.468 551.411 157.516 550.651 164.545 549.767C175.12 548.437 185.676 546.893 196.262 545.676C204.853 544.69 213.504 544.18 222.095 543.194C225.343 542.82 228.496 541.686 231.529 540.938C230.39 536.01 229.386 531.652 228.43 527.502C224.708 527.199 221.199 526.736 217.69 526.7C215.178 526.677 213.367 526.042 212.233 523.678C211.432 522.01 210.28 521.636 208.279 522.289C206.296 522.936 203.998 522.639 201.843 522.758C201.796 522.461 201.748 522.17 201.701 521.874C201.238 522.592 200.768 523.304 200.305 524.023C206.724 526.778 207.175 527.057 207.163 531.272C207.157 533.546 208.434 536.473 205.174 538.029C204.277 535.737 203.44 533.623 202.585 531.438C199.925 532.329 197.942 531.931 197.087 529.645C194.048 532.976 191.014 536.301 187.534 540.113V540.107ZM241.201 552.266C251.954 548.876 262.273 545.67 272.55 542.339C274.776 541.621 275.459 539.103 274.402 536.966C273.72 535.589 273.025 534.199 272.55 532.745C270.359 526 268.198 519.249 266.144 512.463C265.651 510.83 265.324 510.112 263.407 511.05C253.236 516.025 243 520.858 232.77 525.745C235.591 534.609 238.387 543.414 241.201 552.266ZM257.422 691.917C254.673 691.602 252.458 691.347 250.238 691.103C246.183 690.658 242.062 690.498 238.09 689.643C236.232 689.245 235.733 689.655 235.127 691.097C232.871 696.488 230.68 701.909 228.187 707.193C226.946 709.829 226.697 711.545 229.38 713.629C233.133 716.539 236.149 719.792 241.831 718.581C246.937 717.495 247.792 717.512 249.418 712.388C249.905 710.862 250.665 709.432 251.247 707.935C253.284 702.687 255.29 697.426 257.41 691.917H257.422ZM283.011 311.261C282.697 311.243 282.382 311.231 282.067 311.214C281.278 315.512 279.954 319.799 279.805 324.121C279.372 336.512 281.64 348.333 288.539 358.967C292.38 364.892 298.003 368.556 304.112 371.619C304.813 371.969 305.87 371.601 306.766 371.572C306.636 370.764 306.66 369.886 306.351 369.155C304.427 364.649 302.296 360.22 300.526 355.66C299.802 353.79 298.888 353.315 296.958 353.137C295.319 352.988 293.716 351.836 292.244 350.91C291.917 350.702 291.929 349.414 292.244 348.903C292.464 348.547 293.55 348.446 294.102 348.642C295.385 349.093 296.578 349.8 297.807 350.399L298.49 349.788C295.308 343.667 292.125 337.551 289.067 331.667C289.18 330.7 289.632 329.631 289.352 328.817C287.328 322.94 285.149 317.115 283.023 311.279L283.011 311.261ZM277.395 536.408C284.947 538.759 292.208 541.027 299.048 543.159C301.987 537.18 304.872 531.308 307.906 525.127C296.263 522.117 284.52 519.077 272.295 515.912C274.094 523.138 275.816 530.079 277.395 536.408ZM198.227 686.609C198.536 688.265 198.863 689.292 198.904 690.337C199.148 695.901 199.397 701.47 199.48 707.039C199.516 709.23 200.009 709.788 202.217 708.945C204.26 708.161 206.522 707.935 208.891 707.419C209.823 703.376 209.17 697.747 214.858 695.301C218.812 693.603 222.392 694.541 225.325 697.884C226.661 694.832 227.943 691.899 229.368 688.651C218.806 687.962 208.624 687.292 198.221 686.615L198.227 686.609ZM204.129 772.284C204.39 771.595 204.705 770.995 204.853 770.354C207.436 758.943 210.019 747.531 212.495 736.096C212.631 735.461 212.085 734.249 211.521 733.958C208.629 732.486 205.548 733.288 203.25 735.924C206.551 737.337 204.277 739.516 203.719 741.113C200.513 750.375 197.093 759.566 193.644 769.054C197.212 770.152 200.573 771.191 204.129 772.289V772.284ZM94.533 355.339C94.438 354.888 94.497 354.235 94.212 354.015C92.218 352.478 90.116 351.076 88.121 349.539C81.352 344.314 71.9 346.214 67.37 353.671C64.413 358.545 63.345 363.693 64.128 369.327C65.292 377.675 74.073 386.219 83.959 381.766C88.091 379.908 91.618 377.366 92.817 372.326C90.306 372.397 87.966 371.607 86.969 375.039C86.637 376.191 84.357 377.438 82.938 377.473C80.094 377.545 77.095 377.218 74.394 376.339C66.485 373.768 63.374 366.068 67.928 359.751C70.072 356.776 73.848 354.769 77.22 352.952C81.305 350.75 85.639 350.744 89.19 354.312C90.804 355.933 92.443 356.046 94.515 355.333L94.533 355.339ZM239.248 388.362C244.805 405.622 250.315 422.751 255.837 439.898C257.915 439.072 260.1 438.206 261.602 437.612C255.581 420.115 249.62 402.796 243.612 385.334C242.222 386.296 240.518 387.484 239.248 388.362ZM124.855 506.003C124.504 508.42 123.911 510.664 125.894 512.683C126.612 513.413 126.873 514.731 127.063 515.835C129.29 528.422 131.457 541.015 133.618 553.478C135.286 553.193 137.353 552.83 139.68 552.433C137.59 540.635 136.533 528.755 137.448 516.726C134.924 516.286 132.14 516.15 129.67 515.212C128.518 514.773 127.408 512.837 127.265 511.477C127.087 509.767 127.918 507.945 128.346 506.015H124.855V506.003ZM104.626 297.118C104.478 295.925 104.496 294.637 104.146 293.461C103.13 290.071 102.715 289.899 99.473 291.033C92.223 293.562 85.865 297.605 79.874 302.557C86.262 303.151 87.539 303.952 86.702 306.321C83.977 305.413 81.263 304.51 78.574 303.62C77.351 304.617 76.145 305.603 75.308 306.286C77.725 308.114 80.147 309.949 82.641 311.831C94.545 300.645 98.06 298.995 104.62 297.118H104.626ZM217.814 942.766C218.349 942.802 219.198 942.653 219.881 942.932C222.6 944.043 223.36 942.903 223.294 940.326C223.205 936.859 223.443 933.373 223.235 929.912C222.748 921.784 222.089 913.667 221.454 905.545C221.424 905.136 221.015 904.756 220.48 903.853C219.109 905.807 217.238 907.368 216.894 909.22C216.324 912.284 216.615 915.538 216.764 918.702C217.132 926.688 214.335 934.78 217.814 942.766ZM137.335 414.48C135.31 416.018 133.387 417.675 131.279 419.046C119.618 426.634 107.844 434.056 96.249 441.744C90.983 445.235 86.031 449.201 80.978 453.007C80.592 453.298 80.563 454.064 80.266 454.901C86.019 451.054 91.078 447.307 96.475 444.137C108.563 437.036 120.847 430.262 132.995 423.256C136.213 421.403 139.977 419.616 137.335 414.474V414.48ZM23.707 438.283C23.832 437.98 23.963 437.677 24.087 437.374C24.901 437.173 25.714 436.971 26.421 436.793C25.275 430.98 24.129 425.191 22.835 418.636C21.137 425.69 20.05 431.983 21.333 438.568C22.716 445.675 23.719 452.894 27.49 459.229C28.95 461.682 31.04 463.754 32.845 465.998C33.177 465.784 33.516 465.57 33.848 465.351C31.669 456.682 29.49 448.02 27.513 440.147C25.768 439.292 24.735 438.782 23.702 438.277L23.707 438.283ZM100.369 512.552C100.369 519.202 100.435 525.246 100.358 531.29C100.173 545.812 100.393 560.311 102.091 574.768C102.537 578.568 102.204 578.61 105.873 578.283C106.218 578.254 106.556 578.123 106.918 578.034C103.308 567.656 103.285 556.945 102.934 546.371C102.578 535.541 101.883 524.634 103.866 513.757C103.017 513.466 102.216 513.187 100.369 512.552ZM93.173 287.738C93.53 287.862 93.732 288.017 93.886 287.981C96.332 287.399 98.796 286.853 101.218 286.176C105.226 285.06 109.121 287.957 109.293 292.179C109.364 293.906 109.626 295.628 109.768 297.023C106.295 299.476 102.715 301.999 98.642 304.873C106.574 305.638 112.826 302.213 113.954 297.688C115.379 291.971 112.826 284.3 108.575 282.715C103.665 280.886 96.57 281.23 93.168 287.738H93.173ZM271.642 546.507C263.436 550.883 255.077 555.33 246.741 559.83C246.295 560.074 245.767 560.875 245.862 561.285C246.325 563.262 246.99 565.192 247.631 567.294C254.513 562.674 260.86 558.192 267.438 554.089C270.508 552.177 272.105 549.915 271.636 546.507H271.642ZM61.86 418.084C61.985 418.102 62.11 418.114 62.24 418.132C62.484 417.122 62.882 416.125 62.941 415.104C63.202 410.704 63.357 406.299 63.564 401.893C63.754 397.981 63.149 393.801 64.336 390.221C66.86 382.615 61.112 378.489 58.369 373.08C59.533 388.083 60.697 403.081 61.86 418.084ZM223.033 11.1502C218.972 7.59378 214.49 5.18324 209.003 5.34948C203.802 5.50979 198.595 5.64043 193.4 5.96698C189.927 6.18666 186.454 6.62007 183.01 7.14849C179.733 7.65315 176.497 8.40129 173.243 9.04251C189.945 7.81944 206.492 8.5378 223.033 11.1443V11.1502ZM26.296 343.399C24.788 346.475 22.858 349.93 21.386 353.564C20.216 356.45 22.995 360.321 26.266 360.665C24.022 357.417 23.529 353.944 25.216 350.512C25.75 349.426 27.4 348.885 28.92 347.835C28.475 352.762 28.113 356.776 27.709 361.229C30.82 360.641 33.439 360.143 35.885 359.679C34.751 357.845 33.445 356.337 32.815 354.585C31.948 352.175 31.586 349.574 31.004 347.057C30.933 346.748 30.909 346.309 30.708 346.172C29.419 345.305 28.089 344.51 26.302 343.405L26.296 343.399ZM240.714 325.908C240.809 325.997 240.94 326.235 241.1 326.253C242.151 326.377 243.208 326.443 244.259 326.544C245.714 326.686 247.055 328.841 246.61 330.219C245.411 333.912 244.063 337.569 243.119 341.327C241.949 345.958 241.13 350.679 240.156 355.363C240.566 355.488 240.976 355.606 241.391 355.731C244.9 345.703 248.403 335.681 251.799 325.98C249.062 324.964 246.681 324.085 244.431 323.248C243.267 324.085 242.062 324.952 240.72 325.914L240.714 325.908ZM164.634 165.561C164.397 161.315 160.318 160.621 158.62 157.996C160.003 164.302 161.416 170.483 159.368 176.77C162.491 176.948 165.412 177.109 168.986 177.31C168.298 174.098 167.443 170.88 166.956 167.609C166.677 165.745 166.03 165.056 164.634 165.561ZM37.88 358.308C38.105 358.48 38.325 358.646 38.551 358.818C42.214 356.093 45.877 353.362 49.434 350.714C47.979 347.68 46.72 345.062 45.479 342.479C43.366 344.005 41.317 345.46 39.322 346.974C38.984 347.235 38.687 347.757 38.652 348.179C38.355 351.551 38.129 354.93 37.886 358.308H37.88ZM199.272 671.712C199.634 660.449 199.985 649.632 200.329 638.814C198.411 645.992 196.992 653.176 195.532 660.354C195.152 662.219 195.021 664.267 194.131 665.87C193.151 667.633 193.472 668.554 194.986 669.42C196.149 670.085 197.349 670.685 199.266 671.706L199.272 671.712ZM73.699 84.6654C73.515 84.4992 73.331 84.3388 73.147 84.1726C72.126 85.1582 70.368 86.0488 70.226 87.1471C69.822 90.2701 69.988 93.4822 70.101 96.6587C70.452 106.562 70.695 116.471 71.36 126.357C71.627 130.287 72.904 134.147 73.717 138.035C74.008 135.233 73.646 132.555 73.295 129.878C72.619 124.683 71.918 119.487 71.283 114.286C70.938 111.46 71.728 108.806 72.197 106.046C73.396 99.0395 73.29 91.802 73.699 84.6595V84.6654ZM100.951 356.188C99.669 356.824 98.505 357.94 97.591 357.762C93.322 356.936 93.346 356.806 91.986 361.11C91.612 362.286 91.042 363.438 90.894 364.643C90.537 367.606 91.683 368.882 94.616 368.656C96.884 368.484 99.123 367.95 101.783 367.511C97.775 363.794 100.381 359.988 100.945 356.188H100.951ZM203.221 21.6948L203.072 23.0366C205.103 23.666 207.175 24.9306 209.158 24.8C216.603 24.3131 224.025 23.3691 231.381 22.6032C230.585 20.9764 229.256 20.165 227.391 20.1689C222.748 20.1689 218.099 19.9849 213.474 20.2402C210.043 20.4302 206.64 21.1901 203.227 21.6948H203.221ZM69.323 498.243C66.04 501.948 67.768 534.823 71.111 537.874C70.499 524.32 69.911 511.281 69.323 498.243ZM167.947 821.842C163.595 821.242 159.374 820.666 154.82 820.043C155.111 822.827 155.384 825.41 155.687 828.313C159.795 828.028 163.821 827.749 167.947 827.458V821.842ZM39.524 317.744C39.198 317.774 38.871 317.804 38.545 317.839C36.283 325.582 37.808 333.478 37.589 341.992C39.714 340.158 41.727 338.946 42.891 337.183C43.467 336.304 42.428 334.405 42.19 332.956C41.757 330.29 41.43 327.612 40.967 324.952C40.551 322.542 40.011 320.149 39.53 317.75L39.524 317.744ZM63.659 242.252C67.851 241.338 72.037 240.418 76.573 239.426C76.395 238.031 76.104 235.81 75.849 233.845C71.301 234.409 66.895 234.949 62.502 235.496C62.893 237.77 63.309 240.216 63.659 242.252ZM86.666 359.115C82.326 358.991 79.547 362.268 76.436 364.958C74.637 366.513 75.445 367.647 76.983 368.621C79.874 370.461 83.009 369.975 85.413 369.749C85.853 366.026 86.245 362.701 86.666 359.115ZM65.963 264.452C70.861 263.662 75.474 262.914 80.236 262.142C79.779 259.868 79.369 257.849 78.9 255.546C74.287 257.03 70.095 258.378 65.963 259.708V264.452ZM109.774 355.707C107.043 355.856 104.531 355.975 103.635 359.151C103.041 361.247 101.687 363.39 103.825 365.32C106.188 367.451 108.622 366.145 111.086 365.421C110.641 362.114 110.219 358.985 109.78 355.707H109.774ZM45.806 401.579C45.384 399.56 44.921 397.333 44.47 395.16C40.142 396.538 36.122 397.82 32.281 399.049C32.441 399.958 32.637 400.617 32.649 401.27C32.691 403.122 33.789 403.283 35.255 403.063C38.598 402.564 41.947 402.119 45.8 401.579H45.806ZM238.619 35.2792C238.619 35.2139 238.601 34.6202 238.719 34.0562C239.414 30.7729 238.571 29.6686 235.329 29.6745C233.75 29.6745 232.165 29.6745 230.585 29.6745C225.266 29.6745 219.94 29.6745 214.371 29.6745C222.647 31.5863 230.603 33.4209 238.613 35.2733L238.619 35.2792ZM207.252 160.674C209.033 157.486 207.875 148.996 205.204 146.472C204.628 145.926 203.541 145.451 202.87 145.629C202.383 145.76 202.039 146.995 201.92 147.778C201.76 148.841 201.825 149.952 201.891 151.038C202.193 156.281 203.773 159.101 207.252 160.674ZM82.516 481.209C82.403 481.542 82.29 481.868 82.172 482.201C83.971 482.741 85.758 483.727 87.563 483.738C93.239 483.786 98.933 483.655 104.591 483.228C109.002 482.895 113.372 482.011 117.76 481.375C117.742 481.316 117.724 481.263 117.712 481.203H82.516V481.209ZM217.595 718.266C219.198 714.466 220.284 710.964 218.61 706.986C217.696 704.818 217.921 702.17 217.636 699.742C216.942 702.544 216.562 705.388 216.116 708.226C215.814 710.192 215.475 712.204 212.667 710.922C210.666 715.108 213.029 718.516 217.595 718.272V718.266ZM193.602 921.558C193.662 921.178 193.727 920.798 193.786 920.418C192.872 919.973 191.958 919.142 191.049 919.154C187.053 919.201 183.046 919.379 179.074 919.783C178.296 919.86 177.637 921.166 176.924 921.908C177.684 922.55 178.45 923.737 179.21 923.743C182.624 923.749 186.056 923.553 189.446 923.149C190.871 922.977 192.219 922.11 193.596 921.558H193.602ZM51.126 335.515C45.379 339.867 50.609 344.551 49.879 349.01C50.164 349.17 50.449 349.331 50.728 349.485C52.693 347.247 54.658 345.002 56.855 342.503C55.032 340.282 53.026 337.836 51.126 335.515ZM65.245 252.547C69.822 252.156 74.085 251.787 78.473 251.413C77.974 249.3 77.505 247.323 77.06 245.44C72.916 246.711 68.932 247.928 64.615 249.246C64.817 250.315 65.061 251.568 65.245 252.547ZM36.104 90.1692C43.217 90.1454 50.538 88.8512 54.439 96.8249C55.205 96.4449 55.834 96.1302 56.422 95.8334C55.199 90.478 51.227 88.1327 46.661 87.4381C43.194 86.9097 39.032 86.114 36.099 90.1692H36.104ZM74.715 222.131C69.965 223.015 65.328 223.876 60.703 224.737C60.928 226.198 61.148 227.635 61.362 229.018C65.791 228.098 70.196 227.184 74.709 226.239V222.125L74.715 222.131ZM146.205 17.6456C145.813 14.9263 143.8 14.6176 142.364 15.2707C136.8 17.7822 131.326 20.5074 125.977 23.4404C123.709 24.6813 121.839 26.6464 119.79 28.2792C128.292 23.9984 136.011 18.2868 146.211 17.6456H146.205ZM167.953 844.682C165.697 845.151 163.72 845.603 161.731 845.965C156.94 846.832 156.934 846.814 157.432 851.599C157.444 851.724 157.682 851.825 157.628 851.777C161.167 850.905 164.569 850.068 167.953 849.236V844.682ZM133.321 187.125C127.176 183.171 120.604 183.954 114.061 184.518C120.265 187.564 126.565 189.743 133.321 187.125ZM103.766 331.186C106.051 335.532 106.034 335.503 110.065 333.585C111.733 332.789 113.479 332.142 115.106 331.466C114.577 329.673 114.084 327.98 113.514 326.027C110.118 327.826 106.942 329.506 103.771 331.186H103.766ZM155.711 835.082C160.051 834.678 164.029 834.31 167.858 833.96V830.427H155.711V835.082ZM159.196 861.645C161.434 860.701 163.239 859.84 165.121 859.169C169.04 857.768 169.058 857.81 168.315 853.82C164.931 854.758 161.541 855.696 158.198 856.622C158.477 858.024 158.816 859.71 159.202 861.651L159.196 861.645ZM47.409 423.778C44.239 424.051 41.193 424.312 37.844 424.597C38.188 426.622 38.503 428.474 38.806 430.285C41.727 429.341 44.524 428.445 47.409 427.513V423.778ZM65.007 453.91C65.583 444.873 64.734 435.908 63.368 426.978C63.03 436.003 62.329 445.051 65.007 453.91ZM170.209 862.898C169.847 861.758 169.449 860.493 169.058 859.253C165.638 860.511 162.461 861.687 159.273 862.862C159.706 864.281 160.104 865.587 160.496 866.876C163.898 865.487 167.045 864.198 170.204 862.904L170.209 862.898ZM100.613 392.661C98.054 393.759 95.37 394.911 92.71 396.051C92.918 396.651 93.078 397.078 93.221 397.506C94.236 400.563 94.521 400.652 97.525 399.18C99.152 398.384 100.844 397.731 102.447 397.037C101.836 395.588 101.23 394.127 100.613 392.661ZM84.351 84.511C84.642 84.5526 84.938 84.6001 85.229 84.6416C85.989 83.7511 86.607 82.6704 87.527 82.0114C91.149 79.4109 94.877 76.947 98.547 74.4058C99.437 73.7883 100.251 73.064 101.094 72.3931C100.951 72.1912 100.809 71.9893 100.666 71.7875C94.907 73.8596 89.498 76.5491 85.36 81.2752C84.677 82.053 84.671 83.4126 84.351 84.5051V84.511ZM91.06 402.143C90.442 400.26 89.926 398.687 89.332 396.888C87.23 397.909 84.79 398.337 83.935 399.738C83.116 401.068 83.953 403.419 84.083 405.634C86.791 404.28 88.833 403.259 91.066 402.143H91.06ZM167.466 150.444C171.148 159.315 173.76 168.387 173.41 178.159C177.304 176.841 174.069 161.874 167.466 150.444ZM156.251 842.593C160.383 841.916 164.195 841.292 168.09 840.651C168.007 839.487 167.941 838.65 167.876 837.766C163.892 838.193 160.092 838.603 156.251 839.012V842.593ZM128.595 380.697C128.292 379.652 127.924 378.364 127.497 376.892C125.021 378.299 122.812 379.551 121.019 380.573C122.023 382.484 122.895 384.159 123.887 386.053C125.395 384.337 126.838 382.692 128.589 380.703L128.595 380.697ZM75.314 275.495C73.42 275.447 71.277 275.263 71.301 277.995C71.324 280.364 73.076 280.862 75.13 280.85C77.25 280.839 78.787 280.073 78.977 277.828C79.221 274.925 77.006 275.542 75.314 275.495ZM41.591 505.855C40.16 505.855 38.996 505.944 37.856 505.825C36.864 505.724 35.897 505.38 34.519 505.053C33.551 506.805 32.447 508.8 31.082 511.258C33.914 510.07 36.176 508.651 37.737 511.905C39.002 509.916 40.172 508.075 41.585 505.855H41.591ZM48.893 498.113C51.096 496.504 53.412 494.817 55.692 493.155C51.316 491.908 47.492 492.276 44.583 495.88C45.972 496.599 47.373 497.323 48.893 498.107V498.113ZM47.13 499.704C45.373 499.169 43.532 498.605 41.466 497.976C40.136 499.14 38.509 500.565 37.06 501.841C40.979 503.314 45.004 504.994 47.13 499.704ZM28.707 520.502C30.82 520.045 32.768 519.617 34.751 519.184C35.214 517.86 35.707 516.453 36.467 514.286C33.961 514.606 31.901 514.867 29.758 515.141C29.437 516.785 29.075 518.608 28.707 520.502ZM113.556 385.768C114.12 387.406 114.571 388.713 115.129 390.316C117.13 389.342 119.185 388.344 121.286 387.329C120.253 385.72 119.386 384.372 118.448 382.912C116.732 383.915 114.934 384.966 113.562 385.768H113.556ZM263.983 603.226C265.312 607.738 266.399 611.425 267.575 615.403C269.124 614.637 270.525 613.954 272.028 613.212C269.409 609.965 266.975 606.943 263.988 603.226H263.983ZM243.356 286.841L242.62 286.414C242.104 287.185 241.178 287.934 241.136 288.729C240.964 291.876 240.97 295.046 241.142 298.193C241.178 298.84 242.211 299.428 242.781 300.045C242.971 299.861 243.166 299.683 243.356 299.499V286.835V286.841ZM204.206 645.76C203.886 655.112 203.559 664.463 203.238 673.814C203.529 673.82 203.814 673.832 204.105 673.838C205.613 664.522 204.479 655.129 204.206 645.76ZM57.437 469.246C56.576 467.108 55.947 465.541 55.252 463.813C52.384 464.46 49.606 465.09 46.827 465.713C46.815 466.016 46.803 466.319 46.797 466.621C50.11 467.435 53.423 468.254 57.443 469.24L57.437 469.246ZM105.95 395.06C107.91 394.074 109.768 393.136 111.531 392.245C111.027 390.696 110.558 389.271 110.053 387.715C108.462 388.576 106.788 389.49 105.232 390.328C105.47 391.889 105.683 393.302 105.95 395.06ZM34.959 411.678C35.303 413.293 35.612 414.73 35.808 415.644C39.435 414.433 42.891 413.281 46.346 412.129C46.317 411.981 46.287 411.826 46.263 411.678H34.959ZM184.322 899.388C184.857 902.155 185.409 905.017 185.961 907.885C186.388 907.885 186.816 907.891 187.243 907.896C187.552 905.723 187.867 903.544 188.17 901.371C188.562 898.593 187.546 897.708 184.322 899.394V899.388ZM42.79 449.486C43.413 451.303 43.122 453.536 45.901 453.019C47.789 452.669 49.701 452.425 51.755 452.111C51.446 451.19 51.155 450.306 50.882 449.481H42.79V449.486ZM61.908 480.532C60.061 478.252 58.898 475.515 57.366 475.29C55.828 475.064 53.922 477.344 51.773 478.805C55.353 479.416 58.155 479.891 61.908 480.532ZM94.135 322.352C86.803 320.701 81.881 321.42 79.904 324.667C84.974 323.842 89.552 323.1 94.135 322.352ZM82.564 327.422C82.593 327.879 82.623 328.337 82.653 328.788C87.123 328.699 91.683 329.839 96.011 327.802C95.994 327.452 95.97 327.102 95.952 326.757C91.487 326.977 87.022 327.203 82.558 327.422H82.564ZM94.883 505.653C100.399 505.902 105.677 506.146 110.961 506.389C110.985 505.979 111.003 505.564 111.027 505.154C105.855 504.804 100.684 504.436 95.507 504.163C95.341 504.157 95.127 505.059 94.889 505.653H94.883ZM87.141 147.179C89.825 150.486 95.691 151.65 100.975 150.076C96.789 149.198 91.784 148.147 87.141 147.179ZM193.673 128.494C190.39 124.665 187.908 125.359 186.804 129.806C189.238 129.343 191.453 128.916 193.673 128.494ZM107.09 473.728C107.957 467.743 106.829 459.034 104.626 456.855C105.475 462.649 106.224 467.797 107.09 473.728ZM101.307 468.171C101.652 468.171 101.99 468.171 102.335 468.171V457.852C101.616 458.499 100.945 458.826 100.951 459.14C101.005 462.151 101.171 465.161 101.307 468.171ZM181.318 893.784C181.063 893.784 180.807 893.784 180.546 893.778C180.38 899.097 180.332 904.405 182.5 909.862C182.084 904.198 181.698 898.991 181.312 893.784H181.318ZM197.087 842.765C196.583 842.854 196.072 842.937 195.567 843.026C195.467 844.332 194.956 845.81 195.413 846.879C195.728 847.609 197.39 847.758 198.453 848.168C198.744 847.847 199.029 847.532 199.32 847.212C198.578 845.727 197.835 844.249 197.087 842.765ZM45.462 103.148C45.479 102.839 45.491 102.531 45.509 102.228H38.604C39.352 105.113 41.567 105.345 45.462 103.148ZM115.765 408.127C112.867 407.997 112.588 408.27 111.116 412.408C114.096 412.753 115.628 411.399 115.765 408.127ZM97.698 458.98C97.3 459.01 96.902 459.039 96.504 459.063C97.175 463.896 97.846 468.735 98.523 473.568C98.766 473.538 99.01 473.515 99.253 473.485L97.704 458.974L97.698 458.98ZM239.871 307.538C242.876 307.283 246.224 306.998 249.917 306.683C249.401 304.344 247.928 304.362 246.438 304.884C244.223 305.662 242.08 306.636 239.871 307.538ZM174.437 895.737C174.122 895.767 173.807 895.796 173.493 895.826C174.104 900.659 174.716 905.486 175.333 910.319C175.523 910.301 175.713 910.283 175.897 910.265C175.41 905.421 174.924 900.576 174.437 895.731V895.737ZM109.922 246.331C107.654 247.4 105.713 248.314 103.766 249.229C103.89 249.549 104.009 249.87 104.134 250.19C106.212 249.626 108.302 249.086 110.344 248.421C110.421 248.397 110.083 247.115 109.922 246.331ZM91.861 333.633C91.784 333.312 91.707 332.991 91.63 332.671C89.492 333.175 87.343 333.639 85.229 334.226C84.873 334.327 84.671 334.962 84.392 335.354C84.867 335.527 85.419 335.954 85.799 335.835C87.842 335.176 89.849 334.381 91.861 333.627V333.633ZM62.139 488.263H56.351C60.857 491.819 61.195 491.807 62.139 488.263ZM311.142 1072.61C311.528 1072.67 311.908 1072.71 312.294 1072.77C312.751 1070.1 313.202 1067.42 313.66 1064.75C313.398 1064.71 313.131 1064.66 312.87 1064.62C312.87 1067.39 310.056 1069.65 311.142 1072.62V1072.61ZM83.84 373.579C80.301 372.949 77.101 372.379 73.907 371.815C76.947 373.24 79.791 375.734 83.84 373.579ZM41.151 440.931C43.894 440.218 46.37 439.577 48.852 438.936C47.492 438.568 46.228 438.704 44.957 438.746C43.496 438.793 42.036 438.758 40.51 438.758C40.753 439.577 40.967 440.301 41.151 440.937V440.931ZM233.263 19.7592C233.073 23.8322 234.48 23.28 238.203 22.4191C236.618 21.5641 235.032 20.7092 233.263 19.7592ZM82.332 96.9021C82.522 97.389 82.712 97.8699 82.902 98.3567C84.832 97.5374 86.761 96.724 88.697 95.9046C88.548 95.5306 88.406 95.1565 88.257 94.7765C86.28 95.4831 84.309 96.1896 82.332 96.8962V96.9021ZM106.437 413.768C106.295 413.334 106.146 412.901 106.004 412.468C103.611 411.09 102.869 413.453 101.628 414.682C101.782 415.038 101.937 415.395 102.097 415.745C103.546 415.086 104.995 414.427 106.443 413.768H106.437ZM240.097 281.943C240.328 283.368 240.495 284.389 240.661 285.41C240.946 285.517 241.225 285.624 241.51 285.737C242.074 284.413 242.644 283.095 243.208 281.771C242.959 281.604 242.709 281.438 242.466 281.278C241.658 281.503 240.851 281.735 240.097 281.943ZM117.682 406.993C119.28 407.724 120.016 408.317 120.77 408.329C121.476 408.341 122.195 407.742 122.907 407.415C122.04 406.827 121.233 406.073 120.277 405.723C119.861 405.568 119.143 406.245 117.688 406.999L117.682 406.993ZM89.51 65.779C89.231 65.5177 88.946 65.2624 88.667 65.0012C87.64 66.153 86.619 67.3108 85.764 68.2726C86.892 67.5246 88.198 66.6517 89.51 65.779ZM66.135 455.685C65.921 455.81 65.702 455.934 65.488 456.059C66.23 457.347 66.978 458.636 67.72 459.93L68.558 459.419C67.75 458.173 66.943 456.932 66.135 455.685ZM165.721 603.986C165.923 604.211 166.131 604.437 166.332 604.663C167.003 604.105 167.674 603.546 168.345 602.988L167.858 602.389C167.146 602.923 166.433 603.452 165.721 603.986ZM169.449 601.047C169.645 601.255 169.835 601.462 170.031 601.67C170.655 601.088 171.272 600.507 171.896 599.925C171.706 599.723 171.516 599.515 171.32 599.313C170.696 599.895 170.073 600.471 169.449 601.053V601.047ZM93.779 62.8697C93.654 62.6916 93.53 62.5135 93.399 62.3354C92.722 62.6679 92.051 63.0063 91.374 63.3387C91.446 63.505 91.517 63.6712 91.594 63.8375C92.324 63.5168 93.049 63.1903 93.779 62.8697ZM175.577 597.211C175.405 596.98 175.232 596.748 175.06 596.517C174.597 596.82 174.134 597.128 173.677 597.431C173.766 597.603 173.861 597.781 173.95 597.954C174.496 597.71 175.036 597.461 175.583 597.217L175.577 597.211ZM178.718 594.112C178.587 593.964 178.45 593.809 178.32 593.661C177.839 594.041 177.364 594.427 176.883 594.807C176.984 594.943 177.085 595.08 177.186 595.217C177.696 594.848 178.207 594.48 178.718 594.118V594.112ZM89.635 64.4015C89.67 64.5618 89.706 64.7162 89.748 64.8765C90.306 64.728 90.858 64.5796 91.416 64.4312C91.374 64.2531 91.339 64.0809 91.297 63.9028C90.745 64.069 90.187 64.2353 89.635 64.4015Z" fill="black"/>
<path d="M142.53 0.00585938C142.441 0.320534 142.352 0.641204 142.269 0.955879C142.156 0.641204 142.049 0.320534 141.936 0.00585938C142.132 0.00585938 142.334 0.00585938 142.53 0.00585938Z" fill="black"/>
<path d="M203.897 1030.51C203.737 1038.83 199.872 1044.44 191.928 1046.86C182.161 1049.83 168.066 1046.49 163.542 1036.9C161.98 1033.59 161.024 1029.9 160.425 1026.27C159.469 1020.46 162.794 1016.25 167.098 1013.18C171.183 1010.26 175.957 1008.02 181.17 1008.82C189.399 1010.09 201.327 1016.1 203.262 1025.6C203.589 1027.21 203.69 1028.87 203.897 1030.51ZM183.046 1041.66C185.248 1041.37 187.517 1041.32 189.642 1040.75C195.395 1039.21 198.465 1035.1 199.314 1029.41C200.014 1024.71 198.049 1021.1 193.899 1018.76C191.293 1017.28 188.728 1015.68 185.973 1014.55C181.561 1012.74 177.061 1012.18 172.846 1015.25C171.587 1016.16 170.34 1017.09 169.135 1018.07C163.465 1022.72 163.904 1031.98 168.102 1036.37C172.175 1040.62 177.465 1041.46 183.04 1041.66H183.046Z" fill="black"/>
<path d="M181.164 993.726C171.996 992.77 162.829 991.808 153.389 990.822C153.318 989.73 153.252 988.709 153.122 986.731C162.782 988.744 172.056 990.674 181.33 992.603C181.27 992.977 181.217 993.352 181.158 993.726H181.164Z" fill="black"/>
<path d="M65.9269 282.673C65.5409 282.851 65.1609 283.03 64.7759 283.208C60.7559 282.661 60.0439 281.041 62.4179 277.834L62.3289 277.894C64.5439 278.725 66.5389 279.717 65.9329 282.673H65.9269Z" fill="black"/>
<path d="M174.461 895.749C174.947 900.594 175.434 905.438 175.921 910.283C175.731 910.301 175.541 910.319 175.357 910.337C174.746 905.504 174.134 900.677 173.516 895.844C173.831 895.814 174.146 895.784 174.461 895.755V895.749Z" fill="white"/>
<path d="M62.163 488.269C61.213 491.813 60.875 491.825 56.374 488.269H62.163Z" fill="white"/>
<path d="M65.927 282.673C66.533 279.717 64.538 278.725 62.323 277.894C64.49 276.481 66.004 277.454 67.18 279.313C68.195 280.916 67.875 282.127 65.927 282.673Z" fill="white"/>
<path d="M311.166 1072.62C310.079 1069.65 312.894 1067.39 312.894 1064.62C313.155 1064.66 313.422 1064.71 313.683 1064.75C313.226 1067.42 312.775 1070.1 312.318 1072.77C311.932 1072.71 311.552 1072.67 311.166 1072.61V1072.62Z" fill="white"/>
<path d="M62.4179 277.834C60.0489 281.04 60.7559 282.667 64.7759 283.208C62.3349 284.199 60.1439 283.421 59.6929 281.153C59.3009 279.188 60.1799 277.852 62.4119 277.828L62.4179 277.834Z" fill="white"/>
<path d="M66.159 455.685C66.966 456.932 67.774 458.173 68.581 459.419L67.744 459.93C67.002 458.642 66.254 457.353 65.512 456.059C65.726 455.934 65.945 455.809 66.159 455.685Z" fill="white"/>
<path d="M71.289 463.142C70.166 462.299 69.038 461.456 67.916 460.613C68.201 460.31 68.486 460.007 68.771 459.704C69.62 460.844 70.463 461.978 71.312 463.118L71.289 463.148V463.142Z" fill="white"/>
<path d="M164.51 118.134C164.634 118.478 164.759 118.828 164.884 119.173C164.539 119.036 164.195 118.906 163.856 118.769C164.076 118.555 164.296 118.348 164.51 118.134Z" fill="black"/>
<path d="M166.505 112.885C166.238 113.075 165.97 113.271 165.709 113.461C165.976 113.271 166.243 113.075 166.505 112.885Z" fill="black"/>
<path d="M71.3121 463.113L71.3661 463.184L71.2891 463.136L71.3121 463.113Z" fill="white"/>
<path d="M191.227 86.7376C188.087 82.8903 184.863 79.1082 181.829 75.1837C178.355 70.6951 175.036 66.0819 171.676 61.4983C171.349 61.053 171.219 60.4652 170.993 59.9428C171.189 59.3075 171.361 58.6662 171.587 58.0369C171.83 57.3422 172.121 56.6594 172.388 55.9707C173.119 56.2794 174.14 56.3863 174.526 56.9385C177.578 61.2727 180.76 65.5476 183.414 70.1252C186.299 75.0947 188.68 80.3669 191.239 85.5205C191.4 85.847 191.239 86.328 191.227 86.7376Z" fill="black"/>
<path d="M212.227 69.3C209.187 70.7071 206.118 72.1261 203.125 73.5154C201.119 70.0956 202.716 68.2076 204.865 67.0082C208.623 64.9064 212.566 63.1253 216.502 61.3619C217.102 61.0947 218.729 61.5756 218.758 61.8487C218.889 62.9471 218.586 64.0989 218.539 64.5145C219.002 67.0497 219.72 69.0328 219.572 70.9446C219.477 72.0965 218.206 73.4501 217.102 74.0854C216.597 74.3763 215.024 73.3373 214.288 72.5655C213.391 71.6333 212.863 70.345 212.227 69.3119V69.3Z" fill="black"/>
<path d="M210.814 41.8103C205.714 46.9341 200.608 52.058 195.508 57.1819C195.259 57.1106 195.003 57.0394 194.754 56.9622C194.754 54.4863 194.511 51.9808 194.873 49.5584C195.015 48.5966 196.488 47.8306 197.36 46.9875C200.952 43.538 205.5 42.2081 210.054 40.9019C210.31 41.2047 210.559 41.5075 210.814 41.8103Z" fill="black"/>
<path d="M191.726 52.2896C192.035 55.0564 193.056 57.7935 192.367 59.9843C191.779 61.8545 189.221 63.1013 187.517 64.6391C184.293 60.6433 185.296 57.8885 191.726 52.2837V52.2896Z" fill="black"/>
<path d="M171.878 131.807C169.343 130.661 166.718 129.735 164.426 128.286C163.684 127.811 163.821 125.947 163.554 124.724C164.605 124.783 165.751 124.593 166.683 124.956C168.731 125.763 170.732 126.737 172.62 127.871C173.433 128.358 173.914 129.403 174.55 130.192C173.796 130.649 173.047 131.101 171.878 131.807Z" fill="black"/>
<path d="M159.053 59.1053C155.253 62.3352 151.448 65.5592 147.648 68.789C147.351 68.4209 147.048 68.0528 146.751 67.6846C150.652 64.6804 154.553 61.6762 158.459 58.6719C158.655 58.8144 158.857 58.9628 159.053 59.1053Z" fill="black"/>
<path d="M197.164 97.5016C197.087 93.7849 199.557 93.108 202.52 93.0308C200.733 94.5211 198.946 96.0113 197.164 97.5016Z" fill="black"/>
<path d="M190.04 40.3912C192.237 38.0935 194.439 35.7958 196.636 33.498C196.933 33.8365 197.236 34.1749 197.533 34.5133C195.009 36.4548 192.486 38.4022 189.963 40.3437L190.034 40.3971L190.04 40.3912Z" fill="black"/>
<path d="M158.454 58.6721C159.534 57.6747 160.615 56.6712 161.689 55.6738C161.838 55.8341 161.98 56.0004 162.129 56.1607C161.102 57.1403 160.074 58.1259 159.053 59.1055C158.857 58.963 158.655 58.8146 158.46 58.6721H158.454Z" fill="black"/>
<path d="M147.084 68.6289C146.615 68.997 146.14 69.3651 145.671 69.7332C145.469 69.5136 145.273 69.2998 145.071 69.0802L146.443 67.958C146.656 68.1836 146.87 68.4033 147.084 68.6289Z" fill="black"/>
<path d="M189.969 40.3379C189.927 40.5279 189.885 40.7119 189.844 40.9019C189.761 40.8722 189.672 40.8366 189.589 40.807C189.737 40.6704 189.891 40.5279 190.04 40.3913L189.969 40.3379Z" fill="black"/>
<path d="M257.327 483.929C256.246 483.929 255.552 483.721 255.083 483.958C247.815 487.651 241.985 484.689 236.428 480.099C231.862 476.329 227.213 472.666 222.6 468.949C222.22 468.646 221.703 468.373 221.537 467.969C220.902 466.467 220.391 464.923 219.833 463.392C221.312 463.018 222.79 462.649 224.262 462.275C224.34 462.602 224.423 462.929 224.5 463.261C223.692 463.481 222.885 463.7 221.424 464.104C222.992 465.143 224.256 465.867 225.402 466.752C229.968 470.267 234.599 473.711 239.01 477.415C243.832 481.471 249.217 482.551 255.255 481.358C256.763 481.061 258.318 480.978 260.836 480.675C259.815 482.652 259.381 484.113 258.473 485.164C254.887 489.284 251.176 493.298 247.471 497.311C241.854 503.397 236.202 509.459 230.55 515.515C230.016 516.091 229.475 516.738 228.804 517.088C228.323 517.338 227.445 517.379 227.053 517.088C226.667 516.809 226.429 515.925 226.56 515.426C226.851 514.339 227.166 513.069 227.914 512.321C234.73 505.493 241.617 498.736 248.54 492.015C251.277 489.361 254.151 486.85 257.339 483.929H257.327Z" fill="black"/>
<path d="M135.548 324.537C135.773 323.634 135.767 322.566 136.266 321.847C143.082 311.991 149.892 302.124 156.874 292.381C160.08 287.904 163.655 283.688 167.193 279.188C169.2 281.076 169.105 282.923 168.167 284.549C165.483 289.186 163.079 294.096 159.718 298.211C152.303 307.283 144.365 315.934 136.64 324.751C136.278 324.679 135.91 324.608 135.548 324.543V324.537Z" fill="black"/>
<path d="M167.36 309.658C167.793 310.531 168.559 311.386 168.606 312.282C169.087 320.909 169.58 329.536 169.812 338.169C170.132 350.109 170.215 362.049 170.441 373.988C170.471 375.479 170.72 376.969 170.869 378.459C170.589 378.483 170.304 378.501 170.025 378.525C169.764 374.82 169.467 371.115 169.254 367.41C168.814 359.757 168.422 352.104 168.013 344.445C167.431 333.579 166.843 322.714 166.273 311.849C166.243 311.267 166.332 310.679 166.362 310.092C166.695 309.949 167.027 309.807 167.36 309.658Z" fill="black"/>
<path d="M221.222 301.215C204.705 295.337 188.193 289.459 171.676 283.582C171.783 283.178 171.89 282.78 172.002 282.376C174.87 283.047 177.851 283.415 180.588 284.442C194.285 289.596 207.917 294.922 221.567 300.182C221.454 300.526 221.335 300.871 221.222 301.209V301.215Z" fill="black"/>
<path d="M167.591 272.265V239.479C167.971 239.491 168.345 239.503 168.725 239.515C170.168 251.022 168.511 262.427 167.591 272.265Z" fill="black"/>
<path d="M162.776 202.146C162.342 199.29 164.331 198.988 166.528 198.875C173.119 198.536 179.513 199.682 185.878 201.256C202.906 205.471 219.477 210.91 235.056 219.103C236.861 220.053 238.666 221.021 240.518 221.876C243.558 223.283 245.001 225.99 243.986 229.072C243.736 229.826 242.745 230.538 241.932 230.823C241.427 231.001 240.127 230.443 240.038 230.028C238.132 221.484 230.253 220.29 224.066 217.5C211.936 212.032 199.243 208.071 186.192 205.334C180.172 204.07 174.211 202.52 168.167 201.374C166.594 201.077 164.818 201.82 162.776 202.146Z" fill="black"/>
<path d="M302.005 482.29C298.395 480.942 300.016 478.134 300.01 476.145C299.998 472.962 300.871 469.786 301.019 466.598C301.346 459.33 301.423 452.051 301.684 444.778C301.732 443.448 302.153 442.13 302.409 440.806C305.14 440.61 306.363 441.786 306.44 444.541C306.802 457.24 304.849 469.667 302.011 482.296L302.005 482.29Z" fill="black"/>
<path d="M276.789 321.515C276.094 316.409 275.394 311.309 274.699 306.203C274.931 306.173 275.162 306.143 275.394 306.114C276.13 311.208 276.866 316.308 277.603 321.402C277.329 321.438 277.056 321.473 276.789 321.515Z" fill="black"/>
<path d="M196.891 859.193C196.583 860.499 196.405 862.221 195.751 863.735C195.045 865.374 193.857 866.11 191.809 865.16C190.04 864.341 188.324 863.794 188.864 861.431C189.5 858.676 191.75 859.128 193.757 859.193C194.522 859.217 195.294 859.193 196.886 859.193H196.891Z" fill="black"/>
<path d="M161.666 546.982C160.152 540.992 158.632 535.001 156.94 528.315C160.795 530.12 162.723 532.652 162.723 535.909C162.723 539.519 162.723 543.129 162.723 546.739C162.372 546.822 162.016 546.905 161.666 546.982Z" fill="black"/>
<path d="M167.835 541.538C167.3 538.444 166.665 535.357 166.321 532.246C166.243 531.575 167.211 530.785 167.704 530.055C168.22 530.673 169.093 531.237 169.188 531.913C169.55 534.407 169.729 536.936 169.8 539.46C169.818 540.172 169.236 540.897 168.927 541.615C168.559 541.591 168.197 541.567 167.829 541.544L167.835 541.538Z" fill="black"/>
<path d="M152.326 524.337C153.888 531.373 153.526 538.516 152.689 545.682C152.172 538.593 151.65 531.504 151.133 524.415C151.531 524.391 151.929 524.361 152.326 524.337Z" fill="black"/>
<path d="M156.192 83.5788C156.399 85.17 155.907 86.2268 153.829 86.1199C151.798 86.0131 149.773 85.4669 149.851 83.2582C149.898 81.8808 151.157 79.8799 152.38 79.3693C154.072 78.6627 156.198 81.2276 156.192 83.5728V83.5788Z" fill="black"/>
<path d="M158.786 82.7004C162.313 80.0108 165.839 77.3272 169.752 74.3467C169.046 78.6571 162.823 83.7691 159.267 83.5257C159.107 83.2526 158.946 82.9735 158.786 82.7004Z" fill="black"/>
<path d="M171.355 66.064C171.575 66.2361 171.872 66.4559 172.139 66.6993C174.003 68.3973 172.863 70.7188 173.309 72.7137C173.344 72.8681 171.884 73.6281 171.765 73.5034C170.684 72.3575 169.337 71.1938 168.921 69.7866C168.666 68.9198 169.883 67.6017 170.488 66.5211C170.607 66.3133 170.981 66.248 171.349 66.064H171.355Z" fill="black"/>
<path d="M161.737 86.429C164.082 84.6954 166.433 82.9617 168.779 81.228C167.371 84.1907 165.561 86.6131 162.432 87.3434C162.2 87.0406 161.968 86.7318 161.737 86.429Z" fill="black"/>
<path d="M187.053 1021.24C189.731 1022.19 192.629 1023.23 196.007 1024.43C194.813 1025.63 193.371 1027.08 191.696 1028.76C190.372 1028.61 188.597 1028.42 187.053 1028.25V1021.24Z" fill="black"/>
<path d="M190.354 1033.1C188.704 1035.67 177.399 1035.5 171.373 1033.14C177.542 1031.31 183.705 1033.43 190.354 1033.1Z" fill="black"/>
<path d="M176.271 1027.48C173.902 1024.04 171.011 1025.77 168.256 1026.39C168.179 1026.15 168.107 1025.93 168.03 1025.7C168.778 1024.66 169.526 1023.63 170.286 1022.59C169.77 1022.03 169.176 1021.4 167.947 1020.09H175.392C175.624 1022.05 175.915 1024.46 176.277 1027.48H176.271Z" fill="black"/>
</svg>
