<?xml version="1.0" standalone="no"?>
<!DOCTYPE svg PUBLIC "-//W3C//DTD SVG 20010904//EN"
 "http://www.w3.org/TR/2001/REC-SVG-20010904/DTD/svg10.dtd">
<svg version="1.0" xmlns="http://www.w3.org/2000/svg"
 width="400.000000pt" height="400.000000pt" viewBox="0 0 400.000000 400.000000"
 preserveAspectRatio="xMidYMid meet">

<g transform="translate(0.000000,400.000000) scale(0.100000,-0.100000)"
fill="#000000" stroke="none">
<path d="M3105 2777 c-77 -26 -110 -51 -255 -191 -80 -77 -178 -163 -218 -189
-272 -182 -618 -241 -919 -157 -40 11 -75 20 -78 20 -2 0 -11 -13 -20 -30 -9
-16 -13 -30 -10 -30 3 0 -3 -10 -15 -22 -19 -20 -24 -33 -21 -50 0 -5 -4 -8
-9 -8 -6 0 -10 -7 -10 -15 0 -8 -5 -15 -11 -15 -5 0 -7 -4 -4 -10 3 -5 2 -10
-3 -10 -9 0 -25 -36 -23 -51 0 -4 -9 -15 -19 -24 -11 -10 -20 -25 -20 -34 0
-9 -14 -36 -30 -60 -17 -24 -30 -49 -30 -55 0 -6 -8 -23 -17 -36 -10 -14 -18
-31 -20 -38 -1 -8 -13 -30 -26 -50 -25 -37 -37 -59 -80 -144 -13 -26 -29 -53
-34 -60 -6 -7 -20 -35 -31 -61 l-21 -48 62 56 c383 348 958 385 1392 92 33
-23 128 -107 210 -187 91 -89 168 -155 195 -168 139 -67 296 -38 399 73 66 71
86 124 86 225 0 125 -21 162 -195 335 l-140 139 140 141 c170 172 195 215 195
340 0 71 -4 89 -33 148 -37 74 -89 124 -168 158 -59 27 -163 34 -219 16z"/>
</g>
</svg>
