<svg width="945" height="500" viewBox="0 0 945 500" fill="none" xmlns="http://www.w3.org/2000/svg">
<rect width="945" height="500" rx="20" fill="white"/>
<path d="M283.284 456.558C255.534 459.398 223.554 455.168 195.144 444.918C152.704 429.598 118.024 403.088 91.874 365.958C86.674 358.568 72.144 333.148 72.144 331.428C72.144 331.038 78.554 332.988 86.394 335.748C94.234 338.518 106.934 342.998 114.614 345.698C122.294 348.408 129.524 350.618 130.674 350.618C134.714 350.618 136.754 346.878 144.134 326.018C148.194 314.518 152.134 303.598 152.894 301.738L154.274 298.358L159.464 306.938C166.024 317.798 168.044 320.448 176.644 329.448C193.274 346.878 214.294 358.568 239.304 364.288C250.934 366.948 276.184 366.678 286.974 363.778C316.754 355.768 343.834 336.678 369.104 305.868C373.734 300.228 378.244 295.618 379.134 295.618C380.024 295.618 387.934 296.488 396.704 297.548C405.474 298.618 415.794 299.778 419.644 300.138C430.424 301.148 433.934 302.308 435.534 305.408C436.764 307.798 436.474 312.138 433.034 342.598L429.144 377.078L421.394 384.938C407.704 398.828 383.394 417.758 365.644 428.348C340.434 443.378 309.884 453.848 283.284 456.558ZM138.644 179.438C124.344 181.218 112.104 182.668 111.454 182.648C110.794 182.628 109.154 181.608 107.804 180.368C105.514 178.268 105.134 176.368 102.114 152.118C101.734 149.028 101.374 146.208 101.054 143.628C98.184 120.788 97.684 116.758 99.374 114.158C99.924 113.298 100.714 112.608 101.734 111.448C135.724 72.9182 178.864 50.2482 229.004 44.5582C243.024 42.9682 279.694 43.8582 291.644 46.0782C327.944 52.8282 362.674 68.8282 390.144 91.4582C397.204 97.2782 413.164 112.788 418.164 118.688L422.034 123.268L392.844 122.818C364.624 122.388 363.564 122.438 361.144 124.408L358.644 126.438L357.984 152.778C357.624 167.268 357.284 179.708 357.234 180.428C357.184 181.148 352.564 176.968 346.974 171.138C334.704 158.358 325.124 150.968 312.354 144.468C287.484 131.808 260.984 128.038 233.254 133.218C216.684 136.318 204.964 141.198 190.064 151.208C184.104 155.208 171.584 167.198 166.604 173.658C164.724 176.088 163.514 176.338 138.644 179.438ZM128.614 335.458C128.074 336.028 121.264 337.408 120.874 337.018C120.674 336.808 115.364 334.808 109.074 332.568C102.784 330.328 91.344 326.248 83.644 323.498C75.944 320.748 69.074 318.448 68.384 318.388C66.894 318.268 62.054 303.028 59.244 289.618C49.814 244.648 56.364 191.308 76.254 151.118C84.534 134.398 89.144 127.608 89.144 132.158C89.144 133.008 90.764 146.398 92.744 161.908C96.714 192.988 97.254 194.608 103.564 194.628C105.264 194.628 117.594 193.248 130.984 191.548C144.374 189.858 155.514 188.658 155.744 188.888C155.984 189.118 155.064 191.808 153.714 194.868C146.944 210.178 144.104 222.948 143.414 241.238C142.864 255.728 143.954 267.468 146.754 277.258C147.104 278.508 147.424 279.338 147.574 280.198C148.084 282.978 146.964 286.048 140.404 303.998C139.714 305.868 138.974 307.908 138.164 310.118C136.964 313.418 135.164 318.598 134.174 321.618C132.454 326.858 129.294 334.738 128.614 335.458ZM544.694 393.868C545.014 398.678 545.134 402.608 544.964 402.598C544.784 402.588 539.694 398.078 533.644 392.578C517.614 378.018 511.154 370.998 490.594 345.798C482.374 335.718 475.234 326.878 474.724 326.158C474.114 325.288 474.444 324.028 475.724 322.368C476.784 320.998 480.544 316.108 484.104 311.498C487.654 306.888 491.064 302.668 491.684 302.118C492.304 301.568 495.674 297.518 499.174 293.118C502.664 288.718 506.904 283.498 508.584 281.528C510.264 279.548 512.324 277.078 513.144 276.028C515.854 272.588 523.634 263.128 524.174 262.618C524.464 262.348 526.184 260.208 528.004 257.868C529.824 255.528 531.704 253.618 532.184 253.618C532.894 253.618 550.244 273.778 581.714 311.168C588.164 318.838 599.974 330.478 607.504 336.578C612.974 341.018 613.894 342.158 612.444 342.678C611.454 343.038 604.794 343.608 597.644 343.958C571.004 345.268 548.594 346.708 546.884 347.228C545.914 347.518 544.454 349.048 543.644 350.618C542.144 353.528 542.224 356.878 544.694 393.868ZM419.984 245.368C417.844 247.708 415.774 249.608 415.374 249.598C414.974 249.588 413.454 247.888 411.994 245.828C409.024 241.618 394.614 224.968 386.734 216.618C383.874 213.598 378.584 207.628 374.964 203.358L368.384 195.588L368.804 169.358C369.044 154.928 369.454 141.668 369.734 139.898C370.704 133.548 370.754 133.538 397.994 133.718C411.554 133.808 424.944 134.158 427.764 134.498L432.884 135.118L472.864 183.118L464.854 192.618C460.454 197.848 456.354 202.568 455.744 203.118C455.144 203.668 452.854 206.368 450.664 209.118C445.124 216.058 424.684 240.218 419.984 245.368ZM730.874 290.208C727.174 291.008 718.044 291.558 708.394 291.578L692.144 291.618V205.618L706.394 205.648C725.094 205.688 734.064 206.928 741.744 210.518C749.754 214.268 755.564 220.148 759.464 228.468C762.144 234.178 762.634 236.518 762.984 245.028C763.224 250.838 762.874 257.258 762.144 260.528C758.664 276.178 747.684 286.608 730.874 290.208ZM260.144 291.568C249.084 294.028 231.264 291.978 225.434 287.578C213.534 278.588 208.194 266.798 208.154 249.418C208.124 229.218 215.584 215.448 230.314 208.558C237.144 205.358 238.334 205.128 247.644 205.138C255.184 205.148 259.414 205.698 264.844 207.398C268.804 208.628 272.304 210.058 272.614 210.568C273.034 211.248 268.924 223.508 267.654 225.368C267.554 225.498 264.594 224.428 261.064 222.978C253.694 219.948 244.204 219.498 239.494 221.948C231.854 225.938 228.104 233.268 227.394 245.618C226.294 264.548 232.264 275.298 244.964 277.228C249.134 277.868 258.714 276.518 267.894 273.998C270.084 273.398 270.144 273.588 270.144 280.878C270.144 289.298 270.084 289.358 260.144 291.568ZM669.394 290.118C666.404 291.178 660.384 291.958 653.144 292.228C642.854 292.608 640.994 292.398 635.444 290.278C625.154 286.338 618.994 279.808 615.014 268.568C611.904 259.798 611.654 240.128 614.544 231.318C620.404 213.478 636.254 203.388 656.024 204.938C663.124 205.498 674.524 208.598 676.424 210.498C677.034 211.108 673.164 223.168 671.654 225.368C671.554 225.498 668.594 224.438 665.064 222.998C657.514 219.918 648.264 219.468 643.484 221.938C639.364 224.078 634.644 229.628 633.004 234.278C630.944 240.098 631.194 258.958 633.404 264.688C636.534 272.778 643.614 277.618 652.344 277.618C656.614 277.618 669.594 274.928 672.394 273.468C673.994 272.628 674.144 273.248 674.144 280.488V288.428L669.394 290.118ZM307.144 205.538V291.618H288.124L288.644 206.118L297.894 205.828L307.144 205.538ZM711.144 220.318V276.618H716.964C724.344 276.618 732.164 274.308 736.144 270.968C741.514 266.448 743.474 261.288 743.944 250.468C744.464 238.568 742.774 232.608 737.374 227.358C732.594 222.718 729.544 221.618 719.404 220.908L711.144 220.318ZM224.114 90.8682C225.804 93.0082 227.134 93.6182 230.104 93.6182C236.014 93.6182 238.644 90.8982 238.644 84.8082C238.644 78.2282 236.384 75.6182 230.684 75.6182C224.834 75.6182 222.974 77.3182 222.414 83.1982C222.034 87.1882 222.354 88.6382 224.114 90.8682ZM92.144 225.358C101.484 227.518 101.664 227.448 102.164 221.528C102.554 216.938 102.134 215.518 99.694 213.068C96.394 209.778 90.354 209.678 87.414 212.868C85.684 214.738 82.664 222.558 83.424 223.198C83.544 223.298 87.464 224.268 92.144 225.358ZM243.144 84.1982V91.6182H246.694C254.884 91.6182 259.604 85.7582 256.984 78.8482C255.364 74.5882 251.494 72.7482 245.584 73.4382C242.954 73.7382 242.164 74.2382 242.584 75.3182C242.894 76.1182 243.144 80.1182 243.144 84.1982ZM241.844 416.898C243.384 417.128 246.554 417.388 248.894 417.468C252.444 417.598 253.144 417.308 253.144 415.728C253.144 414.258 252.144 413.698 248.564 413.158C245.044 412.628 244.124 412.118 244.564 410.968C244.884 410.138 245.144 408.818 245.144 408.038C245.144 407.048 246.354 406.618 249.144 406.618C252.474 406.618 253.144 406.288 253.144 404.618C253.144 402.948 252.474 402.618 249.144 402.618C245.344 402.618 245.144 402.458 245.144 399.558C245.144 396.508 245.164 396.498 249.504 397.148C252.954 397.668 253.984 397.478 254.464 396.228C255.324 393.988 252.204 392.618 246.254 392.618C246.044 392.618 245.834 392.618 245.634 392.618C243.974 392.608 242.874 392.608 242.104 393.108C240.484 394.178 240.354 397.498 239.644 407.798L239.054 416.478L241.844 416.898ZM258.814 416.948C259.174 417.318 261.674 417.618 264.354 417.618C268.204 417.618 269.754 417.098 271.694 415.168C275.984 410.868 274.284 406.338 267.174 403.128C264.014 401.708 263.124 400.788 263.344 399.198C263.604 397.428 264.254 397.158 267.784 397.378C270.874 397.568 272.084 397.208 272.554 395.978C273.424 393.718 272.894 393.398 267.414 392.888C261.674 392.358 258.144 394.908 258.144 399.588C258.144 402.958 260.234 405.338 264.894 407.288C271.594 410.088 269.854 414.118 262.394 413.088C258.684 412.568 258.144 412.738 258.144 414.388C258.144 415.428 258.444 416.588 258.814 416.948ZM82.034 282.978C82.114 284.378 82.694 284.708 84.394 284.298C85.634 284.008 89.724 283.458 93.484 283.068L100.334 282.368L99.654 277.738C98.604 270.698 94.304 267.308 91.184 271.078C90.404 272.008 88.974 272.338 87.224 271.988C83.544 271.248 81.354 273.548 81.674 277.798C81.804 279.628 81.964 281.958 82.034 282.978ZM222.184 412.868C222.154 414.058 222.914 414.618 224.564 414.618C227.124 414.618 227.914 412.418 229.674 400.368C230.344 395.808 230.504 395.618 233.654 395.618C235.774 395.618 237.154 395.038 237.564 393.978C237.904 393.068 238.064 392.228 237.914 392.098C237.764 391.958 233.724 391.198 228.934 390.398C221.404 389.138 220.154 389.138 219.684 390.368C218.884 392.468 219.944 393.618 222.704 393.618C225.614 393.618 225.744 395.078 223.644 404.618C222.854 408.198 222.194 411.908 222.184 412.868ZM283.144 406.118C284.354 415.268 284.494 415.618 286.914 415.618C289.384 415.618 289.414 415.518 288.804 409.678C288.464 406.418 287.894 401.918 287.534 399.678C286.904 395.748 286.984 395.598 290.014 394.998C293.694 394.258 294.584 390.618 291.084 390.618C288.804 390.618 274.804 392.678 274.374 393.078C274.224 393.218 274.384 394.068 274.724 394.978C275.134 396.038 276.514 396.618 278.624 396.618H281.884L283.144 406.118ZM420.224 207.218C421.244 208.438 421.684 208.458 423.034 207.318C423.924 206.578 427.004 204.018 429.894 201.638C432.784 199.258 435.144 196.928 435.144 196.458C435.144 194.618 432.164 195.798 428.504 199.098C426.384 201.008 424.334 202.578 423.964 202.598C423.244 202.618 423.914 199.978 426.504 192.618C427.814 188.888 427.854 187.898 426.754 186.798C425.654 185.698 424.294 186.438 418.714 191.168C414.194 194.998 412.324 197.198 413.004 197.878C413.684 198.558 415.584 197.548 418.794 194.798C421.424 192.548 423.684 190.828 423.824 190.968C423.964 191.108 422.944 194.498 421.554 198.498C419.544 204.268 419.274 206.068 420.224 207.218ZM391.404 162.428C392.604 163.638 394.414 164.618 395.434 164.618C401.604 164.618 403.294 158.058 398.354 153.318L395.554 150.638L388.874 156.258C382.774 161.388 381.404 163.618 384.374 163.618C384.984 163.618 386.324 162.858 387.354 161.928C389.104 160.338 389.344 160.368 391.404 162.428ZM408.654 193.638C409.834 195.538 410.794 194.538 414.954 187.118C419.064 179.758 419.894 177.158 418.394 176.308C417.094 175.568 400.834 182.058 400.344 183.508C399.984 184.588 400.664 184.748 403.464 184.218C406.564 183.638 407.274 183.878 408.664 186.018C409.934 187.948 410.044 188.938 409.164 190.568C408.554 191.718 408.324 193.098 408.654 193.638ZM80.144 265.158C80.144 267.378 93.834 267.208 96.314 264.968C98.434 263.048 98.844 255.718 96.944 253.818C96.214 253.088 92.674 252.618 87.944 252.618C81.784 252.618 80.144 252.928 80.144 254.078C80.144 255.188 81.834 255.598 87.294 255.828C92.794 256.048 94.684 256.518 95.534 257.868C96.334 259.138 96.334 260.098 95.534 261.368C94.684 262.718 92.794 263.188 87.294 263.408C81.834 263.638 80.144 264.048 80.144 265.158ZM262.144 72.6182V90.6182H267.144C269.894 90.6182 272.144 90.1782 272.144 89.6382C272.144 88.3982 267.614 87.2082 266.204 88.0782C265.544 88.4882 265.144 87.5682 265.144 85.6782C265.144 82.8382 265.394 82.6182 268.724 82.6182C273.244 82.6182 272.904 80.2582 268.314 79.8082C265.954 79.5682 265.144 78.9982 265.144 77.5582C265.144 76.0082 265.844 75.6182 268.644 75.6182C271.084 75.6182 272.144 75.1682 272.144 74.1182C272.144 72.9882 270.924 72.6182 267.144 72.6182H262.144ZM234.144 89.6182C231.464 92.2982 229.694 92.1382 227.214 88.9882C224.354 85.3482 224.514 81.0782 227.574 79.0682C230.564 77.1082 233.744 78.4382 235.194 82.2482C236.584 85.9082 236.374 87.3882 234.144 89.6182ZM211.444 96.6082C214.364 97.7882 214.374 97.7882 217.994 96.5182C219.724 95.9182 221.144 95.0382 221.144 94.5782C221.144 93.2082 219.334 92.4982 218.654 93.5982C217.784 95.0082 213.874 94.8782 211.814 93.3682C210.874 92.6782 209.834 90.5082 209.514 88.5382C208.834 84.3482 210.894 81.6182 214.714 81.6182C216.204 81.6182 217.144 81.0382 217.144 80.1182C217.144 77.6182 211.414 78.2582 208.594 81.0682C204.504 85.1682 206.214 94.4982 211.444 96.6082ZM252.214 87.5782C251.144 88.1482 249.344 88.6182 248.214 88.6182C246.334 88.6182 246.144 88.0182 246.144 81.9982V75.3682L249.344 76.0082C253.244 76.7882 254.104 78.0182 254.124 82.8282C254.144 85.4882 253.594 86.8382 252.214 87.5782ZM99.954 220.408C99.784 221.818 99.194 223.078 98.644 223.218C97.354 223.548 88.324 221.138 87.404 220.208C86.064 218.868 89.654 214.128 92.234 213.818C95.894 213.388 100.334 217.178 99.954 220.408ZM395.894 178.158C397.404 179.978 398.904 181.508 399.224 181.548C400.944 181.758 400.784 180.048 398.844 177.418L396.644 174.448L399.184 172.278C400.574 171.088 403.224 168.858 405.074 167.308C407.514 165.268 408.134 164.208 407.334 163.408C407.064 163.138 406.864 162.928 406.614 162.838C405.754 162.528 404.384 163.668 398.064 168.878L397.894 169.018C395.284 171.168 393.144 173.358 393.144 173.888C393.144 174.418 394.384 176.338 395.894 178.158ZM89.394 239.378C93.934 239.908 97.924 240.398 98.264 240.478C98.994 240.638 100.144 235.448 100.144 231.998C100.144 228.318 98.314 229.188 97.554 233.238L96.874 236.848L89.014 236.168C82.444 235.598 81.144 235.728 81.144 236.948C81.144 238.048 83.244 238.658 89.394 239.378ZM82.924 246.748C84.414 247.098 88.714 247.438 92.474 247.498C97.534 247.588 99.204 247.298 98.894 246.368C98.284 244.538 82.044 243.158 80.994 244.858C80.444 245.718 81.054 246.318 82.924 246.748ZM97.144 278.198C97.144 280.118 92.244 280.048 91.504 278.118C90.624 275.828 91.854 273.618 94.004 273.618C95.904 273.618 97.144 275.428 97.144 278.198ZM398.074 159.748C396.864 162.008 394.834 162.158 393.124 160.098C392.094 158.858 392.194 158.218 393.664 156.588C395.344 154.738 395.594 154.718 397.274 156.238C398.644 157.478 398.844 158.318 398.074 159.748ZM89.124 278.868C89.144 280.068 88.364 280.618 86.644 280.618C84.634 280.618 84.144 280.118 84.144 278.088C84.144 276.688 84.864 275.278 85.744 274.938C87.504 274.268 89.104 276.128 89.124 278.868ZM415.634 179.828C415.764 179.988 415.114 181.348 414.184 182.848C412.894 184.938 412.224 185.298 411.324 184.398C410.674 183.748 410.144 182.928 410.144 182.578C410.144 181.898 415.244 179.348 415.634 179.828Z" fill="#5E93CA"/>
<path d="M663.644 456.628C641.164 454.218 612.574 445.348 592.644 434.588C576.174 425.688 557.484 413.328 556.764 410.848C556.494 409.898 555.744 398.378 555.104 385.238L553.944 361.358L556.294 359.068C558.484 356.918 559.924 356.688 577.644 355.678C588.094 355.088 604.384 354.128 613.834 353.548L631.024 352.488L638.334 355.998C647.194 360.248 659.364 364.158 668.144 365.558C688.074 368.758 713.244 364.938 733.834 355.608C740.494 352.588 740.694 352.638 739.204 357.218C735.974 367.138 726.994 401.048 726.924 403.578C726.804 407.948 729.544 410.368 737.054 412.508C748.384 415.748 762.174 419.628 775.084 423.218C781.924 425.118 787.704 426.848 787.934 427.068C788.634 427.778 779.944 432.818 770.354 437.278C752.494 445.568 733.924 451.258 714.144 454.508C699.834 456.858 675.384 457.888 663.644 456.628ZM681.584 419.398C682.464 418.148 683.144 415.108 683.144 412.468C683.144 408.578 682.684 407.408 680.514 405.688C674.204 400.728 667.144 404.718 667.144 413.248C667.144 419.148 669.644 421.618 675.584 421.618C679.044 421.618 680.374 421.128 681.584 419.398ZM691.144 418.118C691.144 413.698 693.204 413.498 696.144 417.618C697.314 419.268 698.964 420.618 699.794 420.618C701.014 420.618 700.884 419.928 699.094 417.048C697.464 414.398 697.184 413.178 698.014 412.348C699.504 410.858 699.454 406.328 697.944 404.818C697.284 404.158 694.554 403.618 691.874 403.618H687.004L687.704 411.868C688.084 416.408 688.594 420.458 688.834 420.868C689.914 422.758 691.144 421.298 691.144 418.118ZM659.384 414.038C660.354 406.338 660.674 405.618 663.194 405.618C664.444 405.618 665.144 405.108 664.894 404.368C664.384 402.798 652.144 402.028 652.144 403.568C652.144 404.148 653.334 404.618 654.784 404.618H657.434L656.754 412.708C656.224 419.078 656.354 420.718 657.364 420.378C658.084 420.138 658.964 417.378 659.384 414.038ZM647.144 418.208C647.144 417.978 647.814 414.268 648.644 409.958C649.464 405.648 650.144 402.008 650.144 401.868C650.144 401.728 649.504 401.618 648.724 401.618C647.324 401.618 646.834 403.118 645.594 411.118C645.254 413.318 644.754 415.908 644.494 416.868C644.184 417.998 644.564 418.618 645.574 418.618C646.434 418.618 647.144 418.428 647.144 418.208ZM639.154 415.088C641.064 410.068 642.864 400.568 642.014 400.038C641.094 399.468 639.374 403.238 638.444 407.888C637.514 412.538 636.604 411.818 634.274 404.598C630.924 394.188 629.044 394.098 626.624 404.228C624.994 411.048 624.784 414.618 626.004 414.618C626.484 414.618 627.444 411.918 628.144 408.618C628.844 405.318 629.744 402.618 630.154 402.618C630.554 402.618 631.464 404.758 632.174 407.368C633.774 413.308 635.894 417.618 637.194 417.618C637.744 417.618 638.624 416.478 639.154 415.088ZM619.474 408.578C622.254 406.388 623.764 401.208 622.764 397.248C622.014 394.268 615.954 391.198 612.524 392.058C609.294 392.868 606.154 398.198 606.144 402.878C606.144 406.058 606.654 406.958 609.394 408.628C613.534 411.158 616.214 411.138 619.474 408.578ZM603.434 396.058C606.894 389.768 607.084 389.048 605.564 387.938C604.154 386.908 603.154 387.338 599.204 390.668C596.624 392.838 594.174 394.618 593.764 394.618C593.354 394.618 593.164 391.598 593.334 387.898C593.584 382.468 593.344 381.128 592.094 380.868C590.404 380.518 582.744 394.168 583.734 395.768C584.584 397.148 585.534 396.128 588.004 391.188C589.254 388.678 590.504 386.618 590.764 386.618C591.024 386.618 590.944 389.278 590.574 392.518C589.644 400.778 590.434 401.378 595.964 396.648C601.134 392.228 602.324 392.638 599.194 397.768C598.074 399.608 597.154 401.718 597.144 402.448C597.144 405.358 599.834 402.628 603.434 396.058ZM796.144 417.638C794.764 417.188 784.424 414.268 773.144 411.148C741.394 402.378 742.224 402.678 740.544 399.428C739.174 396.778 739.284 395.768 741.964 386.338C743.564 380.718 746.844 368.988 749.254 360.268L753.644 344.418L759.854 339.458C788.744 316.408 805.834 277.658 803.664 240.118C801.584 204.128 786.044 173.348 760.194 154.048C755.214 150.328 751.304 147.128 751.504 146.928C751.704 146.728 762.394 144.758 775.254 142.548C788.114 140.338 799.664 138.108 800.914 137.588C805.234 135.788 805.384 132.818 802.094 113.798C795.454 75.4482 794.854 71.5782 795.474 70.9582C796.374 70.0482 807.124 76.7982 817.054 84.5082C845.244 106.388 869.224 140.378 880.284 174.118C888.374 198.778 891.524 218.788 891.564 245.618C891.624 287.268 882.664 319.948 861.344 355.888C850.494 374.188 831.284 395.918 812.864 410.748C803.074 418.618 801.324 419.338 796.144 417.638ZM842.894 340.118C844.134 338.208 845.134 336.298 845.124 335.878C845.104 335.088 834.584 328.108 831.804 327.038C830.724 326.628 829.574 327.498 828.184 329.778C827.064 331.618 826.154 333.678 826.144 334.368C826.144 336.478 827.764 335.758 828.964 333.118C830.164 330.478 831.674 330.038 834.144 331.598C835.384 332.388 835.424 332.908 834.394 334.578C833.704 335.688 833.154 337.388 833.174 338.358C833.204 339.778 833.674 339.588 835.624 337.378C837.114 335.678 838.624 334.868 839.584 335.238C841.324 335.898 841.694 339.158 840.144 340.118C838.984 340.838 838.784 343.628 839.894 343.608C840.304 343.598 841.654 342.028 842.894 340.118ZM850.854 326.148C853.564 320.608 853.374 317.408 850.574 321.418L849.044 323.598L843.124 320.608C836.884 317.458 835.144 317.008 835.144 318.558C835.144 319.078 837.884 320.958 841.234 322.748C846.864 325.748 847.274 326.198 846.754 328.808C845.834 333.408 847.964 332.018 850.854 326.148ZM857.644 310.768C857.644 310.018 854.764 306.588 851.244 303.138L844.844 296.868L848.644 295.618C852.104 294.478 852.584 294.548 854.044 296.408C855.494 298.278 857.724 299.038 860.784 298.738C861.824 298.628 865.144 291.768 865.144 289.738C865.144 289.278 861.524 287.868 857.094 286.608C851.174 284.918 848.754 284.608 847.934 285.428C847.114 286.248 847.544 286.818 849.544 287.578C851.044 288.148 852.694 288.618 853.214 288.618C853.724 288.618 854.144 289.238 854.144 289.998C854.144 290.788 852.324 291.838 849.884 292.458C846.544 293.298 845.374 294.168 844.504 296.478C843.554 298.988 843.684 299.718 845.364 301.388C847.224 303.248 847.244 303.528 845.714 306.488C844.564 308.718 843.374 309.618 841.614 309.618C839.024 309.618 838.264 311.078 840.394 311.978C841.084 312.258 845.244 312.408 849.644 312.308C855.604 312.168 857.644 311.778 857.644 310.768ZM867.654 278.548C868.034 276.308 868.154 274.298 867.924 274.068C867.274 273.418 851.824 270.598 851.374 271.058C850.654 271.778 849.054 279.868 849.544 280.348C850.534 281.338 852.144 279.398 852.144 277.228C852.144 274.238 852.684 273.808 855.754 274.398C858.064 274.838 858.254 275.218 857.684 278.248C857.284 280.368 857.454 281.618 858.124 281.618C858.714 281.618 859.464 280.268 859.794 278.618C860.254 276.298 860.934 275.618 862.764 275.618C864.874 275.618 865.144 276.068 865.144 279.678C865.144 284.718 866.734 284.008 867.654 278.548ZM868.114 267.158C868.774 266.358 869.564 263.898 869.854 261.708C870.474 257.098 869.944 256.818 859.644 256.378C853.414 256.108 850.174 257.878 855.894 258.428C858.854 258.718 859.144 259.048 859.144 262.108C859.144 263.958 859.854 266.178 860.714 267.048C862.694 269.018 866.514 269.078 868.114 267.158ZM868.694 249.168C871.824 246.028 871.954 241.108 868.974 237.928C866.384 235.178 858.884 234.708 855.484 237.088C851.684 239.758 851.904 247.348 855.884 250.368C856.784 251.058 859.484 251.618 861.884 251.618C865.174 251.618 866.834 251.018 868.694 249.168ZM441.524 359.368C442.084 355.498 444.864 331.038 447.184 309.618C448.494 297.598 448.414 296.798 445.804 294.188C444.054 292.438 441.864 291.688 437.054 291.188C433.534 290.818 422.764 289.648 413.144 288.568C403.524 287.498 393.924 286.438 391.814 286.208C389.704 285.978 387.734 285.548 387.444 285.248C387.144 284.958 391.344 279.478 396.774 273.078C402.204 266.678 408.354 259.338 410.444 256.778C416.434 249.448 418.094 247.488 427.184 236.988C431.884 231.558 439.484 222.618 444.064 217.118C453.814 205.418 457.744 200.818 470.094 186.618C475.124 180.848 487.964 165.768 498.624 153.118C509.294 140.468 519.734 128.158 521.844 125.758L525.674 121.398L555.524 123.208C590.954 125.348 590.154 125.078 590.124 134.938C590.124 138.338 589.464 150.938 588.664 162.938C587.464 180.828 586.884 185.178 585.424 187.068C584.444 188.338 578.004 196.288 571.104 204.748C556.374 222.798 528.304 257.408 523.794 263.068C522.064 265.238 519.474 268.388 518.054 270.068C516.634 271.748 514.604 274.198 513.554 275.528C512.504 276.848 510.264 279.548 508.584 281.528C506.904 283.498 502.664 288.718 499.174 293.118C495.674 297.518 492.314 301.568 491.694 302.118C491.084 302.668 488.354 306.038 485.644 309.618C482.934 313.198 476.404 321.288 471.124 327.618C465.854 333.948 457.134 344.628 451.744 351.368C446.354 358.108 441.714 363.618 441.434 363.618C441.144 363.618 441.194 361.708 441.524 359.368ZM463.554 278.768C463.844 278.298 462.984 276.878 461.644 275.618C458.284 272.458 459.444 271.338 465.254 272.128C469.344 272.698 470.144 272.548 470.144 271.208C470.144 270.118 469.234 269.618 467.224 269.618C464.844 269.618 463.974 268.928 462.474 265.868C461.354 263.578 459.824 261.998 458.534 261.818C456.304 261.498 450.144 265.988 450.144 267.938C450.144 269.078 461.044 279.488 462.334 279.568C462.714 279.598 463.264 279.238 463.554 278.768ZM476.554 264.538C480.584 259.748 479.794 257.718 475.464 261.778C473.224 263.888 473.114 263.898 471.134 262.118L469.114 260.278L471.304 257.948C474.254 254.808 472.784 253.668 469.624 256.638C467.304 258.818 466.974 258.878 465.484 257.388C464.004 255.908 464.054 255.558 466.084 252.968C469.374 248.788 466.474 248.558 462.974 252.728L460.124 256.118L466.364 261.868C469.794 265.028 472.904 267.618 473.284 267.618C473.664 267.618 475.134 266.238 476.554 264.538ZM486.204 253.398C490.774 248.388 489.874 246.588 485.094 251.168L482.424 253.718L477.094 249.168C471.564 244.448 470.084 243.738 470.224 245.868C470.324 247.328 480.674 256.618 482.214 256.618C482.784 256.618 484.584 255.168 486.204 253.398ZM494.954 243.658C498.064 239.448 497.664 237.748 494.314 240.948C491.494 243.658 491.494 243.658 489.664 241.638C487.954 239.758 487.944 239.498 489.494 237.788C491.304 235.778 491.674 233.618 490.204 233.618C489.684 233.618 488.624 234.528 487.844 235.638C486.954 236.908 485.814 237.428 484.784 237.038C482.714 236.238 482.704 234.688 484.744 231.778C485.624 230.518 486.074 229.218 485.734 228.878C484.924 228.068 479.144 233.638 479.144 235.218C479.144 236.638 490.114 246.578 491.704 246.608C492.294 246.608 493.754 245.288 494.954 243.658ZM500.154 233.628C499.154 231.768 499.314 231.068 501.184 229.078C502.914 227.238 504.054 226.848 506.404 227.318C512.124 228.468 508.804 225.428 501.114 222.478C492.614 219.208 491.144 219.018 491.144 221.148C491.144 222.728 496.574 234.118 498.414 236.408C500.094 238.488 501.524 236.198 500.154 233.628ZM514.554 221.538C517.484 218.058 517.704 216.768 515.814 214.178C514.474 212.338 511.024 212.328 505.394 214.128C503.514 214.738 503.144 214.478 503.144 212.598C503.144 211.358 503.884 209.798 504.784 209.138C505.684 208.478 506.234 207.388 506.004 206.708C505.214 204.338 500.144 209.478 500.144 212.658C500.144 216.828 502.924 218.028 508.314 216.168C511.604 215.038 512.754 214.978 513.344 215.908C514.544 217.808 514.314 218.478 511.674 220.778C510.324 221.958 509.444 223.298 509.734 223.768C510.664 225.268 511.904 224.688 514.554 221.538ZM524.624 210.048C527.834 205.848 527.204 204.268 523.654 207.608C521.264 209.858 521.094 209.878 519.204 208.168C517.374 206.518 517.354 206.228 518.824 203.978C520.974 200.698 519.464 199.508 517.014 202.538C515.214 204.758 514.924 204.828 513.444 203.348C511.964 201.868 511.974 201.518 513.574 199.088C516.234 195.028 514.324 194.678 510.974 198.618L508.004 202.118L514.214 207.868C517.624 211.028 520.754 213.618 521.164 213.618C521.574 213.618 523.134 212.018 524.624 210.048ZM599.484 159.538C599.844 153.258 600.434 141.558 600.794 133.548C601.604 115.208 601.614 115.218 587.844 114.218C570.414 112.958 547.634 111.668 542.394 111.648C538.574 111.628 537.144 111.238 537.144 110.218C537.144 108.248 551.884 94.6482 562.874 86.4882C576.904 76.0582 585.384 70.8782 599.704 63.9782C645.334 41.9782 696.204 37.1782 746.954 50.0682C765.824 54.8582 781.864 61.5382 782.624 64.9082C783.894 70.5082 792.144 120.978 792.144 123.128C792.144 126.318 788.844 129.268 784.304 130.118C773.584 132.138 746.684 136.758 740.294 137.688C734.094 138.588 732.304 138.498 728.884 137.128C717.004 132.378 693.104 129.788 677.644 131.578C651.314 134.628 629.144 144.528 608.664 162.378L598.824 170.958L599.484 159.538ZM650.894 95.9482C651.584 95.0082 652.144 92.4982 652.144 90.3782C652.144 83.4482 645.994 79.8282 638.834 82.5482C636.864 83.2982 636.474 84.0182 636.834 86.2982C637.494 90.5482 639.354 99.0282 639.804 99.8082C640.454 100.958 649.544 97.7982 650.894 95.9482ZM725.644 97.6382C726.004 95.9982 728.074 92.5082 730.244 89.8882C733.194 86.3182 733.804 85.0382 732.664 84.7982C731.824 84.6182 729.914 85.9282 728.414 87.7082L725.694 90.9382L724.644 86.5982C724.064 84.2182 722.964 82.0582 722.214 81.8082C721.134 81.4482 721.014 82.0682 721.644 84.7382C722.084 86.5982 722.584 90.8182 722.754 94.1182C722.924 97.4182 723.084 100.228 723.104 100.368C723.124 100.508 723.554 100.618 724.064 100.618C724.574 100.618 725.284 99.2782 725.644 97.6382ZM714.094 94.9582C716.974 91.2882 717.594 88.1182 716.124 84.5582C714.614 80.9182 712.424 79.6182 707.784 79.6182C703.054 79.6182 700.144 83.2982 700.144 89.2482C700.144 94.9482 702.674 97.6182 708.074 97.6182C711.134 97.6182 712.464 97.0282 714.094 94.9582ZM666.914 95.4182C666.694 94.7682 664.964 94.1982 663.074 94.1682C660.094 94.1282 659.604 93.7582 659.324 91.3682C659.034 88.8082 659.274 88.6182 662.664 88.6182C665.144 88.6182 666.174 88.2182 665.874 87.3682C665.624 86.6282 664.164 86.2482 662.294 86.4282C659.514 86.7082 659.144 86.4482 659.144 84.2482C659.144 82.2882 659.714 81.6782 661.814 81.4382C665.204 81.0382 666.204 78.6082 662.974 78.6282C661.694 78.6382 659.634 78.9182 658.394 79.2482C655.914 79.9182 655.654 81.8782 656.794 91.3682L657.424 96.6182H662.364C665.764 96.6182 667.184 96.2382 666.914 95.4182ZM673.954 92.8882C674.184 90.4982 674.864 89.6582 676.944 89.1282C680.794 88.1682 682.144 86.7482 682.144 83.6982C682.144 79.9282 680.414 78.6182 675.444 78.6182H671.144V87.6982C671.144 94.5182 671.454 96.6782 672.394 96.3782C673.084 96.1482 673.784 94.5782 673.954 92.8882ZM697.144 95.7282C697.144 94.5482 694.614 93.6182 691.424 93.6182H688.864L689.544 86.1182C690.094 80.0382 689.964 78.6182 688.824 78.6182C687.794 78.6182 687.284 80.7282 686.864 86.8382C686.554 91.3682 686.514 95.4182 686.784 95.8382C687.454 96.9282 697.144 96.8182 697.144 95.7282ZM671.184 417.688C668.544 412.758 670.694 406.618 675.054 406.618C676.624 406.618 678.474 407.308 679.174 408.148C680.704 409.998 680.704 414.708 679.174 417.558C677.714 420.288 672.614 420.368 671.184 417.688ZM690.144 409.248C690.144 406.248 691.434 405.258 694.214 406.138C697.354 407.138 696.384 411.028 692.894 411.438C690.544 411.708 690.144 411.388 690.144 409.248ZM610.344 406.418C607.644 403.718 609.944 395.958 613.724 395.008C614.954 394.698 616.904 394.948 618.054 395.568C622.364 397.878 619.344 407.618 614.314 407.618C612.794 407.618 611.004 407.078 610.344 406.418ZM848.164 308.868C848.164 308.458 848.584 307.468 849.084 306.678C849.834 305.488 850.264 305.468 851.564 306.558C853.854 308.458 853.504 309.618 850.644 309.618C849.264 309.618 848.154 309.278 848.164 308.868ZM856.144 292.688C856.144 289.588 857.414 288.868 859.994 290.508C862.014 291.788 860.944 295.068 858.384 295.438C856.484 295.708 856.144 295.298 856.144 292.688ZM862.374 264.448C861.694 263.768 861.144 262.408 861.144 261.418C861.144 260.078 861.924 259.618 864.214 259.618C866.964 259.618 867.244 259.898 866.964 262.358C866.614 265.348 864.324 266.398 862.374 264.448ZM855.964 246.118C855.114 244.248 855.114 242.988 855.964 241.118C856.924 239.008 857.784 238.618 861.424 238.618C866.384 238.618 868.144 239.928 868.144 243.618C868.144 247.308 866.384 248.618 861.424 248.618C857.784 248.618 856.924 248.228 855.964 246.118ZM455.324 269.748L453.034 268.028L455.054 266.198C457.414 264.058 460.144 264.738 460.144 267.468C460.144 270.658 457.924 271.718 455.324 269.748ZM495.684 225.688C493.904 222.248 494.004 222.148 497.594 223.778C500.514 225.108 500.734 225.878 498.704 227.568C497.534 228.538 496.974 228.188 495.684 225.688ZM640.754 90.9782C640.394 87.8782 640.314 85.1182 640.574 84.8482C641.774 83.6482 646.614 84.5482 647.814 86.1882C650.804 90.2782 648.444 96.6182 643.924 96.6182C641.624 96.6182 641.364 96.1482 640.754 90.9782ZM704.894 94.5382C703.694 93.8382 703.144 92.2782 703.144 89.5682C703.144 84.6782 706.124 81.1782 709.444 82.1782C712.814 83.1982 713.484 84.2282 713.334 88.2282C713.104 94.1982 709.254 97.0782 704.894 94.5382ZM673.144 83.6182C673.144 80.7882 673.414 80.5182 675.894 80.7982C678.074 81.0482 678.644 81.6382 678.644 83.6182C678.644 85.5982 678.074 86.1882 675.894 86.4382C673.414 86.7182 673.144 86.4482 673.144 83.6182Z" fill="#F9B12F"/>
</svg>
