<svg width="500" height="500" viewBox="0 0 500 500" fill="none" xmlns="http://www.w3.org/2000/svg">
<rect width="500" height="500" rx="20" fill="white"/>
<g clip-path="url(#clip0_131_74)">
<path d="M271.756 402.909L264.847 419.685C263.475 423.006 260.337 425.255 256.805 425.407C254.472 425.496 252.12 425.561 249.743 425.561C168.424 425.518 96.474 368.006 78.6463 288.76L50.9645 295.028C60.9684 339.478 86.078 379.822 121.671 408.655C157.677 437.814 203.035 453.912 249.437 454H249.852C252.577 454 255.28 453.935 257.981 453.825C272.542 453.214 285.553 444.061 291.112 430.497L300.135 408.567L271.756 402.909Z" fill="url(#paint0_linear_131_74)"/>
<path d="M53.2356 304.05C48.426 286.44 45.9926 268.266 46 250.011C46 166.354 98.3754 89.86 176.34 59.6951L186.562 86.2342C119.453 112.204 74.3783 178.018 74.3783 250.011C74.369 265.719 76.4583 281.359 80.5908 296.514L53.2356 304.05Z" fill="url(#paint1_linear_131_74)"/>
<path d="M405.698 169.194C375.358 110.764 315.637 74.4612 249.879 74.4612C226.578 74.4612 203.934 78.9603 182.616 87.8073L171.742 61.5295C196.523 51.2434 222.809 46 249.879 46C326.274 46 395.627 88.1563 430.871 156.044L405.698 169.194Z" fill="url(#paint2_linear_131_74)"/>
<path d="M189.002 207.92C205.459 207.92 218.865 216.722 225.751 232.078L226.296 233.28L253.932 223.866L253.344 222.446C242.642 196.3 217.991 180.049 189.004 180.049C168.625 180.049 152.059 186.602 138.371 200.057C124.771 213.425 117.883 230.242 117.883 250.054C117.883 269.691 124.771 286.424 138.371 299.79C152.059 313.246 168.625 319.798 189.004 319.798C217.991 319.798 242.642 303.547 253.344 277.424L253.933 276.005L226.253 266.567L225.729 267.813C219.561 282.906 205.829 291.927 189.002 291.927C177.539 291.927 167.861 287.909 160.187 280.001C152.431 271.984 148.507 261.915 148.507 250.077C148.507 238.15 152.343 228.277 160.189 219.891C167.839 211.938 177.537 207.92 189.002 207.92Z" fill="#09293F"/>
<path d="M362.106 182.626L322.721 282.6L283.073 182.626H250.641L306.243 319.078L266.683 415.316L295.039 420.974L392.751 182.626H362.106Z" fill="#09293F"/>
<path d="M430.872 156.044C445.22 183.995 454 216.826 454 250.43C454 328.843 409.899 396.921 345.222 431.071L331.248 406.291C387.332 377.043 425.641 318.224 425.641 250.43C425.641 221.01 418.448 193.548 405.698 169.192L430.872 156.044Z" fill="url(#paint3_linear_131_74)"/>
</g>
<defs>
<linearGradient id="paint0_linear_131_74" x1="1625.72" y1="7563.95" x2="21104" y2="12764.8" gradientUnits="userSpaceOnUse">
<stop stop-color="#315C55"/>
<stop offset="1" stop-color="#09293F"/>
</linearGradient>
<linearGradient id="paint1_linear_131_74" x1="7678.26" y1="6721.31" x2="5865.26" y2="24371.1" gradientUnits="userSpaceOnUse">
<stop stop-color="#4FB38D"/>
<stop offset="1" stop-color="#315C55"/>
</linearGradient>
<linearGradient id="paint2_linear_131_74" x1="3775.97" y1="6205.68" x2="18151.9" y2="8841.15" gradientUnits="userSpaceOnUse">
<stop stop-color="#4FB38D"/>
<stop offset="1" stop-color="#97DEC0"/>
</linearGradient>
<linearGradient id="paint3_linear_131_74" x1="6942.68" y1="8652.23" x2="-896.664" y2="23329.4" gradientUnits="userSpaceOnUse">
<stop stop-color="#97DEC0"/>
<stop offset="1" stop-color="#FFFFF0" stop-opacity="0"/>
</linearGradient>
<clipPath id="clip0_131_74">
<rect width="408" height="408" fill="white" transform="translate(46 46)"/>
</clipPath>
</defs>
</svg>
