<svg width="500" height="500" viewBox="0 0 500 500" fill="none" xmlns="http://www.w3.org/2000/svg">
<rect width="500" height="500" rx="20" fill="white"/>
<path d="M442 355.031C436.426 357.137 430.273 357.133 424.702 355.018C419.131 352.904 414.527 348.826 411.759 343.553L356.703 267.496L348.724 256.863L284.842 343.649C282.241 348.7 277.887 352.632 272.594 354.709C267.302 356.786 261.433 356.867 256.086 354.936L338.399 244.62L261.831 144.969C267.336 142.987 273.357 142.96 278.88 144.894C284.402 146.828 289.089 150.604 292.151 155.586L349.218 232.584L406.604 155.905C409.226 150.943 413.581 147.117 418.842 145.154C424.103 143.191 429.902 143.227 435.138 145.256L405.424 184.647L365.177 236.984C364.059 237.98 363.165 239.2 362.552 240.566C361.94 241.931 361.623 243.41 361.623 244.907C361.623 246.403 361.94 247.882 362.552 249.248C363.165 250.613 364.059 251.834 365.177 252.83L441.84 355.047L442 355.031ZM59.0321 243.249L65.7346 210.17C84.1505 144.761 159.218 117.549 210.86 158.041C241.101 181.778 248.649 215.383 247.165 253.26H76.8097C74.0489 320.9 122.913 361.743 185.39 340.875C195.518 337.233 204.584 331.139 211.775 323.137C218.966 315.136 224.058 305.477 226.595 295.027C229.898 284.41 235.34 282.593 245.33 285.653C243.665 298.604 239.082 311.009 231.926 321.935C224.769 332.861 215.226 342.024 204.013 348.734C185.493 358.855 164.243 362.866 143.302 360.194C122.361 357.523 102.803 348.306 87.422 333.861C72.2142 316.762 63.0229 295.163 61.2503 272.358C61.2503 268.612 59.9736 265.105 59.1119 261.741C59.0342 255.583 58.997 249.424 59.0002 243.265L59.0321 243.249ZM77.0171 238.689H231.079C230.121 189.653 199.146 154.868 157.83 154.549C111.838 153.912 78.9321 187.931 76.9054 238.466L77.0171 238.689Z" fill="black"/>
</svg>
