<svg width="500" height="500" viewBox="0 0 500 500" fill="none" xmlns="http://www.w3.org/2000/svg">
<rect width="500" height="500" rx="20" fill="white"/>
<path d="M449.003 206.349L454.95 190.945L454.692 189.99L395.849 205.493C402.123 196.419 399.968 189.141 399.968 189.141C399.968 189.141 381.177 201.141 366.966 200.826C352.755 200.513 348.175 196.72 326.385 203.672C304.595 210.617 298.438 231.939 292.12 236.52C285.804 241.1 265.984 256.019 265.984 256.019L266.027 256.283L283.895 250.594C283.895 250.594 278.994 255.212 268.582 269.244C268.582 269.244 268.404 269.078 268.096 268.795L268.114 268.894C268.114 268.894 276.482 281.682 284.695 279.317C285.52 279.077 286.449 278.683 287.466 278.166C290.773 280.007 295.088 281.817 299.854 282.316C299.854 282.316 296.627 278.566 293.936 274.3C294.664 273.831 295.408 273.345 296.166 272.852L295.815 273.099L302.619 275.599L301.867 269.201C301.891 269.189 301.911 269.171 301.935 269.158L308.621 271.615L307.79 265.796C308.625 265.359 309.471 264.942 310.327 264.547L317.297 238.182L346.119 218.523L343.828 224.285C337.985 238.656 327.013 242.048 327.013 242.048L322.432 243.784C319.027 247.811 317.592 248.803 316.422 262.318C319.169 261.628 321.792 261.462 324.168 262.101C336.482 265.421 340.749 280.259 337.431 284.366C336.6 285.395 334.623 287.149 332.13 289.211H327.13L327.062 293.263C326.889 293.399 326.717 293.527 326.551 293.663H321.466L321.404 297.616C320.954 297.96 320.505 298.294 320.074 298.619C315.296 298.718 309.243 294.55 309.243 294.55C309.243 298.342 312.402 304.179 312.402 304.179C312.402 304.179 312.611 304.081 312.962 303.909C312.655 304.137 312.482 304.259 312.482 304.259C312.482 304.259 325.27 312.788 333.324 309.629C340.484 306.821 359.023 292.204 375.026 285.283L423.451 272.526L429.836 255.982L392.931 265.703V250.848L436.233 239.438L442.618 222.894L392.943 235.985V221.121L449.003 206.349ZM213.907 206.337C216.942 206.337 219.22 206.811 220.643 207.286L217.99 216.392C216.85 216.01 215.81 215.825 214.289 215.825C210.022 215.825 207.553 220.283 206.795 224.359L206.414 226.348L215.152 226.347L215.151 226.335H227.576V226.348L227.859 248.643C227.951 253.008 228.05 256.234 227.951 259.645H228.143C229.091 255.853 230.039 252.719 231.652 247.787L238.671 226.348H250.622L235.45 262.865C230.893 273.493 225.679 282.408 219.99 287.623C217.238 290.185 214.017 292.18 212.022 293.028L207.282 283.35C209.368 282.304 211.548 281.072 213.444 279.558C216.105 277.372 218.66 274.718 219.799 272.157C219.99 271.492 220.175 271.017 220.082 270.069L216.093 234.696H204.991L197.688 272.735H185.83L193.133 234.697L194.752 226.348L195.127 224.452C196.174 218.953 198.262 214.206 202.146 210.604C204.991 207.95 209.167 206.337 213.907 206.337ZM97.8339 225.596C102.482 225.596 107.131 226.354 109.975 227.493L104.858 253.285C103.72 258.691 102.864 267.705 102.963 272.729L92.717 272.729L92.7514 271.91C92.8507 269.7 93.0108 267.4 93.0933 264.959H92.8098C89.1094 271.129 84.6515 273.499 80.9511 273.499C74.2157 273.499 70.8965 267.711 70.8965 259.553C70.8965 245.515 77.9161 225.596 97.8339 225.596ZM163.764 213.825L161.394 226.348H187.389L178.474 272.734H166.615L173.925 234.695H159.78L155.698 256.228C155.415 257.84 155.316 259.263 155.316 260.119C155.316 262.963 156.739 264.01 158.925 264.01C159.78 264.01 161.012 264.01 162.151 263.819L160.728 272.734C158.549 273.307 155.889 273.492 153.611 273.492C146.5 273.492 142.984 269.508 142.984 263.247C142.984 261.159 143.366 258.598 143.84 256.32L147.922 234.691H142.516L144.129 226.341H149.535L151.431 216.76L163.764 213.824V213.825ZM131.046 225.591C135.127 225.591 138.064 226.348 139.77 227.296L137.208 235.929C135.879 235.171 133.699 234.506 131.71 234.506C127.918 234.506 125.547 236.495 125.547 239.629C125.547 241.999 126.877 243.422 129.056 245.226C134.272 249.209 135.983 253.759 135.983 257.367C135.983 267.612 128.866 273.302 118.244 273.302C113.978 273.302 110.179 272.07 108.566 270.932L111.404 262.583C113.3 263.629 115.578 264.571 118.897 264.479C122.315 264.386 124.211 262.201 124.211 259.263C124.211 256.703 122.979 254.898 119.753 252.337C115.77 249.11 113.873 245.034 113.873 241.051C113.873 232.511 120.51 225.591 131.046 225.591ZM73.077 206.337C76.112 206.337 78.3902 206.811 79.8116 207.286L77.1594 216.392C76.0199 216.01 74.9796 215.825 73.459 215.825C69.1916 215.825 66.7228 220.283 65.9661 224.359L65.5841 226.348H74.5969L72.9841 234.697H64.1611L56.858 272.735H45L52.3023 234.697L53.9215 226.348L54.2979 224.452C55.3437 218.953 57.4313 214.206 61.3159 210.604C64.1611 207.95 68.3364 206.337 73.077 206.337ZM94.5219 234.414C86.7447 234.414 82.5703 249.874 82.4718 256.708C82.4718 260.791 83.0443 263.728 85.9816 263.728C89.2079 263.728 92.2437 258.414 93.9494 249.973L96.9843 234.697C96.0362 234.506 95.181 234.414 94.5219 234.414ZM184.347 207.187C188.239 207.187 190.042 210.124 189.944 213.351C189.852 218.091 186.625 220.751 183.116 220.751C179.323 220.751 177.617 217.999 177.71 214.489C177.71 211.078 180.173 207.187 184.347 207.187Z" fill="black"/>
</svg>
