<svg width="500" height="500" viewBox="0 0 500 500" fill="none" xmlns="http://www.w3.org/2000/svg">
<rect width="500" height="500" rx="20" fill="white"/>
<g clip-path="url(#clip0_365_70)">
<path d="M1.76362 341.243V344.017H0.98343V341.243H0.000976562V340.578H2.71718V341.243H1.76362Z" fill="#B0AFB0"/>
<path d="M6.35813 341.849L5.43345 343.728H4.97114L4.04646 341.849V344.017H3.29517V340.578H4.33539L5.23119 342.456L6.12698 340.578H7.16721V344.017H6.41591V341.849H6.35813Z" fill="#B0AFB0"/>
<path d="M33.2905 475.827C30.0843 475.827 27.2727 475.654 24.8557 475.309C22.4387 475.013 20.3917 474.643 18.7146 474.199V455.11C20.5397 455.504 22.4634 455.85 24.4858 456.146C26.4588 456.442 28.6291 456.59 30.9968 456.59C33.2658 456.59 35.3621 456.343 37.2859 455.85C39.2589 455.356 40.9607 454.493 42.3911 453.26C43.8709 452.076 45.0054 450.473 45.7947 448.451C46.6332 446.428 47.0524 443.888 47.0525 440.83V335.839H69.9891V440.09C69.9891 446.305 69.0765 451.657 67.2515 456.146C65.4757 460.634 62.9601 464.334 59.7046 467.244C56.4984 470.204 52.6509 472.374 48.1623 473.755C43.6736 475.136 38.7163 475.827 33.2905 475.827Z" fill="#D22128" stroke="#D22128" stroke-width="3" stroke-linejoin="round"/>
<path d="M82.2803 335.85V444.008H102.786V393.686C102.786 392.305 102.747 390.757 102.698 389.031C102.698 387.304 102.649 385.513 102.551 383.639C102.501 381.765 102.443 379.876 102.344 377.953C102.295 376.029 102.207 374.15 102.109 372.325C101.911 368.083 101.668 363.693 101.372 359.155H102.05L125.797 444.008H146.862L172.466 359.303H173.055C172.907 363.791 172.751 368.094 172.554 372.237C172.505 374.013 172.417 375.843 172.318 377.717C172.269 379.591 172.22 381.431 172.171 383.256C172.122 385.081 172.073 386.814 172.024 388.441C172.024 390.069 172.024 391.519 172.024 392.802V444.008H193.414V335.85H162.183L137.317 418.552H136.875L113.511 335.85H82.2803ZM297.034 343.688L290.522 361.129L278.119 368.701V378.247H288.902V418.11C288.902 423.437 289.535 427.876 290.817 431.427C292.149 434.93 293.969 437.733 296.238 439.854C298.507 441.925 301.203 443.405 304.311 444.244C307.419 445.082 310.757 445.481 314.358 445.481C318.057 445.481 321.474 445.131 324.581 444.391C327.738 443.7 330.356 442.795 332.477 441.71V424.916C330.406 425.656 328.371 426.279 326.349 426.772C324.376 427.266 322.264 427.509 320.044 427.509C317.479 427.509 315.406 426.74 313.827 425.211C312.249 423.682 311.47 421.316 311.47 418.11V378.247H331.593V361.306H311.47V343.688H297.034ZM239.11 359.745C233.487 359.745 228.367 360.66 223.731 362.485C219.143 364.31 215.191 367.025 211.887 370.675C208.631 374.276 206.081 378.802 204.256 384.228C202.431 389.654 201.516 395.981 201.516 403.232C201.516 410.384 202.518 416.643 204.491 421.97C206.514 427.248 209.317 431.638 212.918 435.14C216.519 438.593 220.811 441.162 225.793 442.888C230.775 444.615 236.226 445.481 242.145 445.481C245.203 445.481 248.006 445.374 250.571 445.128C253.136 444.93 255.54 444.59 257.76 444.096C259.98 443.603 262.062 442.99 264.036 442.299C266.058 441.559 268.073 440.683 270.046 439.647V422.176C267.876 423.261 265.754 424.225 263.682 425.063C261.61 425.853 259.498 426.524 257.377 427.067C255.256 427.609 253.076 428.038 250.807 428.334C248.587 428.58 246.222 428.687 243.706 428.687C240.697 428.687 238.001 428.24 235.634 427.303C233.315 426.365 231.3 425.022 229.623 423.296C227.995 421.52 226.73 419.359 225.793 416.843C224.905 414.278 224.418 411.427 224.32 408.27H274.76V397.31C274.76 391.292 273.933 385.978 272.256 381.341C270.628 376.655 268.263 372.703 265.155 369.497C262.097 366.291 258.34 363.877 253.9 362.249C249.51 360.572 244.585 359.745 239.11 359.745ZM374.963 359.745C369.339 359.745 364.22 360.66 359.583 362.485C354.996 364.31 351.044 367.025 347.739 370.675C344.483 374.276 341.933 378.802 340.108 384.228C338.283 389.654 337.368 395.981 337.368 403.232C337.368 410.384 338.371 416.643 340.344 421.97C342.366 427.248 345.169 431.638 348.77 435.14C352.371 438.593 356.663 441.162 361.645 442.888C366.627 444.615 372.078 445.481 377.997 445.481C381.055 445.481 383.859 445.374 386.424 445.128C388.988 444.93 391.393 444.59 393.612 444.096C395.832 443.603 397.915 442.99 399.888 442.299C401.91 441.559 403.925 440.683 405.898 439.647V422.176C403.728 423.261 401.606 424.225 399.534 425.063C397.463 425.853 395.35 426.524 393.229 427.067C391.108 427.609 388.928 428.038 386.659 428.334C384.439 428.58 382.074 428.687 379.559 428.687C376.55 428.687 373.854 428.24 371.486 427.303C369.168 426.365 367.182 425.022 365.505 423.296C363.877 421.52 362.583 419.359 361.645 416.843C360.758 414.278 360.271 411.427 360.172 408.27H410.612V397.31C410.612 391.292 409.785 385.978 408.108 381.341C406.48 376.655 404.115 372.703 401.008 369.497C397.949 366.291 394.192 363.877 389.753 362.249C385.363 360.572 380.438 359.745 374.963 359.745ZM459.786 359.745C457.023 359.745 454.561 360.085 452.39 360.776C450.269 361.417 448.342 362.342 446.616 363.575C444.939 364.759 443.43 366.238 442.049 367.965C440.668 369.691 439.373 371.589 438.189 373.71H437.07L433.741 361.306H416.652V444.008H439.221V401.906C439.221 398.009 439.698 394.729 440.635 392.065C441.621 389.352 442.974 387.182 444.701 385.554C446.476 383.877 448.589 382.67 451.006 381.93C453.472 381.19 456.139 380.811 459.049 380.81C459.542 380.811 460.165 380.85 460.905 380.899C461.645 380.899 462.375 380.948 463.115 381.046C463.904 381.096 464.663 381.183 465.354 381.282C466.045 381.381 466.58 381.478 466.974 381.576V360.393C466.678 360.294 466.241 360.236 465.649 360.187C465.106 360.088 464.483 360 463.793 359.951C463.151 359.852 462.47 359.804 461.73 359.804C461.04 359.754 460.377 359.745 459.786 359.745ZM239.257 375.802C241.625 375.802 243.698 376.24 245.474 377.128C247.25 378.016 248.739 379.232 249.923 380.81C251.107 382.34 251.983 384.17 252.575 386.291C253.166 388.412 253.497 390.728 253.547 393.244H224.762C225.156 387.226 226.655 382.827 229.27 380.015C231.933 377.203 235.262 375.802 239.257 375.802ZM375.11 375.802C377.477 375.802 379.551 376.24 381.326 377.128C383.102 378.016 384.591 379.232 385.775 380.81C386.959 382.34 387.835 384.17 388.427 386.291C389.019 388.412 389.35 390.728 389.399 393.244H360.614C361.009 387.226 362.508 382.827 365.122 380.015C367.786 377.203 371.114 375.802 375.11 375.802Z" fill="black" stroke="black" stroke-width="3" stroke-linejoin="round"/>
<path d="M459.539 347.973H456.223V335.053H452.284V332.284H463.466V335.053H459.539V347.973Z" fill="#4D4D4D"/>
<path d="M472.191 347.973L468.746 335.665H468.649C468.692 336.323 468.728 336.959 468.757 337.575C468.771 337.839 468.782 338.111 468.789 338.39C468.803 338.669 468.814 338.945 468.821 339.217C468.836 339.488 468.843 339.75 468.843 340C468.85 340.25 468.853 340.476 468.853 340.676V347.973H465.881V332.284H470.409L473.8 344.282H473.865L477.471 332.284H481.999V347.973H478.898V340.547C478.898 340.361 478.898 340.15 478.898 339.914C478.905 339.678 478.912 339.428 478.919 339.163C478.926 338.898 478.933 338.63 478.941 338.358C478.955 338.086 478.966 337.822 478.973 337.564C479.001 336.963 479.026 336.337 479.048 335.686H478.962L475.249 347.973H472.191Z" fill="#4D4D4D"/>
<path d="M46.7424 319.203L62.9437 280.491H66.0656L82.2669 319.203H78.1919L73.1639 307.109H55.7468L50.7845 319.203H46.7424ZM64.5211 284.96L56.5683 304.086H72.2767L64.5211 284.96Z" fill="#D22128"/>
<path d="M86.4075 319.203V280.491H102.444C109.083 280.491 113.881 286.636 113.881 292.65C113.881 298.959 109.411 304.908 102.773 304.908H90.1867V319.203H86.4075ZM90.1867 301.523H102.576C107.144 301.523 110.101 297.316 110.101 292.65C110.101 287.786 106.519 283.875 102.247 283.875H90.1867V301.523Z" fill="#D22128"/>
<path d="M111.778 319.203L127.979 280.491H131.101L147.302 319.203H143.161L138.133 307.109H120.749L115.787 319.203H111.778ZM129.556 284.96L121.603 304.086H137.312L129.556 284.96Z" fill="#D22128"/>
<path d="M165.574 280.261C172.442 280.261 177.47 283.744 179.869 288.706L176.813 290.547C174.348 285.42 169.55 283.678 165.376 283.678C156.109 283.678 151.048 291.96 151.048 299.748C151.048 308.292 157.325 316.048 165.541 316.048C169.911 316.048 175.038 313.879 177.47 308.851L180.625 310.494C178.127 316.278 171.259 319.499 165.311 319.499C154.696 319.499 147.203 309.344 147.203 299.551C147.203 290.251 153.907 280.261 165.574 280.261Z" fill="#D22128"/>
<path d="M216.478 280.491V319.203H212.666V301.095H189.728V319.203H185.981V280.491H189.728V297.711H212.666V280.491H216.478Z" fill="#D22128"/>
<path d="M251.214 315.818V319.203H225.219V280.491H250.721V283.875H228.966V297.842H247.927V301.063H228.966V315.818H251.214Z" fill="#D22128"/>
<path d="M410.595 24.3411C405.438 27.4107 396.843 36.0056 386.652 48.4681L396.045 66.2104C402.614 56.7561 409.367 48.284 416.12 41.0397C416.612 40.4872 416.919 40.1802 416.919 40.1802C416.673 40.4872 416.366 40.7327 416.12 41.0397C413.91 43.434 407.28 51.1694 397.273 66.5788C406.912 66.0876 421.707 64.1231 433.801 62.0358C437.423 41.8992 430.302 32.6904 430.302 32.6904C430.302 32.6904 421.216 18.0177 410.595 24.3411Z" fill="url(#paint0_linear_365_70)"/>
<path d="M378.978 173.278C377.75 173.524 376.523 173.708 375.295 173.892C375.909 173.831 376.584 173.708 377.198 173.585C377.812 173.524 378.426 173.401 378.978 173.278Z" fill="#BE202E"/>
<path opacity="0.35" d="M378.978 173.278C377.75 173.524 376.523 173.708 375.295 173.892C375.909 173.831 376.584 173.708 377.198 173.585C377.812 173.524 378.426 173.401 378.978 173.278Z" fill="#BE202E"/>
<path d="M382.171 157.746C382.109 157.746 382.109 157.746 382.171 157.746C382.355 157.746 382.539 157.684 382.723 157.684C383.521 157.562 384.319 157.439 385.056 157.255C384.135 157.439 383.153 157.562 382.171 157.746Z" fill="#BE202E"/>
<path opacity="0.35" d="M382.171 157.746C382.109 157.746 382.109 157.746 382.171 157.746C382.355 157.746 382.539 157.684 382.723 157.684C383.521 157.562 384.319 157.439 385.056 157.255C384.135 157.439 383.153 157.562 382.171 157.746Z" fill="#BE202E"/>
<path d="M368.296 112.009C371.182 106.668 374.067 101.449 376.952 96.3539C379.961 91.0742 383.03 85.9786 386.161 81.0059C386.345 80.6989 386.53 80.392 386.714 80.1464C389.783 75.2964 392.853 70.6306 395.984 66.149L386.591 48.4681C385.916 49.3276 385.179 50.1871 384.442 51.108C381.741 54.4846 378.917 58.1067 376.031 61.9744C372.778 66.3332 369.463 70.9376 366.025 75.7876C362.894 80.2692 359.701 84.9964 356.509 89.8463C353.808 94.021 351.106 98.257 348.405 102.616C348.282 102.8 348.221 102.923 348.098 103.107L360.315 127.234C363.016 122.139 365.656 117.043 368.296 112.009Z" fill="url(#paint1_linear_365_70)"/>
<path d="M312.613 248.115C311.017 252.535 309.36 257.078 307.764 261.744C307.764 261.805 307.702 261.867 307.702 261.928C307.457 262.603 307.211 263.217 307.027 263.893C305.922 267.024 305.001 269.848 302.791 276.232C306.413 277.89 309.298 282.187 312 287.099C311.693 282.003 309.605 277.215 305.615 273.531C323.357 274.329 338.705 269.848 346.563 256.832C347.239 255.666 347.914 254.438 348.528 253.149C344.906 257.692 340.485 259.657 332.075 259.165C344.415 253.64 350.615 248.299 356.079 239.52C357.368 237.433 358.657 235.161 359.947 232.644C349.142 243.756 336.618 246.887 323.418 244.493L313.534 245.598C313.227 246.457 312.92 247.255 312.613 248.115Z" fill="url(#paint2_linear_365_70)"/>
<path d="M317.218 225.952C319.367 220.427 321.577 214.84 323.787 209.192C325.936 203.79 328.146 198.387 330.417 192.923C332.689 187.46 335.022 181.996 337.355 176.532C339.749 170.945 342.204 165.42 344.722 159.895C347.177 154.431 349.756 148.967 352.273 143.564C353.194 141.6 354.115 139.697 355.097 137.732C356.693 134.417 358.351 131.102 360.008 127.787C360.07 127.602 360.192 127.418 360.254 127.234L348.16 103.168C347.975 103.475 347.791 103.844 347.546 104.151C344.722 108.816 341.836 113.544 339.074 118.394C336.249 123.305 333.487 128.278 330.786 133.373C328.514 137.671 326.304 141.968 324.094 146.327C323.664 147.186 323.234 148.107 322.805 148.967C320.165 154.431 317.709 159.772 315.56 164.867C313.105 170.638 310.956 176.163 309.053 181.382C307.825 184.82 306.659 188.135 305.615 191.327C304.755 194.029 303.957 196.791 303.159 199.492C301.317 205.877 299.783 212.262 298.493 218.647L310.772 242.897C312.368 238.538 314.087 234.179 315.745 229.697C316.236 228.469 316.727 227.242 317.218 225.952Z" fill="url(#paint3_linear_365_70)"/>
<path d="M298.309 219.506C296.774 227.242 295.669 234.977 295.117 242.712C295.117 242.958 295.055 243.265 295.055 243.51C291.249 237.371 280.935 231.355 280.997 231.416C288.364 242.098 293.95 252.658 294.749 263.033C290.819 263.831 285.417 262.665 279.216 260.393C285.724 266.348 290.574 268.006 292.477 268.436C286.522 268.804 280.321 272.917 274.059 277.644C283.207 273.899 290.635 272.426 295.915 273.654C287.504 297.413 279.094 323.688 270.683 351.56C273.261 350.824 274.796 349.043 275.656 346.71C277.129 341.676 287.136 308.525 302.729 264.998C303.159 263.77 303.65 262.542 304.08 261.253C304.203 260.884 304.326 260.577 304.448 260.209C306.106 255.666 307.825 251 309.605 246.212C310.035 245.107 310.403 244.063 310.833 242.958V242.897L298.555 218.647C298.432 218.954 298.371 219.199 298.309 219.506Z" fill="url(#paint4_linear_365_70)"/>
<path d="M362.28 129.321C361.911 130.058 361.604 130.733 361.236 131.47C360.192 133.68 359.087 135.89 358.044 138.162C356.877 140.617 355.711 143.135 354.483 145.713C353.869 147.002 353.255 148.291 352.641 149.642C350.799 153.633 348.958 157.746 347.054 161.982C344.722 167.2 342.389 172.603 339.994 178.251C337.723 183.592 335.39 189.179 333.057 194.888C330.847 200.352 328.575 205.939 326.304 211.771C324.278 216.928 322.252 222.269 320.165 227.733C320.042 227.978 319.981 228.285 319.858 228.531C317.832 233.933 315.745 239.52 313.657 245.229C313.596 245.352 313.534 245.475 313.534 245.598L323.419 244.493C323.234 244.431 323.05 244.431 322.805 244.37C334.653 242.897 350.37 234.056 360.499 223.128C365.165 218.094 369.401 212.201 373.33 205.263C376.277 200.106 378.978 194.397 381.618 188.012C383.89 182.487 386.1 176.47 388.187 169.963C385.486 171.375 382.355 172.419 378.917 173.155C378.303 173.278 377.689 173.401 377.075 173.524C376.461 173.646 375.847 173.708 375.172 173.831C386.223 169.594 393.16 161.429 398.194 151.361C395.309 153.326 390.581 155.904 384.933 157.193C384.197 157.377 383.398 157.5 382.6 157.623C382.416 157.623 382.232 157.684 381.986 157.684C385.793 156.088 389.047 154.308 391.871 152.159C392.485 151.729 393.037 151.238 393.59 150.747C394.449 150.01 395.247 149.212 396.045 148.414C396.536 147.862 397.028 147.371 397.519 146.818C398.624 145.529 399.667 144.117 400.588 142.582C400.895 142.091 401.202 141.661 401.448 141.17C401.816 140.433 402.184 139.758 402.491 139.083C404.026 136.013 405.254 133.25 406.236 130.795C406.727 129.567 407.157 128.462 407.526 127.418C407.648 126.988 407.832 126.62 407.955 126.19C408.324 125.024 408.692 123.98 408.938 123.059C409.306 121.709 409.551 120.604 409.674 119.806C409.306 120.113 408.876 120.42 408.385 120.665C405.07 122.63 399.36 124.471 394.756 125.331C394.695 125.331 394.633 125.331 394.572 125.392C394.142 125.454 393.651 125.515 393.16 125.638C393.221 125.576 393.344 125.576 393.405 125.515L362.341 128.892C362.402 129.137 362.341 129.26 362.28 129.321Z" fill="url(#paint5_linear_365_70)"/>
<path d="M397.273 66.5788C394.51 70.8148 391.502 75.6648 388.248 81.0673C388.064 81.3742 387.88 81.6198 387.757 81.9267C384.933 86.6539 381.987 91.8109 378.856 97.5203C376.154 102.432 373.33 107.65 370.383 113.359C367.805 118.271 365.227 123.489 362.464 129.014L393.528 125.638C402.553 121.463 406.605 117.718 410.534 112.254C411.577 110.781 412.621 109.185 413.665 107.527C416.857 102.554 419.988 97.0906 422.751 91.6267C425.452 86.347 427.846 81.1286 429.627 76.4629C430.793 73.4547 431.714 70.692 432.389 68.2363C432.942 66.0876 433.372 64.0617 433.74 62.0971C421.707 64.1231 406.912 66.0876 397.273 66.5788Z" fill="url(#paint6_linear_365_70)"/>
<path d="M377.198 173.646C376.584 173.769 375.97 173.831 375.295 173.953C375.909 173.831 376.523 173.708 377.198 173.646Z" fill="#BE202E"/>
<path opacity="0.35" d="M377.198 173.646C376.584 173.769 375.97 173.831 375.295 173.953C375.909 173.831 376.523 173.708 377.198 173.646Z" fill="#BE202E"/>
<path d="M377.198 173.646C376.584 173.769 375.97 173.831 375.295 173.953C375.909 173.831 376.523 173.708 377.198 173.646Z" fill="url(#paint7_linear_365_70)"/>
<path d="M382.109 157.746C382.294 157.746 382.478 157.684 382.723 157.684C382.539 157.684 382.355 157.746 382.109 157.746Z" fill="#BE202E"/>
<path opacity="0.35" d="M382.109 157.746C382.294 157.746 382.478 157.684 382.723 157.684C382.539 157.684 382.355 157.746 382.109 157.746Z" fill="#BE202E"/>
<path d="M382.109 157.746C382.294 157.746 382.478 157.684 382.723 157.684C382.539 157.684 382.355 157.746 382.109 157.746Z" fill="url(#paint8_linear_365_70)"/>
</g>
<defs>
<linearGradient id="paint0_linear_365_70" x1="394.666" y1="50.61" x2="463.506" y2="31.4704" gradientUnits="userSpaceOnUse">
<stop stop-color="#F69923"/>
<stop offset="0.3123" stop-color="#F79A23"/>
<stop offset="0.8383" stop-color="#E97826"/>
</linearGradient>
<linearGradient id="paint1_linear_365_70" x1="243.987" y1="359.57" x2="384.003" y2="59.2948" gradientUnits="userSpaceOnUse">
<stop offset="0.3233" stop-color="#9E2064"/>
<stop offset="0.6302" stop-color="#C92037"/>
<stop offset="0.7514" stop-color="#CD2335"/>
<stop offset="1" stop-color="#E97826"/>
</linearGradient>
<linearGradient id="paint2_linear_365_70" x1="291.006" y1="337.367" x2="374.442" y2="158.431" gradientUnits="userSpaceOnUse">
<stop stop-color="#282662"/>
<stop offset="0.0954839" stop-color="#662E8D"/>
<stop offset="0.7882" stop-color="#9F2064"/>
<stop offset="0.9487" stop-color="#CD2032"/>
</linearGradient>
<linearGradient id="paint3_linear_365_70" x1="249.053" y1="341.401" x2="389.069" y2="41.125" gradientUnits="userSpaceOnUse">
<stop offset="0.3233" stop-color="#9E2064"/>
<stop offset="0.6302" stop-color="#C92037"/>
<stop offset="0.7514" stop-color="#CD2335"/>
<stop offset="1" stop-color="#E97826"/>
</linearGradient>
<linearGradient id="paint4_linear_365_70" x1="263.327" y1="321.396" x2="336.91" y2="163.592" gradientUnits="userSpaceOnUse">
<stop stop-color="#282662"/>
<stop offset="0.0954839" stop-color="#662E8D"/>
<stop offset="0.7882" stop-color="#9F2064"/>
<stop offset="0.9487" stop-color="#CD2032"/>
</linearGradient>
<linearGradient id="paint5_linear_365_70" x1="280.13" y1="355.892" x2="420.146" y2="55.6161" gradientUnits="userSpaceOnUse">
<stop offset="0.3233" stop-color="#9E2064"/>
<stop offset="0.6302" stop-color="#C92037"/>
<stop offset="0.7514" stop-color="#CD2335"/>
<stop offset="1" stop-color="#E97826"/>
</linearGradient>
<linearGradient id="paint6_linear_365_70" x1="269.902" y1="373.799" x2="409.918" y2="73.5235" gradientUnits="userSpaceOnUse">
<stop offset="0.3233" stop-color="#9E2064"/>
<stop offset="0.6302" stop-color="#C92037"/>
<stop offset="0.7514" stop-color="#CD2335"/>
<stop offset="1" stop-color="#E97826"/>
</linearGradient>
<linearGradient id="paint7_linear_365_70" x1="289.373" y1="360.202" x2="429.39" y2="59.9264" gradientUnits="userSpaceOnUse">
<stop offset="0.3233" stop-color="#9E2064"/>
<stop offset="0.6302" stop-color="#C92037"/>
<stop offset="0.7514" stop-color="#CD2335"/>
<stop offset="1" stop-color="#E97826"/>
</linearGradient>
<linearGradient id="paint8_linear_365_70" x1="288.316" y1="359.691" x2="428.311" y2="59.4321" gradientUnits="userSpaceOnUse">
<stop offset="0.3233" stop-color="#9E2064"/>
<stop offset="0.6302" stop-color="#C92037"/>
<stop offset="0.7514" stop-color="#CD2335"/>
<stop offset="1" stop-color="#E97826"/>
</linearGradient>
<clipPath id="clip0_365_70">
<rect width="482" height="482" fill="white" transform="translate(0 9)"/>
</clipPath>
</defs>
</svg>
