<svg width="945" height="315" viewBox="0 0 945 315" fill="none" xmlns="http://www.w3.org/2000/svg">
<rect width="945" height="315" rx="20" fill="white"/>
<g clip-path="url(#clip0_369_70)">
<path d="M277.559 126.28C274.013 126.28 270.678 127.654 268.182 130.149L258.097 140.207C255.376 142.921 253.978 146.688 254.265 150.55C254.285 150.761 254.306 150.972 254.326 151.19C254.688 154.155 255.99 156.827 258.097 158.921C259.55 160.37 261.152 161.288 263.095 161.927C263.198 162.512 263.252 163.104 263.252 163.695C263.252 166.361 262.216 168.864 260.334 170.741L259.713 171.359C256.345 170.21 253.535 168.531 250.998 166.001C247.63 162.641 245.4 158.398 244.561 153.74L244.445 153.094L243.934 153.509C243.586 153.787 243.259 154.087 242.952 154.392L232.866 164.45C227.698 169.605 227.698 178.003 232.866 183.158C235.451 185.735 238.847 187.027 242.249 187.027C245.652 187.027 249.041 185.735 251.626 183.158L261.711 173.1C266.88 167.945 266.88 159.554 261.711 154.392C260.334 153.019 258.69 151.985 256.829 151.319C256.727 150.714 256.672 150.108 256.672 149.517C256.672 146.62 257.818 143.873 259.918 141.778C263.293 142.927 266.287 144.791 268.817 147.314C272.178 150.666 274.402 154.903 275.254 159.574L275.37 160.22L275.881 159.806C276.229 159.527 276.556 159.228 276.87 158.915L286.956 148.857C292.125 143.702 292.131 135.304 286.956 130.149C284.453 127.654 281.125 126.28 277.573 126.28H277.559Z" fill="black"/>
<path d="M272.154 89.4974H140.191C102.59 89.4974 72 120.003 72 157.5C72 194.997 102.59 225.503 140.191 225.503H272.154C309.755 225.503 340.346 194.997 340.346 157.5C340.346 120.003 309.755 89.4974 272.154 89.4974ZM207.066 196.112C204.891 196.561 202.443 196.643 200.779 194.909C200.165 196.316 198.733 195.575 197.628 195.392C197.526 195.677 197.437 195.929 197.342 196.214C193.666 196.459 190.912 192.719 189.159 189.897C185.681 188.02 181.733 186.877 178.18 184.912C177.976 188.149 178.685 192.161 175.596 194.249C175.439 200.471 185.034 194.984 185.913 199.621C185.231 199.696 184.474 199.512 183.929 200.036C181.426 202.464 178.555 198.2 175.671 199.961C171.798 201.906 171.409 203.497 166.615 203.899C166.349 203.497 166.458 203.232 166.683 202.987C168.033 201.423 168.129 199.58 170.434 198.914C168.061 198.54 166.076 199.846 164.078 200.879C161.48 201.94 161.501 198.485 157.505 201.063C157.061 200.702 157.273 200.376 157.525 200.097C158.541 198.86 159.878 198.676 161.385 198.744C153.972 194.623 150.481 203.783 147.058 199.227C146.028 199.499 145.64 200.423 144.992 201.076C144.433 200.465 144.855 199.723 144.883 199.002C144.214 198.69 143.369 198.54 143.566 197.472C142.257 197.03 141.344 197.805 140.368 198.54C139.489 197.86 140.962 196.867 141.234 196.16C142.019 194.8 143.805 195.881 144.712 194.902C147.29 193.44 150.883 195.813 153.829 195.412C156.1 195.697 158.909 193.372 157.771 191.053C155.343 187.959 155.773 183.913 155.718 180.213C155.418 178.057 150.229 175.31 148.729 172.984C146.874 170.89 145.428 168.462 143.983 166.076C138.766 156.004 140.409 143.063 133.836 133.713C130.862 135.352 126.989 134.577 124.425 132.38C123.041 133.638 122.979 135.284 122.871 137.032C119.55 133.72 119.966 127.463 122.618 123.778C123.703 122.322 124.998 121.126 126.444 120.071C126.771 119.833 126.88 119.602 126.873 119.235C129.499 107.457 147.406 109.728 153.065 118.072C157.171 123.207 158.412 130 163.069 134.767C169.336 141.608 176.476 147.633 182.258 154.916C187.727 161.574 191.634 169.38 195.044 177.248C196.435 179.859 196.449 183.063 198.508 185.293C199.524 186.64 204.488 190.305 203.411 191.604C204.032 192.95 208.668 194.806 207.059 196.112H207.066ZM294.037 155.936L283.952 165.994C281.265 168.673 277.944 170.672 274.343 171.767L274.159 171.822L274.091 171.998C272.918 175.086 271.138 177.84 268.792 180.173L258.707 190.23C254.309 194.616 248.458 197.03 242.225 197.03C235.993 197.03 230.142 194.616 225.743 190.23C216.654 181.165 216.654 166.422 225.743 157.357L235.829 147.3C238.529 144.607 241.762 142.669 245.423 141.547L245.608 141.492L245.676 141.316C246.849 138.228 248.635 135.467 250.988 133.114L261.073 123.057C265.471 118.671 271.322 116.257 277.555 116.257C283.788 116.257 289.638 118.671 294.037 123.057C298.435 127.443 300.856 133.278 300.856 139.493C300.856 145.709 298.435 151.55 294.037 155.93V155.936Z" fill="black"/>
<path d="M166.042 183.94C165.155 187.381 164.869 193.236 160.382 193.406C160.014 195.392 161.76 196.139 163.355 195.5C164.931 194.779 165.68 196.072 166.212 197.357C168.647 197.71 172.248 196.547 172.384 193.671C168.749 191.583 167.624 187.612 166.049 183.933L166.042 183.94Z" fill="black"/>
<path d="M403.523 125.142H391.543V197.806H442.925V186.231H403.523V125.142Z" fill="black"/>
<path d="M503.145 197.806H515.125V197.676H515.282L515.305 197.143C515.309 196.987 515.352 195.533 515.132 193.292V166.249C515.132 156.074 522.55 151.442 529.444 151.442C536.859 151.442 540.468 155.439 540.468 163.663V197.806H552.448V162.069C552.448 148.496 543.823 140.062 529.945 140.062C524.047 140.062 518.784 141.737 514.65 144.92L514.54 141.058H503.162V197.806H503.145Z" fill="black"/>
<path d="M601.203 145.227C597.039 141.844 591.686 140.062 585.648 140.062C569.494 140.062 559.459 151.2 559.459 169.13C559.459 187.061 569.494 198.301 585.648 198.301C591.345 198.301 596.431 196.75 600.438 193.798C600.094 202.594 594.583 207.818 585.551 207.818C577.955 207.818 573.658 205.4 572.776 200.633L572.665 200.041L561.026 203.59L561.13 204.07C563.095 213.544 571.96 219.199 584.856 219.199C593.604 219.199 600.465 216.819 605.253 212.117C610.085 207.377 612.531 200.547 612.531 191.822V141.058H601.45L601.21 145.227H601.203ZM600.455 169.631C600.455 180.457 595.181 186.926 586.343 186.926C576.869 186.926 571.439 180.441 571.439 169.136C571.439 157.83 576.872 151.442 586.343 151.442C594.968 151.442 600.368 157.879 600.455 168.236V169.631Z" fill="black"/>
<path d="M671.555 174.764C669.072 182.794 662.696 187.222 653.607 187.222C640.611 187.222 632.531 177.354 632.531 161.471C632.531 145.587 640.682 135.72 653.808 135.72C662.89 135.72 668.123 139.28 670.787 147.257L672.03 150.989L683.341 145.679L682.279 142.69C677.971 130.555 668.023 124.145 653.51 124.145C643.649 124.145 635.278 127.705 629.3 134.438C623.385 141.106 620.254 150.451 620.254 161.476C620.254 184.151 633.343 198.807 653.607 198.807C667.886 198.807 678.947 191.337 683.191 178.82L684.274 175.62L672.655 171.203L671.549 174.769L671.555 174.764Z" fill="black"/>
<path d="M716.294 140.062C710.573 140.062 705.483 141.629 701.487 144.608V118.178H689.507V197.811H701.487V166.254C701.487 156.015 708.902 151.351 715.799 151.351C723.214 151.351 726.823 155.347 726.823 163.572V197.817H738.803V161.978C738.803 148.669 729.971 140.073 716.3 140.073L716.294 140.062Z" fill="black"/>
<path d="M808.824 116.465C804.373 116.465 801.142 119.697 801.142 124.146C801.142 128.595 804.373 131.827 808.824 131.827C813.272 131.827 816.503 128.595 816.503 124.146C816.503 119.697 813.272 116.465 808.824 116.465Z" fill="black"/>
<path d="M851.484 140.062C845.586 140.062 840.326 141.737 836.193 144.92L836.079 141.058H824.704V197.806H836.684V166.249C836.684 156.074 844.099 151.442 850.996 151.442C858.411 151.442 862.02 155.439 862.02 163.663V197.806H874V162.069C874 148.496 865.376 140.062 851.498 140.062H851.484Z" fill="black"/>
<path d="M814.642 141.058H802.723V169.19C799.414 166.41 795.518 164.31 791.12 162.937V160.076C791.12 147.543 782.893 140.062 769.109 140.062C757.911 140.062 749.537 145.319 746.125 154.48L745.206 156.952L754.81 164.03L756.457 159.737C758.629 154.076 762.653 151.437 769.109 151.437C775.568 151.437 779.141 154.545 779.141 160.669V160.987C778.756 160.97 778.369 160.96 777.981 160.954C765.156 160.75 755.799 163.75 750.172 169.857C744.414 176.105 744.919 183.123 744.995 183.899L745.049 184.437H745.102C745.998 193.179 753.634 198.791 764.731 198.791C770.843 198.791 776.491 197.09 780.761 193.982L780.808 197.8H791.12V180.048L790.897 179.886C789.44 178.82 786.897 177.441 783.07 176.956C781.871 176.806 780.724 176.73 779.669 176.752H779.134V178.384C779.134 182.138 774.82 187.421 765.223 187.421C758.138 187.421 757.082 184.443 757.082 182.666V182.482C757.136 181.685 757.47 179.735 759.231 177.92C761.466 175.61 766.499 172.906 777.784 173.079C785.954 173.208 792.223 175.491 796.42 179.87C801.57 185.245 802.539 192.603 802.716 195.484V197.806H814.636V141.058H814.642Z" fill="black"/>
<path d="M472.171 139.814C460.973 139.814 452.599 145.071 449.187 154.232L448.268 156.705L457.872 163.782L459.52 159.489C461.692 153.828 465.715 151.189 472.171 151.189C478.631 151.189 482.203 154.297 482.203 160.421V161.859L469.866 164.035C455.403 166.593 448.068 172.777 448.068 182.407C448.068 192.037 455.807 198.544 467.787 198.544C473.902 198.544 479.546 196.842 483.817 193.734L483.867 197.553H494.176V159.829C494.176 147.295 485.952 139.814 472.171 139.814ZM482.203 173.084V178.141C482.203 181.895 477.886 187.179 468.288 187.179C461.204 187.179 460.151 184.201 460.151 182.423C460.151 180.845 460.151 177.15 472.699 174.823L482.203 173.089V173.084Z" fill="black"/>
</g>
<defs>
<clipPath id="clip0_369_70">
<rect width="802" height="137" fill="white" transform="translate(72 89)"/>
</clipPath>
</defs>
</svg>
