<svg width="500" height="500" viewBox="0 0 500 500" fill="none" xmlns="http://www.w3.org/2000/svg">
<rect width="500" height="500" rx="20" fill="white"/>
<path d="M260.817 280.63C253.831 285.376 244.29 283.556 239.539 276.569C234.788 269.583 236.613 260.038 243.599 255.279C250.582 250.532 260.127 252.356 264.878 259.344C269.633 266.326 267.811 275.874 260.817 280.63ZM270.298 255.658C263.514 245.66 249.902 243.073 239.914 249.865C229.92 256.657 227.326 270.265 234.122 280.253C240.13 289.103 251.478 292.136 260.931 288.015L269.395 301.761L276.112 297.199L267.652 283.452C274.965 276.178 276.318 264.498 270.298 255.658ZM37 286.299C40.1459 288 44.9925 289.275 50.4348 289.275C62.3387 289.275 68.3759 283.578 68.3759 275.756C68.291 269.718 65.0603 265.722 57.1518 263C52.0506 261.301 50.4348 260.195 50.4348 258.24C50.4348 256.199 52.2203 254.923 55.3663 254.923C58.8525 254.923 62.5092 256.283 64.3797 257.22L66.5904 248.376C64.0393 247.1 59.7877 245.91 54.9419 245.91C44.653 245.91 38.0201 251.777 38.0201 259.6C37.9352 264.447 41.2517 269.123 49.9248 272.014C54.6865 273.545 55.962 274.651 55.962 276.776C55.962 278.901 54.3462 280.177 50.4348 280.177C46.6083 280.177 41.6768 278.562 39.2956 277.116L37 286.299ZM91.2484 289.361C102.303 289.361 113.102 282.388 113.102 267.252C113.102 254.669 104.598 245.911 91.929 245.911C78.4942 245.911 69.6514 254.498 69.6514 267.933C69.6514 281.368 79.0051 289.36 91.1644 289.36H91.2493L91.2484 289.361ZM91.419 280.092C85.9775 280.092 83.0013 274.735 83.0013 267.678C83.0013 261.471 85.3818 255.179 91.5047 255.179C97.3705 255.179 99.7518 261.47 99.7518 267.592C99.7518 275.075 96.6067 280.092 91.5039 280.092H91.419ZM116.843 288.425H129.767V264.447C129.767 263.257 129.853 262.066 130.192 261.216C131.129 258.834 133.254 256.368 136.825 256.368C141.501 256.368 143.373 260.025 143.373 265.382V288.425H156.297V263.852C156.297 251.607 149.92 245.91 141.417 245.91C134.444 245.91 130.278 249.907 128.578 252.628H128.322L127.727 246.845H116.503C116.673 250.587 116.843 254.924 116.843 260.11V288.425ZM197.026 263.852C197.026 254.073 192.69 245.91 178.83 245.91C171.262 245.91 165.565 248.036 162.674 249.651L165.055 257.899C167.776 256.283 172.282 254.837 176.534 254.837C182.912 254.837 184.102 257.984 184.102 260.196V260.705C169.392 260.705 159.699 265.807 159.699 276.606C159.699 283.238 164.715 289.361 173.133 289.361C178.065 289.361 182.316 287.575 185.037 284.259H185.292L186.058 288.425H197.706C197.197 286.128 197.026 282.303 197.026 278.391V263.852ZM184.527 273.289C184.527 274.054 184.442 274.819 184.272 275.499C183.422 278.136 180.701 280.261 177.554 280.261C174.664 280.261 172.453 278.646 172.453 275.33C172.453 270.398 177.725 268.782 184.527 268.782V273.289ZM203.063 288.424H215.988V267.423C215.988 266.317 216.073 265.382 216.244 264.531C217.093 260.45 220.325 257.984 225.086 257.984C226.532 257.984 227.553 258.155 228.573 258.324V246.164C227.637 245.995 227.042 245.909 225.852 245.909C221.77 245.909 216.754 248.46 214.628 254.582H214.288L213.778 246.844H202.723C202.979 250.416 203.064 254.412 203.064 260.534V288.424H203.063ZM312.941 247.501H305.459V272.67C305.459 274.115 305.204 275.475 304.779 276.495C303.419 279.897 299.933 283.383 294.916 283.383C288.199 283.383 285.732 278.026 285.732 270.203V247.501H278.25V271.565C278.25 285.935 285.988 289.591 292.449 289.591C299.763 289.591 304.184 285.254 306.055 281.938H306.225L306.65 288.655H313.282C313.027 285.425 312.942 281.683 312.942 277.346V247.501L312.941 247.501ZM321.105 278.026C321.105 281.682 321.02 285.849 320.765 288.654H327.227L327.652 281.853H327.822C330.968 287.294 335.645 289.591 341.597 289.591C350.781 289.591 360.133 282.277 360.133 267.483C360.133 255.068 352.991 246.565 342.787 246.565C336.156 246.565 331.393 249.456 328.758 254.048H328.588V228.284H321.105V278.026ZM328.588 264.761C328.588 263.571 328.758 262.55 329.012 261.616C330.458 256.003 335.219 252.432 340.322 252.432C348.314 252.432 352.566 259.489 352.566 267.822C352.566 277.261 347.974 283.638 340.067 283.638C334.71 283.638 330.289 280.067 328.842 274.88C328.67 273.984 328.584 273.072 328.588 272.159V264.761ZM398.312 269.438C398.483 268.588 398.567 267.483 398.567 265.952C398.567 258.384 395.081 246.565 381.646 246.565C369.657 246.565 362.26 256.343 362.26 268.758C362.26 281.087 369.912 289.505 382.497 289.505C389.044 289.505 393.635 288.06 396.271 286.869L394.911 281.512C392.19 282.702 388.873 283.638 383.517 283.638C376.034 283.638 369.657 279.471 369.487 269.438H398.312ZM369.572 264.081C370.167 258.894 373.399 251.922 381.051 251.922C389.384 251.922 391.424 259.319 391.34 264.081H369.572Z" fill="#070707"/>
<path d="M450.265 288.512H445.035C445.035 246.391 410.279 212.123 367.562 212.123V206.894C413.166 206.894 450.265 243.499 450.265 288.512ZM453.878 260.417C447.604 233.994 426.19 211.94 399.342 204.23L400.547 200.039C428.883 208.176 451.484 231.475 458.115 259.408L453.878 260.417ZM459.767 235.62C453.298 221.512 442.265 209.208 428.727 200.978L430.537 197.998C444.674 206.593 456.171 219.43 462.93 234.164L459.767 235.62Z" fill="#499CD2"/>
</svg>
